<?xml version="1.0" encoding="UTF-8"?>
<svg id="Capa_1" data-name="Capa 1" xmlns="http://www.w3.org/2000/svg" viewBox="0 0 820 286">
  <defs>
    <style>
      .cls-1, .cls-2 {
        fill: #fff;
        stroke-width: 0px;
      }

      .cls-2 {
        fill-rule: evenodd;
      }
    </style>
  </defs>
  <path class="cls-2" d="m760.25,218.77v-2.76c1.51,0,2.77-.74,3.78-2,1-1.26,1.24-2.76,1.24-5.02,0-2.01-.25-3.77-1.24-5.02-1.01-1.25-2.26-1.75-3.78-1.75v-2.76c2.77,0,5.02.75,6.53,2.51,1.5,1.76,2.25,4.26,2.25,7.28s-.75,5.27-2.25,7.02c-1.51,1.76-3.76,2.51-6.53,2.51h0Zm23.08-18.56l-.25,3.01c-.75-.24-1.5-.5-2.26-.75-.49,0-1.25-.25-2-.25-1.01,0-1.75.25-2.25.5-.5.5-.76,1.01-.76,1.75s1.01,1.51,3.01,2.51q.25.25.5.25c1.76,1.01,3.01,2.01,3.76,2.76.5.75,1,1.76,1,3.01,0,1.76-.75,3.26-2,4.27-1.25,1-3.01,1.5-5.26,1.5-.75,0-2.26-.25-4.27-.74-.25-.25-.5-.25-.5-.25l.26-3.26c1,.5,1.99,1,2.75,1.25.5.25,1.25.25,1.76.25,1,0,1.75-.25,2.51-.74.5-.51,1.01-1.01,1.01-1.76s-1.01-1.75-3.03-3.01h-.49s0-.25-.25-.25c-1.51-.75-2.51-1.5-3.27-2.26-.25-.25-.75-1-.75-1.5-.25-.51-.5-1.26-.5-1.76,0-1.51.76-3.01,2.02-3.76,1.24-1,2.75-1.5,4.76-1.5,1.01,0,2,.25,3.52.5.49.25.75.25,1,.25Zm-23.08-.75v2.76h0c-1.5,0-2.75.5-3.76,1.75-.76,1.25-1.25,3.01-1.25,5.02,0,2.26.49,3.76,1.25,5.02,1.01,1.25,2.26,2,3.76,2h0v2.76h0c-2.75,0-4.76-.74-6.52-2.51-1.51-1.75-2.26-4.01-2.26-7.02,0-3.27.75-5.52,2.26-7.28,1.76-1.76,3.76-2.51,6.52-2.51h0Zm-19.32,18.81v-3.01c1.01-.25,2-.75,2.77-1.51,1-1.01,1.5-2.76,1.5-4.77s-.5-3.77-1.5-4.77c-.76-.75-1.76-1.01-2.77-1.51v-2.76c.5,0,1.01,0,1.51.25,1,.25,2,.5,2.75,1,1.25.75,2.26,1.76,3.01,3.26.5,1.26,1.01,2.76,1.01,4.52,0,2.01-.5,3.51-1.01,4.77-.75,1.25-1.76,2.51-3.26,3.26-.76.5-1.51.75-2.77,1.01-.49.25-.75.25-1.25.25Zm0-18.32v2.76c-.75,0-1.5-.25-2.26-.25h-2v13.04h2c1.01,0,1.51,0,2.26-.24v3.01c-.75.25-1.76.25-3,.25h-5.03v-18.82h5.28c1,0,2,.25,2.75.25h0Zm-19.06,14.06v-2.76h3.01l-3.01-8.28h0v-3.27h2.25l7.28,18.82h-4.01l-1.51-4.51h-4.01Zm0-14.31v3.27l-3.26,8.28h3.26v2.76h-4.27l-1.5,4.51h-3.76l7.28-18.82h2.25Zm-70.25,11.3v-3.02c.75,0,1.5-.25,2-.75.5-.5.75-1.25.75-2,0-1-.25-1.76-.75-2.25-.5-.26-1.25-.51-2-.51v-2.76c2.25.25,3.76.5,4.76,1.26,1.25.75,1.76,2.01,1.76,3.76,0,1-.25,2-1,2.76-.76,1-1.51,1.51-2.77,1.76.5,0,1.01.25,1.25.75.26.25.75,1.01,1.01,2l2.51,6.53h-3.76l-2-5.77c-.26-.76-.75-1.25-1.27-1.75h-.49Zm10.03-11.3h5.51l4.52,13.05c.25.5.25.75.5,1.26v1.75c.25-.5.25-1.25.25-1.75s.26-1.01.26-1.26l4.76-13.05h5.52v18.82h-3.52v-15.55c0-.51.26-1.01.26-1.51-.26.5-.26,1-.5,1.51,0,.5-.25.75-.25,1l-5.28,14.55h-3.27l-5.01-14.3c-.26-.5-.26-.75-.5-1.25,0-.51-.25-1.01-.25-1.51,0,1,.25,1.75.25,2.26v14.8h-3.26v-18.82h0Zm25.34,0h3.76v18.82h-3.76v-18.82h0Zm8.02,0h4.53l6.78,13.05c.25.5.5,1.01.74,1.51.26.5.26,1.25.5,2.01,0-1-.25-1.75-.25-2.51s-.26-1.25-.26-1.76v-12.29h3.53v18.82h-4.53l-7.28-13.3c0-.5-.25-.76-.49-1.5,0-.51-.26-1.01-.52-1.76.26,1.01.26,2.01.26,2.76.26.75.26,1.25.26,1.76v12.04h-3.27v-18.82Zm-43.4,0v2.76h-2.77v5.52h2.77v3.02c-.25-.25-1.01-.25-1.51-.25h-1.25v7.78h-3.51v-18.82h6.27Zm-62.47,18.57v-3.01c1.24-.25,1.99-.75,2.75-1.51,1-1.01,1.76-2.76,1.76-4.77s-.76-3.77-1.76-4.77c-.76-.75-1.51-1.01-2.75-1.51v-2.76c.49,0,1.01,0,1.5.25,1,.25,2,.5,2.75,1,1.25.75,2.26,1.76,3.01,3.26.75,1.26,1.01,2.76,1.01,4.52,0,2.01-.26,3.51-1.01,4.77-.75,1.25-1.76,2.51-3.01,3.26-.75.5-1.76.75-3.01,1.01-.23.25-.75.25-1.24.25h0Zm11.53-18.57h11.29v2.76h-7.77v5.02h7.27v2.76h-7.27v5.27h8.02v3.02h-11.53v-18.82h0Zm13.29,0h13.55v3.01h-4.76v15.81h-3.78v-15.81h-5.02v-3.01h0Zm16.06,0h11.29v2.76h-7.77v5.02h7.53v2.76h-7.53v5.27h8.03v3.02h-11.55v-18.82Zm-40.89.25v2.76c-.5,0-1.27-.25-2.26-.25h-2v13.04h2.25c.75,0,1.51,0,2.02-.24v3.01c-.76.25-1.77.25-2.77.25h-5.26v-18.82h5.52c1,0,1.75.25,2.51.25h0Zm-106.39,14.06v-2.76h3.01l-3.01-8.28h0v-3.27h2.27l7.27,18.82h-4.01l-1.51-4.51h-4.02Zm19.07-14.31h10.8v2.76h-7.02v5.02h6.78v2.76h-6.78v8.28h-3.78v-18.82h0Zm13.81,0h3.75v18.82h-3.75v-18.82h0Zm7.77,0h4.77l6.78,13.05c.25.5.49,1.01.49,1.51.25.5.5,1.25.76,2.01-.26-1-.26-1.75-.26-2.51-.26-.75-.26-1.25-.26-1.76v-12.29h3.52v18.82h-4.76l-7.02-13.3c0-.5-.26-.76-.52-1.5-.25-.51-.25-1.01-.49-1.76,0,1.01.25,2.01.25,2.76.25.75.25,1.25.25,1.76v12.04h-3.51v-18.82h0Zm19.82,0h11.29v2.76h-7.53v5.02h7.27v2.76h-7.27v5.27h7.77v3.02h-11.53v-18.82h0Zm26.09.5l-.26,3.01c-.75-.24-1.5-.5-2-.75-.75,0-1.51-.25-2-.25-1.01,0-1.76.25-2.51.5-.5.5-.75,1.01-.75,1.75s1.01,1.51,3.01,2.51q.25.25.5.25c1.75,1.01,3,2.01,3.75,2.76.76.75,1.01,1.76,1.01,3.01,0,1.76-.75,3.26-2,4.27-1.27,1-3.01,1.5-5.02,1.5-1.01,0-2.51-.25-4.52-.74-.25-.25-.5-.25-.5-.25l.26-3.26c1.25.5,2,1,2.77,1.25.75.25,1.24.25,2,.25,1,0,1.76-.25,2.26-.74.75-.51,1-1.01,1-1.76s-1-1.75-3.01-3.01h-.25c-.25,0-.25-.25-.5-.25-1.5-.75-2.51-1.5-3.01-2.26-.5-.25-.75-1-1.01-1.5-.25-.51-.5-1.26-.5-1.76,0-1.51.76-3.01,2.02-3.76,1.24-1,2.77-1.5,5.02-1.5.75,0,2,.25,3.52.5.25.25.49.25.75.25Zm-86.57-.5v3.27l-3,8.28h3v2.76h-4.01l-1.76,4.51h-3.5l7.28-18.82h1.99Zm-17.06,11.3v-3.02c.76,0,1.27-.25,1.76-.75.76-.5,1.01-1.25,1.01-2,0-1-.25-1.76-1.01-2.25-.26-.26-1-.51-1.76-.51v-2.76c2.02.25,3.76.5,4.77,1.26,1.25.75,1.76,2.01,1.76,3.76,0,1-.5,2-1.01,2.76-.75,1-1.76,1.51-3,1.76.49,0,1,.25,1.24.75.5.25.76,1.01,1.25,2l2.51,6.53h-3.76l-2.26-5.77c-.23-.76-.49-1.25-1-1.75h-.5Zm0-11.3v2.76h-2.75v5.52h2.75v3.02c-.5-.25-1-.25-1.76-.25h-1v7.78h-3.76v-18.82h6.52Zm-17.56,14.31v-2.76h3l-3-8.28h0v-3.27h2.26l7.28,18.82h-4.02l-1.51-4.51h-4.01Zm0-14.31v3.27l-3.01,8.28h3.01v2.76h-4.01l-1.77,4.51h-3v-1.76l6.52-17.07h2.26Zm-8.78,8.79c.5-1,.5-1.76.5-2.76,0-1.26,0-2.26-.5-3.01v5.77Zm0-5.77v5.77c-.26.5-.75,1-1.25,1.25-1.01,1-2.51,1.51-4.51,1.51v-2.51c.75-.25,1.25-.5,1.76-.76.49-.5,1-1.25,1-2.26,0-1.26-.5-2-1-2.51-.5-.24-1.01-.5-1.76-.75v-2.76c2,.25,3.51.75,4.76,1.51.26.5.75.75,1.01,1.51h0Zm0,14.05v1.76h-.5l.5-1.76Zm-5.77-17.07v2.76h-2.51v6.27h2.51v2.51h-2.51v7.27h-3.78v-18.82h6.28Zm-26.35,19.07v-2.76c1.51,0,2.75-.74,3.76-2,.76-1.26,1.25-2.76,1.25-5.02,0-2.01-.49-3.77-1.25-5.02-1.01-1.25-2.25-1.75-3.76-1.75v-2.76c2.75,0,4.77.75,6.53,2.51,1.51,1.76,2.25,4.26,2.25,7.28s-.74,5.27-2.25,7.02c-1.76,1.76-3.78,2.51-6.53,2.51Zm0-19.31v2.76h0c-1.5,0-2.77.5-3.76,1.75-1,1.25-1.24,3.01-1.24,5.02,0,2.26.25,3.76,1.24,5.02,1,1.25,2.26,2,3.76,2h0v2.76h0c-2.77,0-5-.74-6.52-2.51-1.51-1.75-2.26-4.01-2.26-7.02,0-3.27.75-5.52,2.26-7.28,1.51-1.76,3.75-2.51,6.52-2.51h0Zm-44.66,14.55v-2.76h3.01l-3.01-8.28h0v-3.27h2.26l7.28,18.82h-4.01l-1.51-4.51h-4.02Zm11.3-14.31h5.52l4.53,13.05c0,.5.23.75.23,1.26s.25,1.25.25,1.75c0-.5,0-1.25.26-1.75,0-.51,0-1.01.26-1.26l4.76-13.05h5.52v18.82h-3.52v-17.06c0,.5-.25,1-.25,1.51-.25.5-.25.75-.25,1l-5.27,14.55h-3.26l-5.26-14.3c0-.5-.26-.75-.26-1.25-.25-.51-.25-1.01-.25-1.51v17.06h-3.01v-18.82Zm-11.3,0v3.27l-3,8.28h3v2.76h-4.01l-1.76,4.51h-3.26v-1.25l7.02-17.57h2Zm-9.03,3.01h.5v-3.01h-.5v3.01Zm0-3.01v3.01h-4.51v15.81h-3.52v-15.81h-5.02v-3.01h13.05Zm0,17.57l-.26,1.25h.26v-1.25h0Zm-51.44-6.27v-3.02c.76,0,1.25-.25,1.76-.75.76-.5,1-1.25,1-2,0-1-.23-1.76-1-2.25-.5-.26-1-.51-1.76-.51v-2.76c2,.25,3.52.5,4.77,1.26,1.01.75,1.76,2.01,1.76,3.76,0,1-.5,2-1.25,2.76-.5,1-1.51,1.51-2.75,1.76.49,0,1,.25,1.24.75.26.25.76,1.01,1.01,2l2.77,6.53h-4.02l-2-5.77c-.26-.76-.75-1.25-1.25-1.75h-.26Zm9.79-11.3h11.55v2.76h-7.78v5.02h7.28v2.76h-7.28v5.27h8.03v3.02h-11.79v-18.82h0Zm6.27-6.52h3.01l-4.02,4.76h-1.5l2.51-4.76h0Zm20.08,7.02l-.5,3.01c-.5-.24-1.25-.5-2.02-.75-.75,0-1.25-.25-1.99-.25-1.01,0-1.77.25-2.27.5-.75.5-1,1.01-1,1.75s1,1.51,3.01,2.51c.26.25.49.25.49.25,2.02,1.01,3.27,2.01,3.78,2.76.75.75,1,1.76,1,3.01,0,1.76-.49,3.26-1.75,4.27-1.51,1-3.26,1.5-5.28,1.5-1.01,0-2.26-.25-4.51-.74q-.26-.25-.5-.25l.5-3.26c1.01.5,1.76,1,2.5,1.25.76.25,1.51.25,2.02.25,1.01,0,1.76-.25,2.25-.74.76-.51,1.01-1.01,1.01-1.76s-1.01-1.75-3.01-3.01h-.25s-.26-.25-.5-.25c-1.25-.75-2.51-1.5-3-2.26-.5-.25-.76-1-1.01-1.5-.26-.51-.26-1.26-.26-1.76,0-1.51.5-3.01,1.76-3.76,1.25-1,3.01-1.5,5.03-1.5.74,0,1.99.25,3.51.5.5.25.76.25,1.01.25Zm-36.14-.5v2.76h-3v5.52h3v3.02c-.5-.25-1-.25-1.75-.25h-1.25v7.78h-3.52v-18.82h6.52Zm-15.56,11.55v-2.51c.75-.25,1.25-.5,1.76-.76.5-.5.75-1.25.75-2.26,0-1.26-.25-2-.75-2.51-.5-.24-1.01-.5-1.76-.75v-2.76c2.02.25,3.52.75,4.51,1.51,1.27,1.01,1.76,2.51,1.76,4.52,0,1.76-.49,3.01-1.76,4.01-1,1-2.5,1.51-4.51,1.51Zm0-11.55v2.76h-2.51v6.27h2.51v2.51h-2.51v7.27h-3.76v-18.82h6.27Zm-50.43,19.07v-2.76c1.51,0,2.75-.74,3.52-2,1-1.26,1.5-2.76,1.5-5.02,0-2.01-.5-3.77-1.5-5.02-.76-1.25-2-1.75-3.52-1.75v-2.76c2.51,0,4.77.75,6.27,2.51,1.76,1.76,2.51,4.26,2.51,7.28s-.75,5.27-2.51,7.02c-1.5,1.76-3.52,2.51-6.27,2.51h0Zm17.31-19.07h4.27l4.51,8.53,4.52-8.53h4.01l-6.78,11.3v7.53h-3.76v-7.53l-6.78-11.3Zm-17.31-.25v2.76h0c-1.76,0-2.75.5-3.76,1.75-1,1.25-1.5,3.01-1.5,5.02,0,2.26.5,3.76,1.5,5.02,1.01,1.25,2,2,3.76,2h0v2.76h0c-2.75,0-5.02-.74-6.52-2.51-1.5-1.75-2.51-4.01-2.51-7.02,0-3.27,1.01-5.52,2.51-7.28,1.5-1.76,3.76-2.51,6.52-2.51h0Zm-18.06,11.54v-3.02c.75,0,1.27-.25,1.76-.75.75-.5,1-1.25,1-2,0-1-.25-1.76-1-2.25-.26-.26-1.01-.51-1.76-.51v-2.76c2,.25,3.76.5,4.77,1.26,1.25.75,1.76,2.01,1.76,3.76,0,1-.26,2-1.01,2.76-.75,1-1.76,1.51-3.01,1.76.5,0,1.01.25,1.25.75.5.25.76,1.01,1.25,2l2.51,6.53h-3.76l-2.26-5.77c-.23-.76-.49-1.25-1-1.75h-.5Zm0-11.3v2.76h-2.75v5.52h2.75v3.02c-.49-.25-1-.25-1.76-.25h-1v7.78h-3.78v-18.82h6.53Zm-16.31,11.3v-3.02c.75,0,1.25-.25,1.76-.75.75-.5,1-1.25,1-2,0-1-.25-1.76-1-2.25-.5-.26-1.01-.51-1.76-.51v-2.76c2,.25,3.5.5,4.76,1.26,1.01.75,1.77,2.01,1.77,3.76,0,1-.5,2-1.01,2.76-.76,1-1.76,1.51-3.01,1.76.5,0,1,.25,1.25.75.25.25.75,1.01,1.25,2l2.51,6.53h-4.02l-2-5.77c-.25-.76-.75-1.25-1.25-1.75h-.25Zm0-11.3v2.76h-3.01v5.52h3.01v3.02c-.5-.25-1-.25-1.76-.25h-1.25v7.78h-3.5v-18.82h6.52Zm-18.57,19.07v-2.76c1.5,0,2.75-.74,3.52-2,1-1.26,1.5-2.76,1.5-5.02,0-2.01-.5-3.77-1.5-5.02-.76-1.25-2.02-1.75-3.52-1.75v-2.76c2.51,0,4.77.75,6.27,2.51,1.76,1.76,2.52,4.26,2.52,7.28s-.76,5.27-2.52,7.02c-1.5,1.76-3.52,2.51-6.27,2.51Zm0-19.31v2.76h0c-1.76,0-2.75.5-3.76,1.75-1,1.25-1.5,3.01-1.5,5.02,0,2.26.5,3.76,1.5,5.02,1.01,1.25,2,2,3.76,2h0v2.76h0c-2.75,0-5.02-.74-6.52-2.51-1.51-1.75-2.51-4.01-2.51-7.02,0-3.27,1-5.52,2.51-7.28,1.5-1.76,3.76-2.51,6.52-2.51h0Zm-38.13,14.55v-2.76h3.26l-3-8.28h-.26v-3.27h2.51l7.02,18.82h-3.76l-1.75-4.51h-4.02Zm11.29-14.31h3.52v7.53h7.27v-7.53h3.76v18.82h-3.76v-8.28h-7.27v8.28h-3.52v-18.82Zm-11.29,0v3.27l-3.01,8.28h3.01v2.76h-4.02l-1.5,4.51h-3.76l7.28-18.82h2Zm-41.65,18.57v-3.01c1.01-.25,2-.75,2.75-1.51,1.01-1.01,1.51-2.76,1.51-4.77s-.5-3.77-1.51-4.77c-.75-.75-1.75-1.01-2.75-1.51v-2.76c.5,0,1.01,0,1.5.25,1.01.25,2,.5,2.77,1,1.25.75,2.26,1.76,3.01,3.26.49,1.26,1,2.76,1,4.52,0,2.01-.5,3.51-1,4.77-.75,1.25-1.76,2.51-3.26,3.26-.76.5-1.51.75-2.77,1.01-.5.25-.75.25-1.25.25h0Zm11.29-18.57h11.53v2.76h-7.77v5.02h7.28v2.76h-7.28v5.27h8.03v3.02h-11.79v-18.82Zm-11.29.25v2.76c-.75,0-1.51-.25-2.26-.25h-2v13.04h2c1.01,0,1.51,0,2.26-.24v3.01c-.75.25-1.76.25-3.01.25h-5.02v-18.82h5.26c1.01,0,2.02.25,2.77.25h0Zm-35.62,14.06v-2.76h3.26l-3.01-8.28h-.25v-3.27h2.51l7.02,18.82h-3.76l-1.76-4.51h-4.01Zm11.78,1h3.52v3.51h-3.52v-3.51Zm-30.85-14.8l-.5,3.01c-.5-.24-1.25-.5-2-.75-.75,0-1.25-.25-2-.25-1.01,0-1.76.25-2.26.5-.49.5-.75,1.01-.75,1.75s.75,1.51,2.77,2.51c.25.25.49.25.49.25,2.02,1.01,3.26,2.01,3.76,2.76.75.75,1.01,1.76,1.01,3.01,0,1.76-.5,3.26-1.75,4.27-1.51,1-3.03,1.5-5.28,1.5-.75,0-2.26-.25-4.51-.74,0-.25-.26-.25-.5-.25l.5-3.26c1,.5,1.75,1,2.5,1.25.76.25,1.51.25,2.02.25,1,0,1.76-.25,2.51-.74.5-.51.75-1.01.75-1.76s-1.01-1.75-3.01-3.01h-.25l-.26-.25c-1.5-.75-2.51-1.5-3.26-2.26-.5-.25-.76-1-1-1.5-.26-.51-.26-1.26-.26-1.76,0-1.51.49-3.01,1.75-3.76,1.27-1,3.03-1.5,5.03-1.5.75,0,2,.25,3.5.5.5.25.76.25,1.01.25h0Zm19.07-.5v3.27l-3.01,8.28h3.01v2.76h-4.02l-1.5,4.51h-3.76l7.28-18.82h2Zm-14.81,15.31h3.5v3.51h-3.5v-3.51Z"/>
  <path class="cls-1" d="m130.25,107.12s-.03-.1-.05-.14c.03.12.05.19.05.14Z"/>
  <path class="cls-1" d="m35.92,67.73v117.92h117.92l44.16-117.92H35.92Zm90.31,105.12c-4.01-.25-10.53,1.25-12.79,0-.5-2.26-1.5-4.51-3.5-6.27-2.02-1.75-15.32-1-19.83-.75-4.51.51-5.02,6.03-5.77,7.03-4.01.75-8.28-.75-10.78,0-1-2.26-1-6.52-2.51-10.03-7.02-3.01-20.31-14.55-22.58-32.11-7.28-5.52-2.51-11.79,0-13.8,4.51-27.09,36.37-46.66,65.99-28.85,2.75-2.51,15.8-11.29,25.59-10.54-7.21,6.48-12.71,23.57-9.84,29.46-.13-.54-.38-2.65,1.06-5.12,1.25-1.76,2-.5,2.51,0,5.52,10.29,13.54,15.05,23.83,16.56,3.26-1.76,1.01,26.09-.76,28.85-15.04,0-27.09,11.04-30.61,25.59Z"/>
  <path class="cls-2" d="m763.01,185.66v-48.18c0-7.02-1.25-12.29-4.02-15.55-2.75-3.26-7.02-5.02-13.29-5.02-2.77,0-6.03.75-9.28,2.51-3.01,1.5-5.77,3.51-7.53,6.02v60.21h-19.32v-83.55h13.8l3.76,8.03c5.28-6.27,13.05-9.54,23.34-9.54s17.81,3.01,23.59,9.04c5.77,6.02,8.53,14.3,8.53,24.84v51.18h-19.58Zm-70.51-24.34v-17.81c0-16.06-3-27.1-8.78-32.86-5.51-5.52-14.29-8.28-25.84-8.78h-2.26c-9.28,0-17.06,1.76-23.83,5.02l4.25,15.05c4.77-2.51,11.05-3.77,18.32-3.77,1.25,0,2.52,0,3.52.25,10.03.75,15.05,5.77,15.05,14.55-3-.76-5.78-1.25-8.03-1.25-2.51,0-4.76.24-7.02.24-10.03,1.01-17.81,3.51-23.83,8.03-7.28,5.52-10.8,13.04-10.8,22.58,0,8.28,2.52,14.8,7.53,19.07,5.26,4.52,12.3,6.78,21.32,6.78,2.02,0,3.78,0,5.78-.5,2.77-.26,5.26-1.01,8.03-2.26,4.27-1.75,7.27-4.27,9.03-7.03,1,2.51,2.51,4.77,4.51,6.78,2.26,2,4.78,3.01,7.78,3.01,2.51,0,4.77-.26,6.79-1.01,1.75-.5,3.74-2.25,5.26-5.01-4.53-3.02-6.79-9.79-6.79-21.08Zm-19.32-5.77c0,10.79-5,16.56-15.3,17.31-.75,0-1.51.25-2.26.25-8.52,0-13.05-3.77-13.05-11.29,0-8.28,5.28-13.05,15.31-14.55,2.26-.5,5.02-.5,7.78-.5,1.75,0,4.27.25,7.51,1v7.78Zm-82.04-80.79l19.58-4.52v93.83c0,10.29,3.01,16.31,9.28,18.32-3.01,5.77-8.28,8.53-15.56,8.53-8.78,0-13.3-6.02-13.3-18.32v-97.84Zm-21.06,4.26c-6.03-4.01-14.55-6.52-25.59-7.53-4.27-.5-9.04-.75-14.06-.75-2.25,0-10.03.25-23.57.75v114.16h20.31v-41.9c3.76.25,6.78.5,9.04.5,3,0,5.51-.25,8.28-.25,25.34-2.25,37.87-15.3,37.87-39.13,0-11.54-4.01-20.32-12.28-25.84Zm-14.55,42.65c-2.77,1.76-6.53,3.26-11.04,4.01-2.77.25-5.77.5-9.28.5-2,0-4.77-.25-8.03-.5v-36.63c1.76-.25,4.01-.25,6.03-.25,4.25,0,8.02.25,11.29.75,11.53,2.01,17.31,7.78,17.31,17.07,0,6.78-2.02,11.79-6.27,15.05Zm-69.76-10.79c-7.27-7.78-17.3-11.54-30.1-11.54s-22.32,4.01-29.86,12.04c-6.03,6.77-9.53,14.8-10.78,24.58v14.81c1.25,10.04,4.76,18.06,10.54,24.58,7.01,8.29,17.06,12.3,30.1,12.3s22.58-4.01,29.87-12.04c7.27-8.03,11.03-18.81,11.03-32.37s-3.76-24.33-10.8-32.36Zm-15.3,53.19c-3.76,4.76-8.53,7.28-14.81,7.28-13.54,0-20.31-9.54-20.31-28.1,0-8.78,1.75-15.55,5.52-20.57,3.5-4.77,8.52-7.28,14.79-7.28,13.31,0,20.08,9.28,20.08,27.84,0,9.03-1.77,15.81-5.28,20.83Zm-55.45-61.22l.49-.75-.49-.25v1Zm0-1v1l-8.03,16.31c-3.52-2.51-7.28-3.51-11.53-3.51-4.77,0-8.78,2-12.3,6.27-3.76,4.01-5.52,9.28-5.52,15.3v48.43h-19.82v-85.06h19.82v7.78c5.52-6.27,13.05-9.54,22.33-9.54,6.52,0,11.53,1.01,15.05,3.01h0Zm0,34.12c-.25,2.26-.25,4.77-.25,7.28s0,5.02.25,7.53v-14.81h0Zm-74.52-28.6l-6.27,12.3-1.01,1.76-1.76-1.25h0c-.25-.25-.49-.5-.75-.75-.25,0-.49-.25-.75-.5-1.5-1.01-3.76-2.26-6.27-3.27h0c-.5-.25-1.01-.5-1.51-.75-.49,0-1-.25-1.5-.5-2.25-.75-4.27-1-6.03-1-4.01,0-7.77.75-10.78,2.01h0c-3.01,1.25-5.77,3.26-8.03,6.02-2.25,2.76-4.02,5.77-5.26,9.53-1.25,3.51-1.76,7.77-1.76,12.54h0c0,4.26.5,8.28,1.76,11.79.25.5.25,1,.49,1.75,1.27,2.76,2.77,5.28,4.53,7.28,2.25,2.51,4.77,4.52,8.03,5.77h0c3.01,1.26,6.53,2.01,10.28,2.01,4.77,0,8.78-1.25,11.79-3.76v-14.3h-11.79v-16.56h30.61v41.15l-.49.5h0c-.75.5-1.27,1.01-1.76,1.26h0c-.5.5-1.25,1-1.76,1.25h0c-3.26,2.01-7.02,3.51-11.29,4.77h0c-1,.25-1.76.5-2.51.76-.76.24-1.75.49-2.51.49-4.27,1-8.53,1.51-12.8,1.51-6.27,0-12.04-1.25-17.3-3.26-5.03-2.26-9.54-5.27-13.31-9.54h0c-1.01-1.25-2-2.51-3.01-3.77-.75-1.25-1.76-2.51-2.51-4.01-3.76-7.27-5.77-15.8-5.77-25.59h0c0-6.78,1-13.05,3-18.81.26-.76.76-1.76,1.01-2.51,2.02-4.51,4.77-8.78,8.29-12.29,4.01-4.26,9.03-7.78,14.55-9.79,5.52-2.26,11.79-3.26,18.57-3.26,5.02,0,9.53.75,13.8,2.26,4.27,1.5,8.03,3.76,11.55,6.52l1,1.01-.75,1.25Zm-118.92-40.14h-9.04l-46.67,118.43h23.08l8.03-23.59h40.14l8.55,23.59h22.82l-46.91-118.43Zm-4.51,78.78h-14.06l14.06-42.9,14.04,42.9h-14.04Z"/>
</svg>