<?xml version="1.0" encoding="utf-8"?>
<!-- Generator: Adobe Illustrator 27.8.1, SVG Export Plug-In . SVG Version: 6.00 Build 0)  -->
<svg version="1.1" id="Capa_1" xmlns="http://www.w3.org/2000/svg" xmlns:xlink="http://www.w3.org/1999/xlink" x="0px" y="0px"
	 viewBox="0 0 24 24" style="enable-background:new 0 0 24 24;" xml:space="preserve">
<style type="text/css">
	.st0{fill-rule:evenodd;clip-rule:evenodd;fill:#E30A18;}
</style>
<path class="st0" d="M14.33,4.23C7.95,0.38,1.1,4.6,0.12,10.46C-0.07,11.94,0,12.4,0.1,13.41c0.49,3.82,3.35,6.27,4.9,6.95
	c0.33,0.75,0.28,2.18,0.51,2.18c0.5,0,1.87,0,2.36,0c0.1,0,0.25-1.43,1.22-1.51c0.98-0.08,3.83-0.23,4.28,0.15
	c0.45,0.38,0.63,1.36,0.75,1.36c0.28,0,1.93,0,2.75,0c0.17-1.79,2.26-5.49,6.62-5.54c0.36-0.6,0.85-6.59,0.12-6.19
	c-2.18-0.35-5.35-2.24-5.98-4.26c-0.29-0.74,0.66-3.19,2.22-4.56C17.78,1.83,14.93,3.7,14.33,4.23L14.33,4.23z"/>
</svg>
