<?xml version="1.0" encoding="utf-8"?>
<!-- Generator: Adobe Illustrator 27.8.1, SVG Export Plug-In . SVG Version: 6.00 Build 0)  -->
<svg version="1.1" id="Capa_1" xmlns="http://www.w3.org/2000/svg" xmlns:xlink="http://www.w3.org/1999/xlink" x="0px" y="0px"
	 viewBox="0 0 571 206" style="enable-background:new 0 0 571 206;" xml:space="preserve">
<style type="text/css">
	.st0{fill-rule:evenodd;clip-rule:evenodd;fill:#E30A18;}
	.st1{fill:#EE0000;}
	.st2{fill:#FFFFFF;}
	.st3{fill:#E30A18;}
	.st4{fill-rule:evenodd;clip-rule:evenodd;fill:#FFFFFF;}
	.st5{fill:#383838;}
	.st6{fill:#D11317;}
	.st7{fill:#D10A11;}
	.st8{fill-rule:evenodd;clip-rule:evenodd;fill:#D10A11;}
	.st9{fill:url(#SVGID_1_);}
	.st10{fill:url(#SVGID_00000087406411949862654200000005718502827479835290_);}
	.st11{fill:#C8C9CB;}
	.st12{fill:url(#SVGID_00000006679731752929802480000013190874988197784498_);}
	.st13{opacity:0.1;fill-rule:evenodd;clip-rule:evenodd;fill:#606060;}
	.st14{fill:url(#SVGID_00000132064824824661708460000002512738102360703130_);}
	.st15{fill:#F2E632;}
	.st16{fill:#282626;}
	.st17{fill:#8B8A8D;}
	.st18{fill:#1C171C;}
	.st19{fill:#F4D624;}
	.st20{fill:#DC292C;}
	.st21{fill:#2D8A4F;}
	.st22{fill:#C5C1BE;}
	.st23{fill:#D93738;}
	.st24{fill:#F1B426;}
	.st25{fill:#0890A0;}
	.st26{fill-rule:evenodd;clip-rule:evenodd;fill:#1D1D1B;}
	.st27{fill-rule:evenodd;clip-rule:evenodd;fill:#179AD7;}
	.st28{fill:#1D1D1B;}
	.st29{fill-rule:evenodd;clip-rule:evenodd;}
	.st30{fill:#31346B;}
	.st31{fill:url(#SVGID_00000060744065539260998890000005999414967257409946_);}
	
		.st32{clip-path:url(#SVGID_00000098194825029235779240000010720386655784657307_);fill:url(#SVGID_00000083768308817203387700000010506096775163738541_);}
	
		.st33{clip-path:url(#SVGID_00000098194825029235779240000010720386655784657307_);fill:url(#SVGID_00000107556735237479954230000007954378666991414173_);}
	
		.st34{clip-path:url(#SVGID_00000098194825029235779240000010720386655784657307_);fill:url(#SVGID_00000036930190289604967360000006470491995617997988_);}
	
		.st35{clip-path:url(#SVGID_00000098194825029235779240000010720386655784657307_);fill:url(#SVGID_00000023252607503955174340000000067085770106776984_);}
	
		.st36{clip-path:url(#SVGID_00000098194825029235779240000010720386655784657307_);fill:url(#SVGID_00000087373286351990876730000008691496116104109756_);}
	
		.st37{clip-path:url(#SVGID_00000098194825029235779240000010720386655784657307_);fill:url(#SVGID_00000125586213574979952180000015831335824375564421_);}
	
		.st38{clip-path:url(#SVGID_00000098194825029235779240000010720386655784657307_);fill:url(#SVGID_00000025408243548394847140000009682419566463353476_);}
	
		.st39{clip-path:url(#SVGID_00000098194825029235779240000010720386655784657307_);fill:url(#SVGID_00000121988708285174688730000012237584719906782127_);}
	.st40{fill:#31346B;stroke:#FFFFFF;stroke-width:0.7557;stroke-linecap:round;stroke-linejoin:round;stroke-miterlimit:10;}
	.st41{fill:#1C3F84;}
	.st42{fill:none;}
	.st43{fill-rule:evenodd;clip-rule:evenodd;fill:#272526;}
	
		.st44{clip-path:url(#SVGID_00000087372707123265291220000014545509334158502799_);fill:url(#SVGID_00000129922015005532146360000009535420153790731927_);}
	
		.st45{clip-path:url(#SVGID_00000181798749154153848840000015799843601519799436_);fill:url(#SVGID_00000159470401275955509240000011928788677259389080_);}
	
		.st46{clip-path:url(#SVGID_00000163066670536421805820000017080907051368383110_);fill:url(#SVGID_00000080188665771732587780000012822947695595709104_);}
	
		.st47{clip-path:url(#SVGID_00000164499074732210715500000009669833183674350741_);fill:url(#SVGID_00000160873108435036076760000015587904200691389323_);}
	.st48{fill-rule:evenodd;clip-rule:evenodd;fill:#E5282D;}
	.st49{fill-rule:evenodd;clip-rule:evenodd;fill:#FFEC08;}
	.st50{fill:#6D6E70;}
	.st51{fill:#6E6F71;}
	.st52{fill:#6F7072;}
	.st53{fill:#707173;}
	.st54{fill:#717274;}
	.st55{fill:#727375;}
	.st56{fill:#737476;}
	.st57{fill:#747577;}
	.st58{fill:#757678;}
	.st59{fill:#767779;}
	.st60{fill:#77787A;}
	.st61{fill:#78797B;}
	.st62{fill:#797A7C;}
	.st63{fill:#7A7B7D;}
	.st64{fill:#7B7C7E;}
	.st65{fill:#7C7D7F;}
	.st66{fill:#7D7E80;}
	.st67{fill:#7E7F81;}
	.st68{fill:#7F8082;}
	.st69{fill:#808183;}
	.st70{fill:#818284;}
	.st71{fill:#828385;}
	.st72{fill:#838486;}
	.st73{fill:#848587;}
	.st74{fill:#858688;}
	.st75{fill:#868789;}
	.st76{fill:#87888A;}
	.st77{fill:#88898B;}
	.st78{fill:#898A8C;}
	.st79{fill:#8A8B8D;}
	.st80{fill:#8B8C8E;}
	.st81{fill:#8C8D8F;}
	.st82{fill:#8D8E90;}
	.st83{fill:#8E8F91;}
	.st84{fill:#8F9092;}
	.st85{fill:#909193;}
	.st86{fill:#919294;}
	.st87{fill:#929395;}
	.st88{fill:#939496;}
	.st89{fill:#949597;}
	.st90{fill:#959698;}
	.st91{fill:#969799;}
	.st92{fill:#97989A;}
	.st93{fill:#98999B;}
	.st94{fill:#999A9C;}
	.st95{fill:#9A9B9D;}
	.st96{fill:#9B9C9E;}
	.st97{fill:#9C9D9F;}
	.st98{fill:#9D9EA0;}
	.st99{fill:#9E9FA1;}
	.st100{fill:#9FA0A2;}
	.st101{fill:#A0A1A3;}
	.st102{fill:#A1A2A4;}
	.st103{fill:#A2A3A5;}
	.st104{fill:#A3A4A6;}
	.st105{fill:#A4A5A7;}
	.st106{fill:#A5A6A8;}
	.st107{fill:#A6A7A9;}
	.st108{fill:#A7A8AA;}
	.st109{fill:#A8A9AB;}
	.st110{fill:#A9AAAC;}
	.st111{fill:#AAABAD;}
	.st112{fill:#ABACAE;}
	.st113{fill:#ACADAF;}
	.st114{fill:#ADAEB0;}
	.st115{fill:#AEAFB1;}
	.st116{fill:#AFB0B2;}
	.st117{fill:#B0B1B3;}
	.st118{fill:#B1B2B4;}
	.st119{fill:#B2B3B5;}
	.st120{fill:#B3B4B6;}
	.st121{fill:#B4B5B7;}
	.st122{fill:#B5B6B8;}
	.st123{fill:#B6B7B9;}
	.st124{fill:#B7B8BA;}
	.st125{fill:#B8B9BB;}
	.st126{fill:#B9BABC;}
	.st127{fill:#BABBBD;}
	.st128{fill:#BBBCBE;}
	.st129{fill:#BCBDBF;}
	.st130{fill:#BDBEC0;}
	.st131{fill:#BEBFC1;}
	.st132{fill:#BFC0C2;}
	.st133{fill:#C0C1C3;}
	.st134{fill:#C1C2C4;}
	.st135{fill:#C2C3C5;}
	.st136{fill:#C3C4C6;}
	.st137{fill:#C4C5C7;}
	.st138{fill:#C5C6C8;}
	.st139{fill:#C6C7C9;}
	.st140{fill:#C7C8CA;}
	.st141{fill:#9C212D;}
	.st142{fill:#939698;}
	.st143{fill:#FFFFFF;stroke:#7A7A7A;stroke-width:2.5563;stroke-miterlimit:10;}
	.st144{fill:#E5282D;}
	.st145{fill:#272526;}
	.st146{fill:none;stroke:#272526;stroke-width:0.1409;}
	.st147{fill:none;stroke:#272526;stroke-width:0.0373;}
	.st148{fill-rule:evenodd;clip-rule:evenodd;fill:#020202;}
	.st149{fill-rule:evenodd;clip-rule:evenodd;fill:#E1242C;}
	.st150{fill-rule:evenodd;clip-rule:evenodd;fill:#C5C6C8;}
	.st151{fill-rule:evenodd;clip-rule:evenodd;fill:#1B1918;}
	.st152{fill-rule:evenodd;clip-rule:evenodd;fill:url(#SVGID_00000145028530483830148180000002771603778606658193_);}
	.st153{fill-rule:evenodd;clip-rule:evenodd;fill:#FCB93F;}
	.st154{fill-rule:evenodd;clip-rule:evenodd;fill:#696969;}
	.st155{fill-rule:evenodd;clip-rule:evenodd;fill:url(#SVGID_00000101076296515399796250000006523318193237647499_);}
	.st156{fill-rule:evenodd;clip-rule:evenodd;fill:#221E1F;}
	.st157{fill-rule:evenodd;clip-rule:evenodd;fill:url(#SVGID_00000070104095039534377770000011595629015944260012_);}
	.st158{fill-rule:evenodd;clip-rule:evenodd;fill:url(#SVGID_00000147928412785723307190000007655473989022020767_);}
	.st159{fill-rule:evenodd;clip-rule:evenodd;fill:url(#SVGID_00000089576577248634002750000009829503789364991159_);}
	.st160{fill-rule:evenodd;clip-rule:evenodd;fill:url(#SVGID_00000017497890491439581360000012976214694791184563_);}
	.st161{fill-rule:evenodd;clip-rule:evenodd;fill:url(#SVGID_00000054249061208661161340000005537244354814371516_);}
	.st162{fill-rule:evenodd;clip-rule:evenodd;fill:#403F41;}
	.st163{fill-rule:evenodd;clip-rule:evenodd;fill:url(#SVGID_00000111168597358116062060000014248767740960103061_);}
	.st164{fill-rule:evenodd;clip-rule:evenodd;fill:#AD1129;}
	.st165{clip-path:url(#SVGID_00000007423816772593770520000010110783962213812667_);}
	.st166{fill-rule:evenodd;clip-rule:evenodd;fill:url(#SVGID_00000111897589584755667340000007277194182918861476_);}
	.st167{fill-rule:evenodd;clip-rule:evenodd;fill:url(#SVGID_00000010305432672500340200000004710188574675849606_);}
	.st168{fill-rule:evenodd;clip-rule:evenodd;fill:url(#SVGID_00000065066055281403847240000009942419011021191311_);}
	.st169{fill-rule:evenodd;clip-rule:evenodd;fill:url(#SVGID_00000157291152352573262480000007069839644631987622_);}
	.st170{fill-rule:evenodd;clip-rule:evenodd;fill:url(#SVGID_00000073716163387250890450000002262247729739176073_);}
	.st171{fill-rule:evenodd;clip-rule:evenodd;fill:url(#SVGID_00000150069327193689670740000012265443436273500331_);}
	.st172{fill-rule:evenodd;clip-rule:evenodd;fill:url(#SVGID_00000157288785699857821330000018338740870937799827_);}
	.st173{fill-rule:evenodd;clip-rule:evenodd;fill:url(#SVGID_00000111895463576007473600000010948466575812968365_);}
	.st174{fill-rule:evenodd;clip-rule:evenodd;fill:none;stroke:#000000;stroke-width:2.5688;stroke-miterlimit:22.9256;}
	.st175{clip-path:url(#SVGID_00000133530678303074534320000017787890060120534694_);}
	.st176{fill-rule:evenodd;clip-rule:evenodd;fill:url(#SVGID_00000101787938297875278980000017481641636091798922_);}
	.st177{fill-rule:evenodd;clip-rule:evenodd;fill:url(#SVGID_00000088093287779465585270000007393663460931272588_);}
	.st178{fill-rule:evenodd;clip-rule:evenodd;fill:url(#SVGID_00000160888338861174797660000006067940402055906968_);}
	.st179{fill-rule:evenodd;clip-rule:evenodd;fill:url(#SVGID_00000031173539761758128480000016376024536974730654_);}
	.st180{fill-rule:evenodd;clip-rule:evenodd;fill:url(#SVGID_00000035524194290809405030000005883824346896825789_);}
	.st181{fill-rule:evenodd;clip-rule:evenodd;fill:url(#SVGID_00000018227274272663831900000001902270922972436147_);}
	.st182{fill-rule:evenodd;clip-rule:evenodd;fill:url(#SVGID_00000163759845830877249330000003368885292268401795_);}
	.st183{fill-rule:evenodd;clip-rule:evenodd;fill:url(#SVGID_00000166664912542898755900000012877805171413835660_);}
	.st184{clip-path:url(#SVGID_00000174596149519416989240000009534148493419272625_);}
	.st185{fill-rule:evenodd;clip-rule:evenodd;fill:#1D1D1C;}
	.st186{fill:#1D1D1C;}
	.st187{fill:url(#SVGID_00000004521179705969575090000004507543350489823163_);}
	.st188{fill-rule:evenodd;clip-rule:evenodd;fill:#282626;}
	.st189{fill-rule:evenodd;clip-rule:evenodd;fill:#0E4581;}
	.st190{fill:#0E4581;}
	.st191{fill:#0055B8;}
	.st192{fill:#0A4678;}
	.st193{fill:#5EA25C;}
	.st194{fill:none;stroke:#FFFFFF;stroke-width:2;stroke-miterlimit:10;}
	.st195{fill:url(#SVGID_00000062155014270167645250000012642998939614197414_);}
	.st196{fill:none;stroke:#000000;stroke-width:15.8459;stroke-linecap:round;stroke-linejoin:round;stroke-miterlimit:10;}
	.st197{fill:none;stroke:#000000;stroke-width:22.1738;stroke-linecap:round;stroke-linejoin:round;stroke-miterlimit:10;}
	.st198{fill:#7A7A7A;}
	.st199{fill:#FFFFFF;stroke:#7A7A7A;stroke-width:3;stroke-miterlimit:10;}
	.st200{fill:url(#SVGID_00000142158720222844670810000018267480901214123431_);}
	.st201{fill:#666666;}
	.st202{fill:url(#SVGID_00000140727725952778119810000014719825254056766353_);}
	
		.st203{clip-path:url(#SVGID_00000110465333787294643120000013407338115663688114_);fill:url(#SVGID_00000011006732392558243680000013096027860719735214_);}
	
		.st204{clip-path:url(#SVGID_00000110465333787294643120000013407338115663688114_);fill:url(#SVGID_00000059992244929778883990000010785580475702351017_);}
	
		.st205{clip-path:url(#SVGID_00000110465333787294643120000013407338115663688114_);fill:url(#SVGID_00000089572962231228237660000001577569334404215972_);}
	
		.st206{clip-path:url(#SVGID_00000110465333787294643120000013407338115663688114_);fill:url(#SVGID_00000047043014627952312430000008159688743578755728_);}
	
		.st207{clip-path:url(#SVGID_00000110465333787294643120000013407338115663688114_);fill:url(#SVGID_00000149380688412975541270000016443117255262161042_);}
	
		.st208{clip-path:url(#SVGID_00000110465333787294643120000013407338115663688114_);fill:url(#SVGID_00000101825197375680470760000013010573046469598887_);}
	
		.st209{clip-path:url(#SVGID_00000110465333787294643120000013407338115663688114_);fill:url(#SVGID_00000054972539730994314660000012502813419166194825_);}
	
		.st210{clip-path:url(#SVGID_00000110465333787294643120000013407338115663688114_);fill:url(#SVGID_00000111904721107847780560000008369656676577972910_);}
	.st211{fill:#31346B;stroke:#FFFFFF;stroke-width:0.7245;stroke-linecap:round;stroke-linejoin:round;stroke-miterlimit:10;}
	
		.st212{clip-path:url(#SVGID_00000050621592196599293120000010150238348593563288_);fill:url(#SVGID_00000175288722294559117120000015424742125213288080_);}
	
		.st213{clip-path:url(#SVGID_00000130628696302739226670000008256395384081859502_);fill:url(#SVGID_00000010302267584055648830000008728680459470967984_);}
	
		.st214{clip-path:url(#SVGID_00000022561678282228465690000003041813637723743117_);fill:url(#SVGID_00000142875459069288594500000017276448289428482239_);}
	
		.st215{clip-path:url(#SVGID_00000102515432729892470870000001181469834237393293_);fill:url(#SVGID_00000127011057278113909330000015160919791893163198_);}
	.st216{fill:#2D2D2D;}
	.st217{fill:#696969;}
	.st218{fill:#0075BE;}
	.st219{fill:#585858;}
	.st220{opacity:0.8;}
	.st221{fill:url(#SVGID_00000014632241672013408130000005234484787293651348_);}
	
		.st222{clip-path:url(#SVGID_00000142869127317056899910000009651465418485966475_);fill:url(#SVGID_00000076588710849162104840000001278695207308546181_);}
	
		.st223{clip-path:url(#SVGID_00000142869127317056899910000009651465418485966475_);fill:url(#SVGID_00000044139021733942880640000001974430111399305137_);}
	
		.st224{clip-path:url(#SVGID_00000142869127317056899910000009651465418485966475_);fill:url(#SVGID_00000156564078738577131320000018247931534572847746_);}
	
		.st225{clip-path:url(#SVGID_00000142869127317056899910000009651465418485966475_);fill:url(#SVGID_00000016058252584966282210000016518802101283014540_);}
	
		.st226{clip-path:url(#SVGID_00000142869127317056899910000009651465418485966475_);fill:url(#SVGID_00000142877386951993175890000015998343644473956503_);}
	
		.st227{clip-path:url(#SVGID_00000142869127317056899910000009651465418485966475_);fill:url(#SVGID_00000111882962531354352470000008774523880184523156_);}
	
		.st228{clip-path:url(#SVGID_00000142869127317056899910000009651465418485966475_);fill:url(#SVGID_00000058586908690211469780000011639450242494997911_);}
	
		.st229{clip-path:url(#SVGID_00000142869127317056899910000009651465418485966475_);fill:url(#SVGID_00000156550840352961641230000009456743909925666990_);}
	
		.st230{clip-path:url(#SVGID_00000069355581493455620690000004050754054816725417_);fill:url(#SVGID_00000133501852868846688320000005028949439943828669_);}
	
		.st231{clip-path:url(#SVGID_00000075150204135826867180000011789922141913538442_);fill:url(#SVGID_00000083775188739163933070000000206073547034863496_);}
	
		.st232{clip-path:url(#SVGID_00000071560119847604074880000001583527447541220249_);fill:url(#SVGID_00000039132536210420266480000017600739869519013037_);}
	
		.st233{clip-path:url(#SVGID_00000057861865815151865970000014288499800802942397_);fill:url(#SVGID_00000013153579969985258020000006011398466279093910_);}
	.st234{fill:url(#SVGID_00000093896529991141289930000002235789538237323698_);}
	
		.st235{clip-path:url(#SVGID_00000123419588810600657160000016942454665574576258_);fill:url(#SVGID_00000046298052515304638190000017026250052468344242_);}
	
		.st236{clip-path:url(#SVGID_00000123419588810600657160000016942454665574576258_);fill:url(#SVGID_00000010269654219830999980000004315895561974231731_);}
	
		.st237{clip-path:url(#SVGID_00000123419588810600657160000016942454665574576258_);fill:url(#SVGID_00000003090462336482561500000013652795126659297727_);}
	
		.st238{clip-path:url(#SVGID_00000123419588810600657160000016942454665574576258_);fill:url(#SVGID_00000061463918274992062550000011661048006205936031_);}
	
		.st239{clip-path:url(#SVGID_00000123419588810600657160000016942454665574576258_);fill:url(#SVGID_00000139284581534128279580000011179118492643840177_);}
	
		.st240{clip-path:url(#SVGID_00000123419588810600657160000016942454665574576258_);fill:url(#SVGID_00000106111747671237585590000007846554014182101950_);}
	
		.st241{clip-path:url(#SVGID_00000123419588810600657160000016942454665574576258_);fill:url(#SVGID_00000158750722957635701080000009920651641108128133_);}
	
		.st242{clip-path:url(#SVGID_00000123419588810600657160000016942454665574576258_);fill:url(#SVGID_00000081631324119683063530000018113929009375634846_);}
	
		.st243{clip-path:url(#SVGID_00000042733124439905200770000016330971194052388249_);fill:url(#SVGID_00000131336774317493783620000013092565815911611789_);}
	
		.st244{clip-path:url(#SVGID_00000045604901616216204240000016088631428299288211_);fill:url(#SVGID_00000003063922277130732380000013789171880771647164_);}
	
		.st245{clip-path:url(#SVGID_00000165920323374833919610000017433558656907786374_);fill:url(#SVGID_00000018212068378080593800000005199218823943361682_);}
	
		.st246{clip-path:url(#SVGID_00000168817567506534945910000018408148761856710294_);fill:url(#SVGID_00000107587669383359854460000001965298937942992033_);}
	.st247{fill:#039242;}
	.st248{fill:#4E4848;}
	.st249{fill:#F8C301;}
	.st250{fill:url(#SVGID_00000101803398673282340600000013163450393270642577_);}
	.st251{fill:#EFB225;}
	.st252{fill:#353334;}
	.st253{fill:url(#SVGID_00000143595831462724673380000016882836830711568807_);}
	.st254{fill:url(#SVGID_00000134214442865301260090000015847218549185268617_);}
	.st255{fill:#03A957;}
	.st256{fill:#E41D29;}
	.st257{clip-path:url(#SVGID_00000136382692500850338660000016763840635214556323_);fill:#FFFFFF;}
	.st258{clip-path:url(#SVGID_00000180362008718487575050000007814794409608783488_);fill:#FFFFFF;}
	.st259{clip-path:url(#SVGID_00000095316052203460841720000012617743481162100885_);fill:#FFFFFF;}
	.st260{clip-path:url(#SVGID_00000180356652299349716830000004512813791025233070_);fill:#FFFFFF;}
	
		.st261{clip-path:url(#SVGID_00000124147969021513125780000004009006820911812742_);fill:url(#SVGID_00000159459376326105527000000014995291793208129171_);}
	
		.st262{clip-path:url(#SVGID_00000075147261986764185760000013678033656819291297_);fill:url(#SVGID_00000129926996477527426370000009104777449337158036_);}
	
		.st263{clip-path:url(#SVGID_00000124876558116846161340000008729760735152419004_);fill:url(#SVGID_00000072253896982196825120000007009033998896653477_);}
	
		.st264{clip-path:url(#SVGID_00000171689587319757585000000001965056888120148097_);fill:url(#SVGID_00000056405411653703535680000000465707358576265895_);}
	.st265{fill:none;stroke:#FFFFFF;stroke-miterlimit:10;}
	.st266{fill:none;stroke:#FFFFFF;stroke-width:3;stroke-miterlimit:10;}
	.st267{opacity:0.2;fill:#FFFFFF;}
	.st268{fill-rule:evenodd;clip-rule:evenodd;fill:url(#SVGID_00000097480752104966185870000009633193403382998162_);}
	.st269{fill-rule:evenodd;clip-rule:evenodd;fill:url(#SVGID_00000068639320294956895950000003875145464383822736_);}
	.st270{fill-rule:evenodd;clip-rule:evenodd;fill:url(#SVGID_00000076569150467464255590000010064354290054768547_);}
	.st271{fill-rule:evenodd;clip-rule:evenodd;fill:url(#SVGID_00000033359498422926057520000017096048928120403098_);}
	.st272{fill-rule:evenodd;clip-rule:evenodd;fill:url(#SVGID_00000035510725597905319570000005381027440842181291_);}
	.st273{fill-rule:evenodd;clip-rule:evenodd;fill:url(#SVGID_00000166634006180095268910000012845171946373699005_);}
	.st274{fill-rule:evenodd;clip-rule:evenodd;fill:url(#SVGID_00000123421580388680300260000010643122584993953700_);}
	.st275{fill-rule:evenodd;clip-rule:evenodd;fill:url(#SVGID_00000072276505823732859850000014046696483592017078_);}
	.st276{fill-rule:evenodd;clip-rule:evenodd;fill:none;stroke:#000000;stroke-width:1.5716;stroke-miterlimit:22.9256;}
	.st277{clip-path:url(#SVGID_00000141424594612851127180000008908504238567086241_);}
	.st278{fill:#283A68;}
	.st279{fill:#BEB1B4;}
	.st280{fill:none;stroke:#FFFFFF;stroke-width:0.9269;stroke-miterlimit:10;}
	.st281{fill:#2A4270;}
	.st282{fill:#B6ABB1;}
	.st283{fill:#030303;}
	.st284{fill:#01A0E3;}
	.st285{fill:#FDFDFD;}
	.st286{fill:#BDBCBC;}
	.st287{fill:#010101;}
	.st288{fill-rule:evenodd;clip-rule:evenodd;fill:#0062AE;}
	.st289{fill-rule:evenodd;clip-rule:evenodd;fill:#E63027;}
	.st290{fill:#0062AE;}
	.st291{fill:#910A14;}
	.st292{fill:#898989;stroke:#D10A11;stroke-width:11.7352;stroke-miterlimit:10;}
	.st293{fill:#2B2523;}
	.st294{fill-rule:evenodd;clip-rule:evenodd;fill:#FAD600;}
	.st295{fill:none;stroke:#FFFFFF;stroke-width:10;stroke-miterlimit:10;}
	.st296{fill:none;stroke:#FFFFFF;stroke-width:10;stroke-linecap:round;stroke-linejoin:round;stroke-miterlimit:10;}
	.st297{fill:#0093DC;}
	.st298{fill:#0493DA;}
	.st299{fill:#231E1C;}
	.st300{fill:#42B3EA;}
	.st301{fill:#2F2C2A;}
	.st302{fill:#1F1A18;}
	.st303{fill:#E8E8E8;}
	.st304{fill:#1280AC;}
	.st305{fill:none;stroke:#1280AC;stroke-width:2.108;stroke-miterlimit:10;}
	.st306{fill:url(#SVGID_00000171702629193011856430000017000157162123794878_);}
	.st307{fill:#F8F8F8;}
	.st308{fill:#C20201;}
	.st309{fill:none;stroke:#000000;stroke-miterlimit:10;}
	.st310{clip-path:url(#SVGID_00000093159036005561333520000002586984379505397676_);fill:#696666;}
	.st311{fill:#C21630;}
	.st312{fill:#1D1E1C;}
	.st313{clip-path:url(#SVGID_00000062158232437139326070000018346628323043202728_);fill:#696666;}
	.st314{fill:#C51621;}
	.st315{fill:#0095D9;}
	.st316{fill:#8B8B8B;}
	.st317{fill:#FAFAFA;}
	.st318{fill:none;stroke:#C20201;stroke-width:4;stroke-miterlimit:10;}
	.st319{fill:#010100;}
	.st320{fill:#FCC901;}
	.st321{fill:#F4A403;}
	.st322{fill:#2E3169;}
	.st323{fill:#EA373B;}
	.st324{fill:#383536;}
	.st325{fill:#FEFEFE;}
	.st326{fill:#FDFBFA;}
	.st327{fill:#FE6601;}
	.st328{fill:#AD2931;}
	.st329{fill:#FEFCFB;}
	.st330{fill:#FEFDFD;}
	.st331{fill:#092F57;}
	.st332{fill:#E8EAED;}
</style>
<g>
	<path class="st3" d="M235.99,76.14l-4.61,8.85l-0.72,1.38l-1.18-1.01l0,0l-0.02-0.01c-0.18-0.16-0.35-0.3-0.52-0.43
		c-0.18-0.14-0.38-0.29-0.61-0.44c-1.15-0.78-2.66-1.57-4.54-2.36l0,0l0,0l-0.01,0c-0.34-0.14-0.69-0.28-1.07-0.43
		c-0.34-0.13-0.68-0.25-1.02-0.36c-1.67-0.55-3.14-0.82-4.41-0.82c-2.89,0-5.45,0.48-7.71,1.45l0,0c-2.23,0.96-4.17,2.4-5.81,4.32
		c-1.66,1.94-2.91,4.22-3.74,6.83c-0.85,2.65-1.27,5.65-1.27,9.01v0.01c0,3.18,0.41,6.02,1.24,8.53c0.13,0.39,0.27,0.78,0.43,1.19
		c0.79,1.99,1.86,3.76,3.21,5.3c1.61,1.84,3.5,3.21,5.68,4.12h0c2.2,0.92,4.71,1.38,7.52,1.38c3.41,0,6.22-0.86,8.47-2.57v-10.38
		h-7.36h-1.23v-1.23v-9.4v-1.23h1.23h19.62h1.23v1.23v27.81v0.57l-0.44,0.37l0,0l-0.02,0.01c-0.42,0.34-0.83,0.65-1.21,0.92h0
		c-0.4,0.28-0.83,0.57-1.3,0.86v0c-2.28,1.41-4.97,2.56-8.07,3.46l0,0l-0.01,0l0,0c-0.62,0.18-1.22,0.34-1.78,0.48
		c-0.58,0.15-1.18,0.28-1.78,0.41c-3.06,0.64-6.1,0.95-9.12,0.95c-4.6,0-8.75-0.76-12.43-2.28c-3.7-1.53-6.92-3.82-9.65-6.88
		l-0.01-0.01c-0.75-0.83-1.45-1.73-2.12-2.68c-0.65-0.92-1.25-1.89-1.8-2.9c-2.8-5.14-4.21-11.26-4.21-18.36v-0.01
		c0-4.93,0.74-9.41,2.21-13.44c0.25-0.68,0.51-1.32,0.78-1.94c1.44-3.26,3.4-6.2,5.87-8.81c2.97-3.13,6.45-5.47,10.44-7.04
		c3.97-1.56,8.43-2.33,13.38-2.33c3.54,0,6.82,0.53,9.86,1.6c3.04,1.07,5.81,2.67,8.32,4.81l0.75,0.64L235.99,76.14L235.99,76.14z
		 M168.92,132.04l-6.12-17.02h-28.78l-5.85,17.02h-16.55l33.48-85.13h6.53l33.75,85.13H168.92L168.92,132.04z M148.36,72.6
		l-10.1,31.01h20.17L148.36,72.6L148.36,72.6z M284.94,84.16c-2.56-1.68-5.34-2.52-8.41-2.52c-3.32,0-6.24,1.5-8.82,4.51
		c-2.57,3.02-3.86,6.69-3.86,11.04v34.85h-14.28V70.83h14.28v5.6c4-4.49,9.3-6.73,15.94-6.73c4.88,0,8.62,0.74,11.22,2.22
		L284.94,84.16L284.94,84.16z M290.41,101.5c0-9.34,2.71-16.93,8.09-22.8c5.38-5.87,12.5-8.8,21.34-8.8c9.3,0,16.52,2.81,21.67,8.45
		c5.13,5.64,7.7,13.36,7.7,23.15c0,9.75-2.61,17.5-7.86,23.25c-5.23,5.75-12.4,8.64-21.51,8.64c-9.28,0-16.52-2.91-21.69-8.72
		C293.01,118.86,290.41,111.14,290.41,101.5L290.41,101.5z M305.28,101.5c0,13.48,4.86,20.23,14.57,20.23c4.47,0,8-1.76,10.61-5.27
		c2.59-3.49,3.9-8.48,3.9-14.96c0-13.3-4.84-19.95-14.51-19.95c-4.45,0-8,1.76-10.63,5.27C306.6,90.33,305.28,95.22,305.28,101.5
		L305.28,101.5z M371.19,101.86v30.18h-14.57V50.05c9.71-0.42,15.39-0.61,17.03-0.61c12.96,0,22.42,1.99,28.42,5.96
		c5.98,3.98,8.98,10.17,8.98,18.62c0,18.81-11.09,28.21-33.26,28.21C376.16,102.24,373.96,102.12,371.19,101.86L371.19,101.86z
		 M371.19,62.65v26.26c2.47,0.27,4.42,0.4,5.83,0.4c6.65,0,11.49-1.11,14.57-3.35c3.06-2.22,4.59-5.83,4.59-10.84
		c0-8.51-6.86-12.77-20.55-12.77C374.09,62.36,372.6,62.46,371.19,62.65L371.19,62.65z M417.51,52.4l14.01-3.35v67.42
		c0,7.4,2.2,11.79,6.61,13.21c-2.18,4.11-5.87,6.17-11.09,6.17c-6.35,0-9.54-4.42-9.54-13.23V52.4L417.51,52.4z M477.74,126.95
		c-1.28,2.08-3.5,3.78-6.65,5.12c-3.15,1.32-6.44,1.99-9.88,1.99c-6.46,0-11.53-1.62-15.23-4.86c-3.69-3.23-5.54-7.82-5.54-13.74
		c0-6.94,2.62-12.39,7.82-16.31c5.22-3.92,12.62-5.87,22.21-5.87c1.64,0,3.57,0.27,5.81,0.84c0-7.05-4.45-10.59-13.38-10.59
		c-5.26,0-9.67,0.88-13.21,2.64l-3.02-10.88c4.82-2.31,10.53-3.46,17.18-3.46c9.16,0,15.85,2.08,20.11,6.23
		c4.24,4.17,6.38,12.06,6.38,23.66v12.83c0,7.99,1.61,13.02,4.82,15.06c-1.17,2.03-2.45,3.27-3.86,3.73
		c-1.43,0.46-3.06,0.71-4.87,0.71c-2.03,0-3.82-0.75-5.43-2.26C479.39,130.32,478.3,128.69,477.74,126.95L477.74,126.95z
		 M476.39,104.7c-2.39-0.48-4.17-0.73-5.37-0.73c-11.05,0-16.57,3.63-16.57,10.88c0,5.37,3.12,8.07,9.35,8.07
		c8.41,0,12.6-4.21,12.6-12.62V104.7L476.39,104.7z M541.04,132.04V97.38c0-5.12-0.97-8.85-2.94-11.2c-1.95-2.35-5.16-3.54-9.6-3.54
		c-2.06,0-4.24,0.57-6.58,1.74c-2.33,1.15-4.17,2.6-5.47,4.3v43.35h-13.99V72.06h10.07l2.58,5.6c3.8-4.47,9.42-6.71,16.84-6.71
		c7.15,0,12.77,2.14,16.9,6.4c4.13,4.28,6.17,10.25,6.17,17.89v36.8H541.04L541.04,132.04z"/>
	<path class="st185" d="M26.25,145.71l-0.23,2.11c-0.5-0.23-1-0.4-1.5-0.51c-0.49-0.11-0.98-0.17-1.47-0.17
		c-0.71,0-1.26,0.13-1.66,0.39c-0.4,0.26-0.6,0.63-0.6,1.1c0,0.58,0.72,1.24,2.15,1.96c0.14,0.07,0.24,0.12,0.32,0.16
		c1.34,0.68,2.25,1.32,2.74,1.93c0.49,0.61,0.73,1.34,0.73,2.18c0,1.24-0.47,2.26-1.41,3.04c-0.94,0.79-2.18,1.18-3.72,1.18
		c-0.63,0-1.69-0.23-3.18-0.68c-0.16-0.05-0.28-0.09-0.36-0.12l0.24-2.29c0.75,0.37,1.39,0.63,1.9,0.79
		c0.51,0.16,0.97,0.24,1.39,0.24c0.71,0,1.29-0.16,1.73-0.5c0.44-0.33,0.66-0.75,0.66-1.25c0-0.65-0.72-1.37-2.15-2.15L21.64,153
		c-0.06-0.03-0.15-0.08-0.27-0.14c-1.06-0.57-1.81-1.08-2.25-1.55c-0.31-0.33-0.54-0.7-0.7-1.11c-0.16-0.42-0.24-0.86-0.24-1.32
		c0-1.14,0.44-2.06,1.34-2.76c0.89-0.7,2.08-1.05,3.57-1.05c0.58,0,1.42,0.15,2.53,0.46C25.9,145.61,26.11,145.68,26.25,145.71
		L26.25,145.71z M29.35,156.27h2.51v2.51h-2.51V156.27L29.35,156.27z M40.13,147.6l-2.25,6.03h4.41L40.13,147.6L40.13,147.6z
		 M38.58,145.36h3.19l5.18,13.41h-2.85l-1.11-3.17h-5.84l-1.16,3.17h-2.62L38.58,145.36L38.58,145.36z M48.59,156.27h2.51v2.51
		h-2.51V156.27L48.59,156.27z M62.57,147.35v9.35h1.53c1.49,0,2.64-0.41,3.46-1.24c0.82-0.82,1.24-1.98,1.24-3.46
		c0-1.51-0.41-2.66-1.23-3.46c-0.82-0.8-2-1.2-3.54-1.2H62.57L62.57,147.35z M59.91,145.36h3.84c1.14,0,2.11,0.08,2.92,0.24
		c0.81,0.16,1.47,0.4,1.99,0.73c0.96,0.61,1.68,1.39,2.17,2.35c0.48,0.96,0.72,2.08,0.72,3.37c0,1.29-0.24,2.41-0.73,3.37
		c-0.49,0.95-1.22,1.73-2.19,2.34c-0.55,0.35-1.23,0.61-2.06,0.78c-0.83,0.17-1.83,0.25-3.02,0.25h-3.63V145.36L59.91,145.36z
		 M73.83,145.36h8.19v1.93h-5.55v3.56h5.26v1.97h-5.26v3.93h5.75v2.03h-8.39V145.36L73.83,145.36z M95.73,147.6l-2.25,6.03h4.41
		L95.73,147.6L95.73,147.6z M94.18,145.36h3.19l5.18,13.41H99.7l-1.11-3.17h-5.84l-1.16,3.17h-2.62L94.18,145.36L94.18,145.36z
		 M103.71,145.36h2.64v5.43h5.22v-5.43h2.65v13.41h-2.65v-5.94h-5.22v5.94h-2.64V145.36L103.71,145.36z M122.98,147.06
		c-1.1,0-1.98,0.45-2.65,1.35c-0.67,0.91-1.01,2.11-1.01,3.61c0,1.51,0.33,2.72,1,3.63c0.67,0.91,1.55,1.36,2.65,1.36
		c1.1,0,1.99-0.46,2.66-1.37c0.67-0.91,1.01-2.12,1.01-3.62c0-1.5-0.34-2.7-1.01-3.61C124.97,147.52,124.08,147.06,122.98,147.06
		L122.98,147.06z M122.98,145.07c1.97,0,3.52,0.62,4.66,1.87c1.14,1.25,1.7,2.95,1.7,5.13c0,2.18-0.56,3.89-1.69,5.13
		c-1.13,1.24-2.68,1.86-4.66,1.86c-1.98,0-3.53-0.62-4.66-1.86c-1.12-1.24-1.69-2.95-1.69-5.13c0-2.18,0.56-3.9,1.69-5.14
		C119.46,145.69,121.01,145.07,122.98,145.07L122.98,145.07z M134.35,147.23v4.04h1.36c0.86,0,1.52-0.18,1.98-0.53
		c0.47-0.35,0.7-0.85,0.7-1.5c0-0.69-0.23-1.2-0.69-1.52c-0.46-0.33-1.19-0.49-2.19-0.49H134.35L134.35,147.23z M131.74,145.36h4.39
		c1.64,0,2.86,0.29,3.68,0.86c0.82,0.58,1.23,1.44,1.23,2.59c0,0.86-0.24,1.58-0.73,2.14c-0.48,0.56-1.18,0.94-2.07,1.13
		c0.38,0.13,0.69,0.32,0.93,0.57c0.24,0.25,0.5,0.74,0.79,1.46l1.86,4.66h-2.78l-1.51-4.06c-0.21-0.58-0.49-0.99-0.83-1.22
		c-0.34-0.23-0.84-0.34-1.51-0.34h-0.83v5.62h-2.61V145.36L131.74,145.36z M146.14,147.23v4.04h1.36c0.86,0,1.52-0.18,1.98-0.53
		c0.47-0.35,0.7-0.85,0.7-1.5c0-0.69-0.23-1.2-0.69-1.52c-0.46-0.33-1.19-0.49-2.19-0.49H146.14L146.14,147.23z M143.53,145.36h4.39
		c1.64,0,2.86,0.29,3.68,0.86c0.82,0.58,1.23,1.44,1.23,2.59c0,0.86-0.24,1.58-0.73,2.14c-0.48,0.56-1.18,0.94-2.07,1.13
		c0.38,0.13,0.69,0.32,0.93,0.57c0.24,0.25,0.5,0.74,0.79,1.46l1.86,4.66h-2.78l-1.51-4.06c-0.21-0.58-0.49-0.99-0.83-1.22
		c-0.34-0.23-0.84-0.34-1.51-0.34h-0.83v5.62h-2.61V145.36L143.53,145.36z M161.08,147.06c-1.1,0-1.98,0.45-2.65,1.35
		c-0.67,0.91-1.01,2.11-1.01,3.61c0,1.51,0.33,2.72,1,3.63c0.67,0.91,1.55,1.36,2.65,1.36c1.1,0,1.99-0.46,2.66-1.37
		c0.67-0.91,1.01-2.12,1.01-3.62c0-1.5-0.34-2.7-1.01-3.61C163.06,147.52,162.18,147.06,161.08,147.06L161.08,147.06z
		 M161.08,145.07c1.97,0,3.52,0.62,4.66,1.87c1.14,1.25,1.7,2.95,1.7,5.13c0,2.18-0.56,3.89-1.69,5.13
		c-1.13,1.24-2.68,1.86-4.66,1.86c-1.98,0-3.53-0.62-4.66-1.86c-1.12-1.24-1.69-2.95-1.69-5.13c0-2.18,0.56-3.9,1.69-5.14
		C157.56,145.69,159.11,145.07,161.08,145.07L161.08,145.07z M173.66,145.36h3.04l3.26,6.05l3.27-6.05h2.86l-4.91,8.1v5.31h-2.65
		v-5.28L173.66,145.36L173.66,145.36z M195.55,147.25v4.53h1.09c0.86,0,1.52-0.19,1.98-0.58c0.46-0.39,0.69-0.94,0.69-1.67
		c0-0.73-0.22-1.29-0.66-1.69c-0.43-0.4-1.06-0.6-1.86-0.6H195.55L195.55,147.25z M192.91,145.36h3.98c1.74,0,3.03,0.34,3.86,1.02
		c0.84,0.68,1.26,1.73,1.26,3.15c0,1.31-0.44,2.33-1.31,3.05c-0.88,0.73-2.11,1.09-3.71,1.09h-1.43v5.11h-2.64V145.36L192.91,145.36
		z M206.55,147.23v4.04h1.36c0.86,0,1.52-0.18,1.98-0.53c0.47-0.35,0.7-0.85,0.7-1.5c0-0.69-0.23-1.2-0.69-1.52
		c-0.46-0.33-1.19-0.49-2.19-0.49H206.55L206.55,147.23z M203.94,145.36h4.39c1.64,0,2.86,0.29,3.68,0.86
		c0.82,0.58,1.23,1.44,1.23,2.59c0,0.86-0.24,1.58-0.73,2.14c-0.48,0.56-1.18,0.94-2.07,1.13c0.38,0.13,0.69,0.32,0.93,0.57
		c0.24,0.25,0.5,0.74,0.79,1.46l1.86,4.66h-2.78l-1.51-4.06c-0.21-0.58-0.49-0.99-0.83-1.22c-0.34-0.23-0.84-0.34-1.51-0.34h-0.83
		v5.62h-2.61V145.36L203.94,145.36z M215.73,145.36h8.19v1.93h-5.55v3.56h5.26v1.97h-5.26v3.93h5.75v2.03h-8.39V145.36
		L215.73,145.36z M220.17,140.62h2.21l-2.89,3.4h-1.2L220.17,140.62L220.17,140.62z M234.55,145.71l-0.23,2.11
		c-0.5-0.23-1-0.4-1.5-0.51c-0.49-0.11-0.98-0.17-1.47-0.17c-0.71,0-1.26,0.13-1.66,0.39c-0.4,0.26-0.6,0.63-0.6,1.1
		c0,0.58,0.72,1.24,2.15,1.96c0.14,0.07,0.24,0.12,0.32,0.16c1.34,0.68,2.25,1.32,2.74,1.93c0.49,0.61,0.73,1.34,0.73,2.18
		c0,1.24-0.47,2.26-1.41,3.04c-0.94,0.79-2.18,1.18-3.72,1.18c-0.63,0-1.69-0.23-3.18-0.68c-0.16-0.05-0.28-0.09-0.36-0.12
		l0.24-2.29c0.75,0.37,1.39,0.63,1.9,0.79c0.51,0.16,0.97,0.24,1.39,0.24c0.71,0,1.29-0.16,1.73-0.5c0.44-0.33,0.66-0.75,0.66-1.25
		c0-0.65-0.72-1.37-2.15-2.15l-0.23-0.12c-0.06-0.03-0.15-0.08-0.27-0.14c-1.06-0.57-1.81-1.08-2.25-1.55
		c-0.31-0.33-0.54-0.7-0.7-1.11c-0.16-0.42-0.24-0.86-0.24-1.32c0-1.14,0.44-2.06,1.34-2.76c0.89-0.7,2.08-1.05,3.57-1.05
		c0.58,0,1.42,0.15,2.53,0.46C234.2,145.61,234.41,145.68,234.55,145.71L234.55,145.71z M236.26,145.36h9.76v2.07h-3.58v11.34h-2.65
		v-11.34h-3.53V145.36L236.26,145.36z M252.19,147.6l-2.25,6.03h4.41L252.19,147.6L252.19,147.6z M250.64,145.36h3.19l5.18,13.41
		h-2.85l-1.11-3.17h-5.84l-1.16,3.17h-2.62L250.64,145.36L250.64,145.36z M260.17,145.36h4.02l3.25,9.32
		c0.09,0.27,0.17,0.59,0.23,0.97c0.07,0.38,0.12,0.79,0.15,1.25c0.03-0.48,0.08-0.91,0.14-1.28c0.06-0.37,0.14-0.68,0.23-0.94
		l3.36-9.32h3.96v13.41h-2.53v-9.92c0-0.39,0.01-0.79,0.04-1.19c0.03-0.4,0.07-0.8,0.13-1.2c-0.1,0.42-0.2,0.8-0.29,1.15
		c-0.09,0.35-0.17,0.62-0.23,0.79l-3.76,10.36h-2.36l-3.67-10.26c-0.09-0.29-0.18-0.61-0.27-0.95c-0.08-0.35-0.16-0.71-0.23-1.1
		c0.06,0.77,0.1,1.33,0.12,1.68c0.02,0.34,0.03,0.59,0.04,0.73v9.9h-2.34V145.36L260.17,145.36z M284.23,147.06
		c-1.1,0-1.98,0.45-2.65,1.35c-0.67,0.91-1.01,2.11-1.01,3.61c0,1.51,0.33,2.72,1,3.63c0.67,0.91,1.55,1.36,2.65,1.36
		c1.1,0,1.99-0.46,2.66-1.37c0.67-0.91,1.01-2.12,1.01-3.62c0-1.5-0.34-2.7-1.01-3.61C286.22,147.52,285.33,147.06,284.23,147.06
		L284.23,147.06z M284.23,145.07c1.97,0,3.52,0.62,4.66,1.87c1.14,1.25,1.7,2.95,1.7,5.13c0,2.18-0.56,3.89-1.69,5.13
		c-1.13,1.24-2.68,1.86-4.66,1.86c-1.98,0-3.53-0.62-4.66-1.86c-1.12-1.24-1.69-2.95-1.69-5.13c0-2.18,0.56-3.9,1.69-5.14
		C280.71,145.69,282.26,145.07,284.23,145.07L284.23,145.07z M301.37,147.25v4.53h1.09c0.86,0,1.52-0.19,1.98-0.58
		c0.46-0.39,0.69-0.94,0.69-1.67c0-0.73-0.22-1.29-0.66-1.69c-0.43-0.4-1.06-0.6-1.86-0.6H301.37L301.37,147.25z M298.73,145.36
		h3.98c1.74,0,3.03,0.34,3.86,1.02c0.84,0.68,1.26,1.73,1.26,3.15c0,1.31-0.44,2.33-1.31,3.05c-0.88,0.73-2.11,1.09-3.71,1.09h-1.43
		v5.11h-2.64V145.36L298.73,145.36z M313.71,147.6l-2.25,6.03h4.41L313.71,147.6L313.71,147.6z M312.16,145.36h3.19l5.18,13.41
		h-2.85l-1.11-3.17h-5.84l-1.16,3.17h-2.62L312.16,145.36L312.16,145.36z M324.3,147.23v4.04h1.36c0.86,0,1.52-0.18,1.98-0.53
		c0.47-0.35,0.7-0.85,0.7-1.5c0-0.69-0.23-1.2-0.69-1.52c-0.46-0.33-1.19-0.49-2.19-0.49H324.3L324.3,147.23z M321.69,145.36h4.39
		c1.64,0,2.86,0.29,3.68,0.86c0.82,0.58,1.23,1.44,1.23,2.59c0,0.86-0.24,1.58-0.73,2.14c-0.48,0.56-1.18,0.94-2.07,1.13
		c0.38,0.13,0.69,0.32,0.93,0.57c0.24,0.25,0.5,0.74,0.79,1.46l1.86,4.66h-2.78l-1.51-4.06c-0.21-0.58-0.49-0.99-0.83-1.22
		c-0.34-0.23-0.84-0.34-1.51-0.34h-0.83v5.62h-2.61V145.36L321.69,145.36z M338.66,147.6l-2.25,6.03h4.41L338.66,147.6L338.66,147.6
		z M337.12,145.36h3.19l5.18,13.41h-2.85l-1.11-3.17h-5.84l-1.16,3.17h-2.62L337.12,145.36L337.12,145.36z M352.37,145.36h7.81v1.95
		h-5.15v3.66h4.92v1.97h-4.92v5.83h-2.66V145.36L352.37,145.36z M362.29,145.36h2.64v13.41h-2.64V145.36L362.29,145.36z
		 M367.93,145.36h3.32l4.93,9.37c0.13,0.26,0.27,0.6,0.42,1.01c0.15,0.41,0.31,0.89,0.47,1.42c-0.11-0.63-0.19-1.21-0.24-1.74
		c-0.05-0.52-0.08-0.97-0.08-1.34v-8.73h2.4v13.41h-3.27l-5.08-9.59c-0.13-0.24-0.26-0.55-0.4-0.94c-0.13-0.39-0.27-0.85-0.4-1.38
		c0.1,0.79,0.18,1.46,0.24,2.02c0.06,0.56,0.09,0.96,0.09,1.19v8.7h-2.4V145.36L367.93,145.36z M382.12,145.36h8.19v1.93h-5.55v3.56
		h5.26v1.97h-5.26v3.93h5.75v2.03h-8.39V145.36L382.12,145.36z M400.94,145.71l-0.23,2.11c-0.5-0.23-1-0.4-1.49-0.51
		c-0.49-0.11-0.98-0.17-1.47-0.17c-0.71,0-1.26,0.13-1.66,0.39c-0.4,0.26-0.6,0.63-0.6,1.1c0,0.58,0.72,1.24,2.15,1.96
		c0.14,0.07,0.24,0.12,0.32,0.16c1.34,0.68,2.25,1.32,2.74,1.93c0.49,0.61,0.73,1.34,0.73,2.18c0,1.24-0.47,2.26-1.41,3.04
		c-0.94,0.79-2.18,1.18-3.72,1.18c-0.63,0-1.69-0.23-3.18-0.68c-0.16-0.05-0.28-0.09-0.36-0.12l0.24-2.29
		c0.75,0.37,1.39,0.63,1.9,0.79c0.51,0.16,0.97,0.24,1.39,0.24c0.71,0,1.29-0.16,1.73-0.5c0.44-0.33,0.66-0.75,0.66-1.25
		c0-0.65-0.72-1.37-2.15-2.15l-0.23-0.12c-0.06-0.03-0.15-0.08-0.27-0.14c-1.06-0.57-1.81-1.08-2.25-1.55
		c-0.31-0.33-0.54-0.7-0.7-1.11c-0.16-0.42-0.24-0.86-0.24-1.32c0-1.14,0.44-2.06,1.34-2.76c0.89-0.7,2.08-1.05,3.57-1.05
		c0.58,0,1.42,0.15,2.53,0.46C400.58,145.61,400.8,145.68,400.94,145.71L400.94,145.71z M412.3,147.35v9.35h1.53
		c1.49,0,2.64-0.41,3.46-1.24c0.82-0.82,1.24-1.98,1.24-3.46c0-1.51-0.41-2.66-1.23-3.46c-0.82-0.8-2-1.2-3.54-1.2H412.3
		L412.3,147.35z M409.63,145.36h3.84c1.14,0,2.11,0.08,2.92,0.24c0.81,0.16,1.47,0.4,1.99,0.73c0.96,0.61,1.68,1.39,2.17,2.35
		c0.48,0.96,0.72,2.08,0.72,3.37c0,1.29-0.24,2.41-0.73,3.37c-0.49,0.95-1.22,1.73-2.19,2.34c-0.55,0.35-1.23,0.61-2.06,0.78
		c-0.83,0.17-1.83,0.25-3.02,0.25h-3.63V145.36L409.63,145.36z M423.55,145.36h8.19v1.93h-5.55v3.56h5.26v1.97h-5.26v3.93h5.75v2.03
		h-8.39V145.36L423.55,145.36z M433.27,145.36h9.76v2.07h-3.58v11.34h-2.65v-11.34h-3.53V145.36L433.27,145.36z M444.71,145.36h8.19
		v1.93h-5.55v3.56h5.26v1.97h-5.26v3.93h5.75v2.03h-8.39V145.36L444.71,145.36z M458.32,147.23v4.04h1.36
		c0.86,0,1.52-0.18,1.98-0.53c0.47-0.35,0.7-0.85,0.7-1.5c0-0.69-0.23-1.2-0.69-1.52c-0.46-0.33-1.19-0.49-2.19-0.49H458.32
		L458.32,147.23z M455.71,145.36h4.39c1.64,0,2.86,0.29,3.68,0.86c0.82,0.58,1.23,1.44,1.23,2.59c0,0.86-0.24,1.58-0.73,2.14
		c-0.48,0.56-1.18,0.94-2.07,1.13c0.38,0.13,0.69,0.32,0.93,0.57c0.24,0.25,0.5,0.74,0.79,1.46l1.86,4.66H463l-1.51-4.06
		c-0.21-0.58-0.49-0.99-0.83-1.22c-0.34-0.23-0.84-0.34-1.51-0.34h-0.83v5.62h-2.61V145.36L455.71,145.36z M467.5,145.36h4.02
		l3.25,9.32c0.09,0.27,0.17,0.59,0.23,0.97c0.07,0.38,0.12,0.79,0.15,1.25c0.03-0.48,0.08-0.91,0.14-1.28
		c0.06-0.37,0.14-0.68,0.23-0.94l3.36-9.32h3.96v13.41h-2.53v-9.92c0-0.39,0.01-0.79,0.04-1.19c0.03-0.4,0.07-0.8,0.13-1.2
		c-0.1,0.42-0.2,0.8-0.29,1.15c-0.09,0.35-0.17,0.62-0.23,0.79l-3.76,10.36h-2.36l-3.67-10.26c-0.09-0.29-0.18-0.61-0.27-0.95
		c-0.08-0.35-0.16-0.71-0.23-1.1c0.06,0.77,0.1,1.33,0.12,1.68c0.02,0.34,0.03,0.59,0.04,0.73v9.9h-2.34V145.36L467.5,145.36z
		 M485.8,145.36h2.64v13.41h-2.64V145.36L485.8,145.36z M491.44,145.36h3.32l4.93,9.37c0.13,0.26,0.27,0.6,0.42,1.01
		c0.15,0.41,0.31,0.89,0.47,1.42c-0.11-0.63-0.19-1.21-0.24-1.74c-0.05-0.52-0.08-0.97-0.08-1.34v-8.73h2.4v13.41h-3.27l-5.08-9.59
		c-0.13-0.24-0.26-0.55-0.4-0.94c-0.13-0.39-0.27-0.85-0.4-1.38c0.1,0.79,0.18,1.46,0.24,2.02c0.06,0.56,0.09,0.96,0.09,1.19v8.7
		h-2.4V145.36L491.44,145.36z M510.81,147.6l-2.25,6.03h4.41L510.81,147.6L510.81,147.6z M509.26,145.36h3.19l5.18,13.41h-2.85
		l-1.11-3.17h-5.84l-1.16,3.17h-2.62L509.26,145.36L509.26,145.36z M521.46,147.35v9.35h1.53c1.49,0,2.64-0.41,3.46-1.24
		c0.82-0.82,1.24-1.98,1.24-3.46c0-1.51-0.41-2.66-1.23-3.46c-0.82-0.8-2-1.2-3.54-1.2H521.46L521.46,147.35z M518.8,145.36h3.84
		c1.14,0,2.11,0.08,2.92,0.24c0.81,0.16,1.47,0.4,1.99,0.73c0.96,0.61,1.68,1.39,2.17,2.35c0.48,0.96,0.72,2.08,0.72,3.37
		c0,1.29-0.24,2.41-0.73,3.37c-0.49,0.95-1.22,1.73-2.19,2.34c-0.55,0.35-1.23,0.61-2.06,0.78c-0.83,0.17-1.83,0.25-3.02,0.25h-3.63
		V145.36L518.8,145.36z M538.47,147.06c-1.1,0-1.98,0.45-2.65,1.35c-0.67,0.91-1.01,2.11-1.01,3.61c0,1.51,0.33,2.72,1,3.63
		c0.67,0.91,1.55,1.36,2.65,1.36c1.1,0,1.99-0.46,2.66-1.37c0.67-0.91,1.01-2.12,1.01-3.62c0-1.5-0.34-2.7-1.01-3.61
		C540.46,147.52,539.57,147.06,538.47,147.06L538.47,147.06z M538.47,145.07c1.97,0,3.52,0.62,4.66,1.87
		c1.14,1.25,1.7,2.95,1.7,5.13c0,2.18-0.56,3.89-1.69,5.13c-1.13,1.24-2.68,1.86-4.66,1.86c-1.98,0-3.53-0.62-4.66-1.86
		c-1.12-1.24-1.69-2.95-1.69-5.13c0-2.18,0.56-3.9,1.69-5.14C534.95,145.69,536.5,145.07,538.47,145.07L538.47,145.07z
		 M555.06,145.71l-0.23,2.11c-0.5-0.23-1-0.4-1.49-0.51c-0.49-0.11-0.98-0.17-1.47-0.17c-0.71,0-1.26,0.13-1.66,0.39
		c-0.4,0.26-0.6,0.63-0.6,1.1c0,0.58,0.72,1.24,2.15,1.96c0.14,0.07,0.24,0.12,0.32,0.16c1.34,0.68,2.25,1.32,2.74,1.93
		c0.49,0.61,0.73,1.34,0.73,2.18c0,1.24-0.47,2.26-1.41,3.04c-0.94,0.79-2.18,1.18-3.72,1.18c-0.63,0-1.69-0.23-3.18-0.68
		c-0.16-0.05-0.28-0.09-0.36-0.12l0.24-2.29c0.75,0.37,1.39,0.63,1.9,0.79c0.51,0.16,0.97,0.24,1.39,0.24c0.71,0,1.29-0.16,1.73-0.5
		c0.44-0.33,0.66-0.75,0.66-1.25c0-0.65-0.72-1.37-2.15-2.15l-0.23-0.12c-0.06-0.03-0.15-0.08-0.27-0.14
		c-1.06-0.57-1.81-1.08-2.25-1.55c-0.31-0.33-0.54-0.7-0.7-1.11c-0.16-0.42-0.24-0.86-0.24-1.32c0-1.14,0.44-2.06,1.34-2.76
		c0.89-0.7,2.08-1.05,3.57-1.05c0.58,0,1.42,0.15,2.53,0.46C554.7,145.61,554.92,145.68,555.06,145.71L555.06,145.71z"/>
	<polygon class="st185" points="18.15,47.27 134.73,47.27 102.94,132.06 18.15,132.06 18.15,47.27 	"/>
	<path class="st4" d="M74.59,61.83C53.33,48.98,30.5,63.05,27.23,82.59c-1.87,1.53-5.24,5.96-0.04,9.85
		c1.63,12.72,11.16,20.92,16.33,23.17c1.09,2.51,0.96,5.56,1.7,7.25c1.75-0.5,4.85,0.5,7.86,0c0.48-0.67,0.82-4.78,4.08-5.03
		c3.26-0.25,12.78-0.75,14.28,0.5c1.5,1.25,2.1,2.86,2.51,4.53c1.54,0.85,6.37-0.24,9.18,0c2.6-10.43,11.18-18.47,22.05-18.47
		c1.21-2.01,2.85-21.96,0.41-20.63c-7.26-1.18-12.99-4.55-17.1-11.94c-0.24-0.38-0.81-1.25-1.72-0.06c-1.36,2.28-0.76,4.08-0.7,3.79
		c-2.3-4.11,1.77-16.62,6.97-21.21C86.09,53.83,76.6,60.07,74.59,61.83L74.59,61.83z"/>
</g>
</svg>
