<?xml version="1.0" encoding="utf-8"?>
<!-- Generator: Adobe Illustrator 27.8.1, SVG Export Plug-In . SVG Version: 6.00 Build 0)  -->
<svg version="1.1" id="Capa_1" xmlns="http://www.w3.org/2000/svg" xmlns:xlink="http://www.w3.org/1999/xlink" x="0px" y="0px"
	 viewBox="0 0 270 160" style="enable-background:new 0 0 270 160;" xml:space="preserve">
<style type="text/css">
	.st0{fill:#D10A11;}
	.st1{fill-rule:evenodd;clip-rule:evenodd;}
	.st2{fill:#FFFFFF;}
	.st3{fill:#2A4270;}
	.st4{fill:#B6ABB1;}
	.st5{fill:#E41D29;}
	.st6{fill:#F4D624;}
	.st7{fill:#282626;}
	.st8{fill:#DC292C;}
	.st9{fill:#666666;}
	.st10{fill:#F1B426;}
	.st11{fill:#0890A0;}
	.st12{fill-rule:evenodd;clip-rule:evenodd;fill:#1D1D1B;}
	.st13{fill-rule:evenodd;clip-rule:evenodd;fill:#FFFFFF;}
	.st14{fill-rule:evenodd;clip-rule:evenodd;fill:#179AD7;}
	.st15{fill:none;}
	.st16{fill-rule:evenodd;clip-rule:evenodd;fill:#272526;}
	
		.st17{clip-path:url(#SVGID_00000153701626678425139000000010617007301765862298_);fill:url(#SVGID_00000008864561611220879920000001304166238343279491_);}
	
		.st18{clip-path:url(#SVGID_00000122704805887803230020000001112774097153870000_);fill:url(#SVGID_00000023973832770076031110000008433388770175391152_);}
	
		.st19{clip-path:url(#SVGID_00000029740698337994526160000000660991384300427168_);fill:url(#SVGID_00000126304693856121756470000000945639612196242340_);}
	
		.st20{clip-path:url(#SVGID_00000047750040381654508680000010043341802194036127_);fill:url(#SVGID_00000064333633337409452560000001450977506448859825_);}
	.st21{fill-rule:evenodd;clip-rule:evenodd;fill:#E5282D;}
	.st22{fill-rule:evenodd;clip-rule:evenodd;fill:#FFEC08;}
	.st23{fill:#6D6E70;}
	.st24{fill:#6E6F71;}
	.st25{fill:#6F7072;}
	.st26{fill:#707173;}
	.st27{fill:#717274;}
	.st28{fill:#727375;}
	.st29{fill:#737476;}
	.st30{fill:#747577;}
	.st31{fill:#757678;}
	.st32{fill:#767779;}
	.st33{fill:#77787A;}
	.st34{fill:#78797B;}
	.st35{fill:#797A7C;}
	.st36{fill:#7A7B7D;}
	.st37{fill:#7B7C7E;}
	.st38{fill:#7C7D7F;}
	.st39{fill:#7D7E80;}
	.st40{fill:#7E7F81;}
	.st41{fill:#7F8082;}
	.st42{fill:#808183;}
	.st43{fill:#818284;}
	.st44{fill:#828385;}
	.st45{fill:#838486;}
	.st46{fill:#848587;}
	.st47{fill:#858688;}
	.st48{fill:#868789;}
	.st49{fill:#87888A;}
	.st50{fill:#88898B;}
	.st51{fill:#898A8C;}
	.st52{fill:#8A8B8D;}
	.st53{fill:#8B8C8E;}
	.st54{fill:#8C8D8F;}
	.st55{fill:#8D8E90;}
	.st56{fill:#8E8F91;}
	.st57{fill:#8F9092;}
	.st58{fill:#909193;}
	.st59{fill:#919294;}
	.st60{fill:#929395;}
	.st61{fill:#939496;}
	.st62{fill:#949597;}
	.st63{fill:#959698;}
	.st64{fill:#969799;}
	.st65{fill:#97989A;}
	.st66{fill:#98999B;}
	.st67{fill:#999A9C;}
	.st68{fill:#9A9B9D;}
	.st69{fill:#9B9C9E;}
	.st70{fill:#9C9D9F;}
	.st71{fill:#9D9EA0;}
	.st72{fill:#9E9FA1;}
	.st73{fill:#9FA0A2;}
	.st74{fill:#A0A1A3;}
	.st75{fill:#A1A2A4;}
	.st76{fill:#A2A3A5;}
	.st77{fill:#A3A4A6;}
	.st78{fill:#A4A5A7;}
	.st79{fill:#A5A6A8;}
	.st80{fill:#A6A7A9;}
	.st81{fill:#A7A8AA;}
	.st82{fill:#A8A9AB;}
	.st83{fill:#A9AAAC;}
	.st84{fill:#AAABAD;}
	.st85{fill:#ABACAE;}
	.st86{fill:#ACADAF;}
	.st87{fill:#ADAEB0;}
	.st88{fill:#AEAFB1;}
	.st89{fill:#AFB0B2;}
	.st90{fill:#B0B1B3;}
	.st91{fill:#B1B2B4;}
	.st92{fill:#B2B3B5;}
	.st93{fill:#B3B4B6;}
	.st94{fill:#B4B5B7;}
	.st95{fill:#B5B6B8;}
	.st96{fill:#B6B7B9;}
	.st97{fill:#B7B8BA;}
	.st98{fill:#B8B9BB;}
	.st99{fill:#B9BABC;}
	.st100{fill:#BABBBD;}
	.st101{fill:#BBBCBE;}
	.st102{fill:#BCBDBF;}
	.st103{fill:#BDBEC0;}
	.st104{fill:#BEBFC1;}
	.st105{fill:#BFC0C2;}
	.st106{fill:#C0C1C3;}
	.st107{fill:#C1C2C4;}
	.st108{fill:#C2C3C5;}
	.st109{fill:#C3C4C6;}
	.st110{fill:#C4C5C7;}
	.st111{fill:#C5C6C8;}
	.st112{fill:#C6C7C9;}
	.st113{fill:#C7C8CA;}
	.st114{fill:#C8C9CB;}
	.st115{fill:#9C212D;}
	.st116{fill:#939698;}
	.st117{fill:#1C3F84;}
	.st118{fill-rule:evenodd;clip-rule:evenodd;fill:#020202;}
	.st119{fill-rule:evenodd;clip-rule:evenodd;fill:#E1242C;}
	.st120{fill-rule:evenodd;clip-rule:evenodd;fill:#C5C6C8;}
	.st121{fill-rule:evenodd;clip-rule:evenodd;fill:#1B1918;}
	.st122{fill:#1280AC;}
	.st123{fill:none;stroke:#1280AC;stroke-width:1.0977;stroke-miterlimit:10;}
	.st124{fill:#F2E632;}
	.st125{fill:#8B8A8D;}
	.st126{fill:#1C171C;}
	.st127{fill:#159947;}
	.st128{fill:#003E92;}
	.st129{fill:#1C1C1C;}
	.st130{fill:#E9580C;}
</style>
<g>
	<rect x="70.05" y="38.24" class="st15" width="129.91" height="83.51"/>
	<g>
		<path class="st16" d="M199.95,97.85c0,1.9-1.9,3.43-4.24,3.43H74.29c-2.35,0-4.24-1.54-4.24-3.43V44.6c0-1.9,1.9-3.43,4.24-3.43
			h121.42c2.34,0,4.24,1.54,4.24,3.43V97.85z"/>
		<g>
			<defs>
				<path id="SVGID_1_" d="M97.57,67.67c0.69,0,1.23,0.12,1.6,0.39c0.37,0.25,0.57,0.61,0.57,1.08c0,0.47-0.2,0.81-0.57,1.08
					c-0.37,0.24-0.89,0.37-1.6,0.37h-1.14v-2.92H97.57z M96.4,80.32v-5.17h2.32c2.77,0,4.83-0.47,6.12-1.42
					c1.29-0.96,1.91-2.48,1.91-4.54c0-2.23-0.71-3.85-2.14-4.86c-1.43-1.03-3.69-1.54-6.78-1.54h-8.78v17.54H96.4z"/>
			</defs>
			<clipPath id="SVGID_00000080904372852082102260000013647668103173191835_">
				<use xlink:href="#SVGID_1_"  style="overflow:visible;"/>
			</clipPath>
			
				<linearGradient id="SVGID_00000069377323548372572230000009781863100123400340_" gradientUnits="userSpaceOnUse" x1="-160.576" y1="771.1288" x2="-160.2446" y2="771.1288" gradientTransform="matrix(53.3083 -53.3083 53.3083 53.3083 -32458.4766 -49587.1992)">
				<stop  offset="0" style="stop-color:#CDCBCA"/>
				<stop  offset="1" style="stop-color:#FFFFFF"/>
			</linearGradient>
			
				<polygon style="clip-path:url(#SVGID_00000080904372852082102260000013647668103173191835_);fill:url(#SVGID_00000069377323548372572230000009781863100123400340_);" points="
				97.9,89.18 115.52,71.56 97.9,53.93 80.28,71.56 			"/>
		</g>
		<g>
			<defs>
				<polygon id="SVGID_00000057130336856365453060000002702483998704329897_" points="128.09,80.32 128.09,74.63 120.94,74.63 
					120.94,62.79 113.59,62.79 113.59,80.32 				"/>
			</defs>
			<clipPath id="SVGID_00000124874512314818452080000002721031054849748655_">
				<use xlink:href="#SVGID_00000057130336856365453060000002702483998704329897_"  style="overflow:visible;"/>
			</clipPath>
			
				<linearGradient id="SVGID_00000033334607360920729130000009098433499211202232_" gradientUnits="userSpaceOnUse" x1="-160.914" y1="770.7405" x2="-160.5826" y2="770.7405" gradientTransform="matrix(43.6422 -53.2828 52.2642 42.8079 -33145.8672 -41487.3711)">
				<stop  offset="0" style="stop-color:#CDCBCA"/>
				<stop  offset="1" style="stop-color:#FFFFFF"/>
			</linearGradient>
			
				<polygon style="clip-path:url(#SVGID_00000124874512314818452080000002721031054849748655_);fill:url(#SVGID_00000033334607360920729130000009098433499211202232_);" points="
				122.27,87.43 136.69,69.83 119.41,55.68 105,73.28 			"/>
		</g>
		<g>
			<defs>
				<path id="SVGID_00000165202854336922403220000002493980216260966548_" d="M139.82,80.32l0.63-2.21H146l0.66,2.21h7.9
					l-7.15-17.54h-8.18l-7.3,17.54H139.82z M142.31,71.96c0.31-1,0.52-1.79,0.63-2.33c0.12-0.54,0.17-1.06,0.2-1.52h0.14
					c0.03,0.47,0.09,0.98,0.2,1.52c0.11,0.54,0.31,1.33,0.63,2.33l0.63,1.99h-3.06L142.31,71.96z"/>
			</defs>
			<clipPath id="SVGID_00000108989829524637445780000010190889204340020134_">
				<use xlink:href="#SVGID_00000165202854336922403220000002493980216260966548_"  style="overflow:visible;"/>
			</clipPath>
			
				<linearGradient id="SVGID_00000176024783708871940270000004933647259412424634_" gradientUnits="userSpaceOnUse" x1="-161.5574" y1="770.2991" x2="-161.226" y2="770.2991" gradientTransform="matrix(68.1609 -53.3393 51.7445 66.123 -28714.877 -59471.4727)">
				<stop  offset="0" style="stop-color:#CDCBCA"/>
				<stop  offset="1" style="stop-color:#FFFFFF"/>
			</linearGradient>
			
				<polygon style="clip-path:url(#SVGID_00000108989829524637445780000010190889204340020134_);fill:url(#SVGID_00000176024783708871940270000004933647259412424634_);" points="
				140.52,91.31 163.07,73.66 145.96,51.81 123.42,69.45 			"/>
		</g>
		<g>
			<defs>
				<path id="SVGID_00000172441300230651710310000009206700335485451662_" d="M167.09,80.32V74c0-0.56-0.03-1.05-0.06-1.52
					c-0.03-0.44-0.09-0.86-0.17-1.25l6.29,9.1h7.27V62.79h-7.1v5.89c0,0.78,0.03,1.45,0.06,1.94c0.03,0.49,0.09,0.96,0.17,1.35
					l-6.35-9.17h-7.21v17.54H167.09z"/>
			</defs>
			<clipPath id="SVGID_00000088818191879075543240000015862772873182192006_">
				<use xlink:href="#SVGID_00000172441300230651710310000009206700335485451662_"  style="overflow:visible;"/>
			</clipPath>
			
				<linearGradient id="SVGID_00000012474107290846530530000014336667839113093515_" gradientUnits="userSpaceOnUse" x1="-162.0137" y1="769.8483" x2="-161.6823" y2="769.8483" gradientTransform="matrix(61.5113 -53.3272 52.7697 60.8684 -30498.9609 -55418.7969)">
				<stop  offset="0" style="stop-color:#CDCBCA"/>
				<stop  offset="1" style="stop-color:#FFFFFF"/>
			</linearGradient>
			
				<polygon style="clip-path:url(#SVGID_00000088818191879075543240000015862772873182192006_);fill:url(#SVGID_00000012474107290846530530000014336667839113093515_);" points="
				168.76,90.43 189.09,72.8 171.65,52.68 151.31,70.31 			"/>
		</g>
		<path class="st13" d="M99.5,99.54l34.35-14.35c3.75-1.57,3.91-1.5,7.65,0.11l33.39,14.3c1.62,0.61,3.11,2.05-0.01,3.32
			l-33.39,14.6c-1.96,0.85-2.94,1.3-3.95,1.31c-0.95,0.01-1.93-0.37-3.77-1.17l-34.29-14.82C97.94,102.4,96.12,100.88,99.5,99.54"/>
		<path class="st21" d="M104.09,99.78l30.16-12.59c3.29-1.37,3.43-1.31,6.72,0.09l29.32,12.55c1.42,0.54,2.73,1.8-0.01,2.91
			l-29.32,12.81c-3.33,1.46-3.45,1.57-6.78,0.13l-30.11-13C102.72,102.28,101.12,100.95,104.09,99.78"/>
		<path class="st22" d="M109.83,103.39l24.4,10.47c1.63,0.73,2.43,1.21,2.4,0l0.13-11.13c-1.22-0.15-1.53-0.79-1.54-2.62V89.77
			c0-0.96,0.09-0.99-0.73-0.67l-24.71,10.29C104.36,101.65,104.5,100.96,109.83,103.39z M116.72,102.21c0,0.14,0,0.27,0,0.41
			c0,0.03,0.01,0.08,0.02,0.13c0,0.06,0.02,0.12,0.05,0.18c0.03,0.06,0.07,0.12,0.13,0.17c0.06,0.05,0.14,0.1,0.25,0.12
			c0.1,0.02,0.18,0.02,0.23-0.01c0.05-0.03,0.1-0.07,0.12-0.12c0.02-0.06,0.04-0.12,0.04-0.18c0-0.06,0-0.11,0-0.16
			c0-0.09-0.01-0.17-0.03-0.23c-0.02-0.06-0.05-0.13-0.09-0.2c-0.05-0.06-0.12-0.14-0.21-0.22c-0.09-0.09-0.21-0.19-0.37-0.31
			c-0.3-0.24-0.55-0.43-0.76-0.58c-0.21-0.15-0.37-0.27-0.5-0.37c-0.13-0.1-0.22-0.2-0.29-0.29c-0.07-0.09-0.11-0.19-0.14-0.3
			c-0.03-0.11-0.04-0.24-0.04-0.4c0-0.06,0-0.15,0.01-0.25c0.01-0.1,0.03-0.21,0.07-0.32c0.04-0.12,0.1-0.24,0.18-0.37
			c0.08-0.13,0.21-0.26,0.35-0.4c0.15-0.13,0.35-0.27,0.59-0.4c0.24-0.13,0.52-0.26,0.87-0.36c0.26-0.09,0.51-0.14,0.75-0.16
			c0.24-0.02,0.47,0.02,0.69,0.12c0.15,0.09,0.27,0.19,0.36,0.32c0.08,0.13,0.15,0.28,0.18,0.45c0.03,0.17,0.06,0.36,0.06,0.56
			c0.01,0.2,0.01,0.42,0,0.66c-0.55,0.05-1.09,0.11-1.63,0.16c0-0.15,0-0.3,0-0.45c0-0.03,0-0.08-0.01-0.13
			c-0.01-0.05-0.02-0.11-0.04-0.16c-0.02-0.05-0.07-0.09-0.12-0.12c-0.06-0.03-0.14-0.03-0.24-0.01c-0.1,0.02-0.19,0.06-0.24,0.12
			c-0.05,0.06-0.09,0.11-0.12,0.18c-0.02,0.07-0.03,0.13-0.03,0.18c0,0.1,0.03,0.19,0.09,0.25c0.05,0.06,0.13,0.12,0.22,0.18
			c0.03,0.02,0.07,0.05,0.14,0.1c0.06,0.05,0.14,0.09,0.22,0.15c0.08,0.05,0.16,0.12,0.24,0.18c0.08,0.06,0.15,0.12,0.22,0.16
			c0.07,0.05,0.11,0.09,0.14,0.11c0.18,0.15,0.34,0.29,0.47,0.42c0.13,0.13,0.25,0.27,0.35,0.4c0.09,0.13,0.17,0.28,0.24,0.43
			c0.06,0.15,0.1,0.32,0.13,0.51c0.03,0.19,0.04,0.4,0.04,0.65c0,0.12,0,0.26,0,0.41c-0.01,0.15-0.03,0.3-0.06,0.46
			c-0.04,0.15-0.1,0.29-0.18,0.42c-0.09,0.13-0.21,0.22-0.37,0.29c-0.15,0.07-0.35,0.09-0.59,0.08c-0.24-0.02-0.53-0.09-0.87-0.21
			c-0.02-0.01-0.06-0.02-0.14-0.05c-0.07-0.03-0.16-0.07-0.27-0.11c-0.1-0.04-0.22-0.09-0.34-0.16c-0.12-0.06-0.25-0.12-0.36-0.19
			c-0.12-0.07-0.23-0.14-0.33-0.22c-0.19-0.15-0.33-0.3-0.44-0.44c-0.11-0.14-0.18-0.28-0.23-0.43c-0.05-0.14-0.08-0.29-0.1-0.44
			c-0.02-0.15-0.02-0.29-0.02-0.45C115.57,102.05,116.15,102.13,116.72,102.21z M120.08,102.79c0-0.53,0-1.05,0-1.58
			c0-0.52,0-1.06,0-1.58c0-0.28,0-0.53,0.02-0.76c0.01-0.24,0.04-0.45,0.09-0.67c0.05-0.2,0.13-0.41,0.25-0.61
			c0.11-0.2,0.23-0.37,0.37-0.52c0.14-0.15,0.28-0.28,0.43-0.39c0.15-0.11,0.29-0.2,0.43-0.27c0.14-0.08,0.27-0.13,0.38-0.18
			c0.11-0.04,0.21-0.08,0.28-0.1c0.26-0.08,0.52-0.13,0.77-0.13c0.26,0.01,0.5,0.08,0.72,0.24c0.17,0.13,0.31,0.29,0.4,0.49
			c0.1,0.21,0.17,0.43,0.21,0.69c0.04,0.26,0.07,0.53,0.08,0.81c0.01,0.28,0.01,0.57,0.01,0.86c0,0.72,0,1.44,0,2.16
			c0,0.72,0,1.44,0,2.15c0,0.26,0,0.51-0.01,0.77c0,0.26-0.02,0.5-0.05,0.73c-0.03,0.24-0.08,0.45-0.15,0.65
			c-0.08,0.2-0.18,0.37-0.31,0.52c-0.16,0.15-0.33,0.25-0.51,0.3c-0.19,0.05-0.37,0.06-0.56,0.03c-0.19-0.02-0.37-0.07-0.54-0.14
			c-0.38-0.13-0.7-0.29-0.96-0.48c-0.26-0.18-0.47-0.37-0.64-0.58c-0.17-0.2-0.3-0.41-0.39-0.62c-0.1-0.21-0.17-0.42-0.21-0.63
			c-0.04-0.21-0.08-0.42-0.09-0.62C120.08,103.15,120.07,102.96,120.08,102.79z M122.76,103.72c0,0.09,0,0.18,0,0.27
			c-0.01,0.09-0.03,0.17-0.05,0.24c-0.03,0.07-0.07,0.12-0.13,0.15c-0.06,0.03-0.15,0.03-0.26,0.01c-0.11-0.03-0.2-0.07-0.26-0.14
			c-0.06-0.06-0.11-0.13-0.14-0.21c-0.03-0.08-0.05-0.16-0.06-0.25c-0.01-0.08-0.01-0.16-0.01-0.23c0-0.79,0-1.57,0-2.36
			c0-0.79,0-1.58,0-2.36c-0.01-0.12,0.01-0.23,0.03-0.34c0.02-0.11,0.06-0.21,0.12-0.29c0.07-0.08,0.17-0.14,0.31-0.17
			c0.12-0.02,0.2-0.02,0.27,0.02c0.06,0.03,0.11,0.09,0.14,0.15c0.03,0.07,0.04,0.15,0.05,0.23c0.01,0.08,0.01,0.17,0.01,0.24
			c0,0.85,0,1.69,0,2.53C122.76,102.04,122.76,102.88,122.76,103.72z M125.48,95.32c0.58-0.18,1.16-0.35,1.74-0.53
			c0,1.77,0,3.53,0,5.29c0,1.76,0,3.52,0,5.28c0.54,0.12,1.07,0.24,1.61,0.36c0,0.89,0.01,1.79,0.01,2.68
			c-1.11-0.39-2.23-0.77-3.34-1.16c-0.01-1.98-0.02-3.97-0.02-5.96C125.48,99.29,125.48,97.31,125.48,95.32z M130.45,93.8
			c0.7-0.21,1.4-0.43,2.09-0.64c0.24,2.71,0.47,5.47,0.71,8.28c0.24,2.86,0.47,5.78,0.71,8.74c-0.58-0.2-1.16-0.4-1.74-0.6
			c-0.06-1.25-0.13-2.49-0.2-3.72c-0.36-0.07-0.71-0.14-1.06-0.21c-0.07,1.15-0.14,2.28-0.21,3.42c-0.58-0.2-1.16-0.4-1.74-0.61
			c0.24-2.31,0.47-4.68,0.71-7.09C129.97,98.9,130.21,96.37,130.45,93.8z M131.87,102.98c-0.25-0.02-0.5-0.04-0.75-0.06
			c0.06-1.04,0.13-2.09,0.19-3.14c0.06-1.06,0.13-2.12,0.19-3.19c0.06,1.05,0.12,2.11,0.18,3.17
			C131.75,100.83,131.81,101.9,131.87,102.98L131.87,102.98z M141.91,109.67c0.59-0.2,1.19-0.4,1.79-0.6
			c0.16-0.05,0.31-0.12,0.45-0.22c0.14-0.09,0.28-0.23,0.39-0.41c0.12-0.18,0.23-0.43,0.32-0.76c0.08-0.26,0.14-0.54,0.18-0.85
			c0.05-0.31,0.08-0.66,0.1-1.03c0.02-0.38,0.03-0.8,0.03-1.26c0.01-0.34,0-0.7-0.01-1.07c-0.01-0.36-0.04-0.72-0.08-1.04
			c-0.05-0.34-0.12-0.63-0.22-0.89c-0.06-0.14-0.12-0.26-0.19-0.34c-0.06-0.08-0.13-0.15-0.19-0.2c-0.07-0.04-0.13-0.09-0.19-0.12
			c0.17-0.15,0.31-0.35,0.41-0.57c0.11-0.23,0.19-0.48,0.24-0.77c0.05-0.29,0.09-0.6,0.11-0.94c0.02-0.34,0.03-0.7,0.03-1.08
			c0-0.2,0-0.45-0.01-0.73c-0.01-0.27-0.03-0.57-0.07-0.87c-0.03-0.31-0.09-0.61-0.16-0.91c-0.07-0.3-0.17-0.58-0.3-0.84
			c-0.09-0.18-0.18-0.32-0.27-0.42c-0.1-0.1-0.19-0.19-0.29-0.25c-0.1-0.06-0.21-0.11-0.33-0.14c-0.58-0.2-1.16-0.4-1.74-0.59
			c0,2.82,0,5.64,0,8.46C141.91,104.03,141.91,106.85,141.91,109.67z M143.19,99.58c0-1.1,0-2.2,0-3.3c0.11,0.02,0.2,0.04,0.26,0.06
			c0.07,0.01,0.12,0.03,0.15,0.05c0.04,0.02,0.06,0.05,0.08,0.08c0.02,0.03,0.04,0.07,0.05,0.13c0.02,0.06,0.03,0.12,0.04,0.19
			c0.01,0.07,0.02,0.17,0.02,0.29c0.01,0.12,0.01,0.3,0.01,0.52c0,0.22,0,0.51,0,0.87c0,0.28-0.01,0.5-0.03,0.67
			c-0.02,0.17-0.06,0.29-0.1,0.37c-0.05,0.06-0.12,0.1-0.21,0.09C143.38,99.59,143.29,99.59,143.19,99.58z M143.85,104.86
			c0,0.19,0,0.35-0.01,0.51c-0.01,0.16-0.03,0.28-0.05,0.4c-0.03,0.11-0.07,0.2-0.13,0.25c-0.02,0.01-0.05,0.03-0.09,0.04
			c-0.04,0.02-0.09,0.03-0.14,0.05c-0.05,0.01-0.1,0.02-0.14,0.03c-0.04,0.01-0.08,0.02-0.1,0.02c0-1.18,0-2.37,0-3.55
			c0.12-0.01,0.2-0.01,0.28-0.01c0.07,0,0.12,0,0.16,0.01c0.04,0.02,0.07,0.04,0.09,0.07c0.02,0.03,0.04,0.08,0.06,0.14
			c0.03,0.09,0.05,0.19,0.06,0.31c0.01,0.12,0.02,0.23,0.02,0.34c0.01,0.11,0.01,0.21,0,0.29
			C143.85,104.14,143.85,104.5,143.85,104.86z M145.75,94.06c0,2.39,0,4.78,0,7.16c-0.01,2.39-0.02,4.78-0.02,7.16
			c0.44-0.14,0.87-0.29,1.31-0.44c0-0.92,0.01-1.85,0.01-2.78c0-0.93,0.01-1.86,0.01-2.79c0.11-0.01,0.22-0.02,0.34-0.02
			c0.08,0,0.15,0.02,0.19,0.08c0.05,0.06,0.07,0.16,0.09,0.29c0.01,0.13,0.02,0.3,0.02,0.51c-0.01,0.87-0.01,1.73-0.02,2.6
			c0,0.35,0,0.64,0.02,0.87c0.01,0.22,0.03,0.41,0.05,0.56c0.02,0.15,0.05,0.29,0.08,0.42c0.43-0.15,0.87-0.29,1.3-0.44
			c-0.04-0.12-0.07-0.23-0.1-0.34c-0.02-0.11-0.03-0.23-0.04-0.38c-0.01-0.15-0.02-0.34-0.01-0.56c0-0.85,0.02-1.7,0.03-2.54
			c0.01-0.24,0-0.48,0-0.71c-0.01-0.24-0.03-0.47-0.07-0.68c-0.03-0.22-0.1-0.41-0.19-0.58c-0.08-0.17-0.2-0.3-0.35-0.4
			c-0.02-0.01-0.04-0.03-0.07-0.04c-0.03-0.01-0.05-0.02-0.08-0.03c-0.02-0.01-0.04-0.01-0.04-0.01s0.01-0.01,0.03-0.02
			c0.02-0.01,0.05-0.03,0.08-0.04c0.03-0.02,0.05-0.04,0.07-0.05c0.15-0.13,0.27-0.31,0.35-0.53c0.08-0.22,0.14-0.46,0.18-0.72
			c0.04-0.26,0.06-0.51,0.07-0.76c0.01-0.24,0.01-0.45,0.01-0.63c0-0.56-0.03-1.04-0.08-1.43c-0.05-0.39-0.12-0.71-0.23-0.96
			c-0.1-0.26-0.22-0.46-0.37-0.62c-0.15-0.16-0.31-0.29-0.51-0.39c-0.19-0.1-0.4-0.19-0.64-0.26
			C146.7,94.38,146.22,94.22,145.75,94.06L145.75,94.06z M147.42,97.26c0.09,0.01,0.16,0.06,0.2,0.15c0.04,0.08,0.07,0.21,0.08,0.38
			c0.01,0.17,0.02,0.4,0.02,0.68c0,0.27,0,0.49,0,0.67c-0.01,0.18-0.02,0.32-0.03,0.42c-0.02,0.11-0.05,0.18-0.09,0.23
			c-0.04,0.05-0.1,0.06-0.18,0.05c-0.12-0.01-0.22-0.02-0.34-0.03c0-0.87,0-1.75,0-2.62C147.18,97.21,147.3,97.24,147.42,97.26z
			 M151.67,96.07c0,1.27,0,2.54,0,3.81c0,1.26-0.01,2.53-0.02,3.79c0,0.07,0,0.16-0.01,0.25c-0.01,0.09-0.02,0.19-0.04,0.28
			c-0.02,0.09-0.05,0.18-0.1,0.24c-0.05,0.07-0.11,0.11-0.19,0.13c-0.08,0.01-0.15,0-0.19-0.05c-0.04-0.06-0.07-0.12-0.1-0.22
			c-0.02-0.09-0.03-0.18-0.03-0.29c0-0.09-0.01-0.18,0-0.26c0.02-1.32,0.02-2.63,0.02-3.95c0-1.32,0-2.64,0-3.96
			c-0.43-0.14-0.87-0.29-1.3-0.44c0,1.45,0,2.91,0,4.36c0,1.45-0.01,2.9-0.02,4.34c0,0.18-0.01,0.38,0,0.61
			c0,0.22,0.02,0.45,0.04,0.67c0.03,0.22,0.07,0.44,0.14,0.63c0.07,0.2,0.16,0.36,0.28,0.5c0.12,0.13,0.27,0.21,0.46,0.24
			c0.19,0.03,0.42,0,0.69-0.09c0.22-0.08,0.39-0.17,0.53-0.26c0.14-0.09,0.25-0.18,0.33-0.27c0.08-0.09,0.14-0.16,0.19-0.22
			c0.14-0.2,0.25-0.4,0.34-0.6c0.08-0.2,0.14-0.41,0.18-0.62c0.04-0.21,0.06-0.42,0.07-0.63c0.01-0.21,0.02-0.43,0.02-0.64
			c0.02-1.15,0.02-2.3,0.02-3.45c0-1.15,0-2.3,0-3.45C152.54,96.37,152.11,96.22,151.67,96.07z M154.83,102.7
			c-0.42,0.05-0.85,0.1-1.27,0.15c-0.01,0.28-0.02,0.54-0.02,0.8c0,0.26,0.01,0.5,0.04,0.73c0.03,0.23,0.08,0.43,0.15,0.6
			c0.07,0.17,0.18,0.3,0.31,0.4c0.07,0.04,0.15,0.07,0.24,0.09c0.09,0.01,0.18,0.01,0.27,0.01c0.09-0.01,0.18-0.02,0.26-0.04
			c0.08-0.02,0.14-0.04,0.2-0.05c0.05-0.02,0.09-0.03,0.1-0.03c0.26-0.09,0.48-0.2,0.65-0.33c0.18-0.13,0.33-0.27,0.45-0.42
			c0.12-0.15,0.21-0.3,0.28-0.46c0.07-0.16,0.12-0.31,0.16-0.46c0.04-0.15,0.06-0.3,0.08-0.44c0.01-0.13,0.02-0.26,0.03-0.37
			c0.01-0.21,0.01-0.4-0.01-0.56c-0.01-0.16-0.05-0.31-0.09-0.43c-0.04-0.13-0.1-0.25-0.17-0.37c-0.07-0.12-0.16-0.25-0.26-0.37
			c-0.1-0.13-0.22-0.28-0.35-0.45c-0.02-0.03-0.06-0.07-0.11-0.13c-0.05-0.06-0.1-0.12-0.16-0.2c-0.06-0.08-0.13-0.16-0.18-0.24
			c-0.06-0.08-0.11-0.15-0.16-0.22c-0.04-0.07-0.08-0.11-0.1-0.14c-0.07-0.09-0.12-0.18-0.16-0.28c-0.04-0.09-0.07-0.21-0.07-0.35
			c0-0.07,0-0.15,0.02-0.23c0.02-0.08,0.04-0.14,0.08-0.19c0.04-0.05,0.1-0.07,0.19-0.05c0.07,0.02,0.13,0.05,0.18,0.11
			c0.04,0.05,0.07,0.11,0.09,0.18c0.02,0.07,0.03,0.13,0.03,0.19c0.01,0.06,0.01,0.11,0.01,0.15c0,0.17,0,0.34,0,0.52
			c0.41,0.05,0.81,0.1,1.22,0.15c0.01-0.21,0.01-0.4,0-0.59c0-0.18-0.02-0.36-0.05-0.52c-0.02-0.17-0.07-0.33-0.14-0.48
			c-0.06-0.16-0.15-0.31-0.27-0.47c-0.16-0.21-0.33-0.37-0.51-0.5c-0.18-0.13-0.37-0.23-0.56-0.29c-0.25-0.09-0.47-0.12-0.65-0.1
			c-0.18,0.03-0.32,0.1-0.44,0.21c-0.11,0.11-0.2,0.25-0.26,0.41c-0.07,0.16-0.11,0.34-0.14,0.52c-0.03,0.18-0.04,0.36-0.05,0.52
			c-0.01,0.17-0.01,0.31-0.01,0.43c0,0.26,0.01,0.5,0.02,0.69c0.02,0.19,0.06,0.38,0.1,0.54c0.05,0.16,0.12,0.33,0.22,0.5
			c0.09,0.17,0.22,0.36,0.37,0.57c0.15,0.2,0.34,0.44,0.57,0.71c0.11,0.13,0.2,0.23,0.27,0.31c0.06,0.08,0.12,0.16,0.15,0.22
			c0.03,0.06,0.05,0.13,0.06,0.2c0.01,0.07,0.01,0.16,0.01,0.26c0,0.05-0.01,0.12-0.01,0.19c-0.01,0.07-0.02,0.14-0.04,0.22
			c-0.02,0.08-0.05,0.14-0.1,0.19c-0.04,0.05-0.1,0.09-0.18,0.11c-0.08,0.02-0.14,0-0.18-0.04c-0.04-0.04-0.07-0.1-0.09-0.17
			c-0.02-0.07-0.03-0.14-0.03-0.21c0-0.07,0-0.13,0-0.17C154.82,103.07,154.83,102.89,154.83,102.7z M158.07,98.24
			c-0.18,0.97-0.36,1.97-0.54,3.01c-0.19,1.08-0.42,2.2-0.63,3.37c0.43-0.15,0.86-0.29,1.3-0.44c0.06-0.45,0.13-0.9,0.2-1.35
			c0.26-0.05,0.53-0.1,0.79-0.15c0.02,0.38,0.06,0.76,0.09,1.13c0.43-0.14,0.86-0.29,1.29-0.43c-0.14-0.67-0.26-1.38-0.42-2.12
			c-0.17-0.79-0.35-1.62-0.52-2.49C159.12,98.6,158.6,98.42,158.07,98.24z M159.12,101.77c-0.18,0.01-0.37,0.02-0.56,0.03
			c0.05-0.38,0.1-0.75,0.15-1.12c0.04-0.36,0.09-0.73,0.14-1.09c0.04,0.37,0.09,0.75,0.14,1.11
			C159.04,101.06,159.08,101.43,159.12,101.77z M140.73,113.88c-1.34,0.58-2.4,1.32-2.35-0.02l0.14-11.15
			c1.06-0.03,1.49-0.95,1.41-2.63V89.79c0-0.82-0.1-1.02,0.59-0.7l23.51,10c6.06,2.57,6.05,1.93,0.02,4.57L140.73,113.88z
			 M138.33,88.17c-0.76-0.32-0.79-0.33-1.55-0.02v12.26c0.03,0.67,1.53,0.7,1.53-0.1L138.33,88.17z"/>
		<path class="st13" d="M88.19,56.54l0.62-1.28c0.66,0.39,1.31,0.59,1.95,0.59c0.98,0,1.47-0.29,1.47-0.88
			c0-0.28-0.12-0.54-0.35-0.79c-0.23-0.25-0.71-0.53-1.43-0.83c-0.72-0.31-1.21-0.57-1.46-0.77c-0.25-0.2-0.44-0.44-0.58-0.71
			c-0.13-0.27-0.2-0.58-0.2-0.91c0-0.62,0.26-1.14,0.8-1.55c0.53-0.41,1.22-0.62,2.05-0.62c1.09,0,1.89,0.18,2.4,0.52l-0.51,1.23
			C92.37,50.18,91.75,50,91.1,50c-0.38,0-0.68,0.09-0.9,0.26c-0.21,0.17-0.32,0.4-0.32,0.68c0,0.46,0.6,0.94,1.79,1.44
			c0.63,0.26,1.08,0.51,1.36,0.73c0.28,0.22,0.49,0.48,0.63,0.77c0.15,0.3,0.22,0.63,0.22,0.99c0,0.65-0.31,1.19-0.9,1.61
			c-0.6,0.42-1.41,0.63-2.42,0.63C89.69,57.12,88.9,56.92,88.19,56.54"/>
		<path class="st13" d="M95.58,52.88c0-1.15,0.37-2.12,1.1-2.91c0.74-0.79,1.72-1.19,2.95-1.19c1.35,0,2.39,0.36,3.1,1.08
			c0.72,0.72,1.07,1.73,1.07,3.03c0,1.3-0.37,2.33-1.12,3.09c-0.75,0.76-1.81,1.14-3.19,1.14c-1.26,0-2.23-0.38-2.91-1.13
			C95.92,55.23,95.58,54.19,95.58,52.88 M97.31,52.88c0,0.94,0.19,1.67,0.56,2.19c0.37,0.52,0.92,0.77,1.63,0.77
			c0.84,0,1.47-0.25,1.91-0.76c0.44-0.51,0.66-1.24,0.66-2.2c0-1.89-0.81-2.83-2.44-2.83c-0.75,0-1.32,0.26-1.72,0.77
			C97.51,51.33,97.31,52.02,97.31,52.88z"/>
		<polygon class="st13" points="105.95,56.98 105.95,48.92 107.62,48.92 107.62,55.71 111.87,55.71 111.87,56.98 		"/>
		<path class="st13" d="M119.37,56.98l-0.69-1.64h-3.23l-0.66,1.64h-1.85l3.75-8.17h0.73l3.79,8.17H119.37z M117.07,51.28
			l-1.13,2.97h2.26L117.07,51.28z"/>
		<polygon class="st13" points="130.45,53.68 130.45,56.98 128.78,56.98 128.78,53.68 125.6,48.92 127.38,48.92 129.61,52.36 
			131.85,48.92 133.62,48.92 		"/>
		<path class="st13" d="M142.53,56.98h-2.88v-8.05c1.27-0.05,2.16-0.08,2.67-0.08c0.98,0,1.74,0.18,2.29,0.54
			c0.55,0.36,0.83,0.87,0.83,1.53c0,0.64-0.39,1.14-1.18,1.52c1.17,0.35,1.76,1.07,1.76,2.15c0,0.74-0.33,1.32-0.97,1.75
			C144.39,56.77,143.56,56.98,142.53,56.98 M141.32,50.07V52c0.26,0.02,0.53,0.02,0.81,0.02c1.09,0,1.64-0.35,1.64-1.05
			c0-0.62-0.5-0.93-1.49-0.93C142.02,50.04,141.7,50.05,141.32,50.07z M141.32,53.12v2.66c0.34,0.02,0.62,0.04,0.83,0.04
			c0.75,0,1.29-0.11,1.62-0.32c0.34-0.22,0.51-0.58,0.51-1.08c0-0.46-0.16-0.79-0.47-1c-0.31-0.21-0.86-0.31-1.64-0.31
			C142.01,53.1,141.73,53.11,141.32,53.12z"/>
		<path class="st13" d="M153.45,56.98l-2.51-3.33c-0.25,0-0.61-0.01-1.06-0.04v3.37h-1.73v-8.06c0.09,0,0.45-0.02,1.09-0.04
			c0.63-0.02,1.14-0.04,1.52-0.04c2.39,0,3.58,0.79,3.58,2.38c0,0.47-0.17,0.91-0.49,1.3c-0.33,0.39-0.74,0.67-1.24,0.83l2.78,3.63
			H153.45z M149.88,50.16v2.24c0.31,0.02,0.55,0.03,0.71,0.03c0.7,0,1.21-0.08,1.53-0.25c0.32-0.17,0.49-0.5,0.49-0.99
			c0-0.4-0.17-0.67-0.52-0.83c-0.35-0.16-0.89-0.24-1.64-0.24C150.27,50.13,150.08,50.14,149.88,50.16z"/>
		<path class="st13" d="M156.85,48.92h1.67v5.46c0,0.43,0.16,0.79,0.46,1.06c0.31,0.27,0.73,0.41,1.27,0.41
			c0.6,0,1.07-0.13,1.41-0.4c0.34-0.27,0.5-0.63,0.5-1.09v-5.43h1.67v5.55c0,0.83-0.33,1.48-0.97,1.95c-0.65,0.47-1.52,0.7-2.6,0.7
			c-1.1,0-1.94-0.23-2.53-0.69c-0.59-0.46-0.89-1.12-0.89-1.97V48.92z"/>
		<path class="st13" d="M165.97,56.54l0.62-1.28c0.66,0.39,1.31,0.59,1.95,0.59c0.98,0,1.47-0.29,1.47-0.88
			c0-0.28-0.12-0.54-0.35-0.79c-0.23-0.25-0.71-0.53-1.43-0.83c-0.72-0.31-1.21-0.57-1.46-0.77c-0.25-0.2-0.45-0.44-0.58-0.71
			c-0.13-0.27-0.2-0.58-0.2-0.91c0-0.62,0.27-1.14,0.8-1.55c0.53-0.41,1.22-0.62,2.05-0.62c1.09,0,1.89,0.18,2.4,0.52l-0.51,1.23
			c-0.59-0.36-1.21-0.54-1.86-0.54c-0.39,0-0.69,0.09-0.9,0.26c-0.21,0.17-0.32,0.4-0.32,0.68c0,0.46,0.6,0.94,1.8,1.44
			c0.63,0.26,1.08,0.51,1.36,0.73c0.28,0.22,0.49,0.48,0.63,0.77c0.15,0.3,0.22,0.63,0.22,0.99c0,0.65-0.3,1.19-0.9,1.61
			c-0.6,0.42-1.41,0.63-2.42,0.63C167.47,57.12,166.68,56.92,165.97,56.54"/>
		<path class="st13" d="M179.3,56.98l-0.69-1.64h-3.23l-0.66,1.64h-1.85l3.75-8.17h0.73l3.78,8.17H179.3z M177,51.28l-1.13,2.97
			h2.26L177,51.28z"/>
	</g>
</g>
</svg>
