<?xml version="1.0" encoding="utf-8"?>
<!-- Generator: Adobe Illustrator 27.8.1, SVG Export Plug-In . SVG Version: 6.00 Build 0)  -->
<svg version="1.1" id="Capa_1" xmlns="http://www.w3.org/2000/svg" xmlns:xlink="http://www.w3.org/1999/xlink" x="0px" y="0px"
	 viewBox="0 0 270 160" style="enable-background:new 0 0 270 160;" xml:space="preserve">
<style type="text/css">
	.st0{fill:#D10A11;}
	.st1{fill-rule:evenodd;clip-rule:evenodd;}
	.st2{fill:#FFFFFF;}
	.st3{fill:#2A4270;}
	.st4{fill:#B6ABB1;}
	.st5{fill:#E41D29;}
	.st6{fill:#F4D624;}
	.st7{fill:#282626;}
	.st8{fill:#DC292C;}
	.st9{fill:#666666;}
	.st10{fill:#F1B426;}
	.st11{fill:#0890A0;}
	.st12{fill-rule:evenodd;clip-rule:evenodd;fill:#1D1D1B;}
	.st13{fill-rule:evenodd;clip-rule:evenodd;fill:#FFFFFF;}
	.st14{fill-rule:evenodd;clip-rule:evenodd;fill:#179AD7;}
	.st15{fill:none;}
	.st16{fill-rule:evenodd;clip-rule:evenodd;fill:#272526;}
	
		.st17{clip-path:url(#SVGID_00000145762611860111767050000001463570484320782734_);fill:url(#SVGID_00000129190630489655133250000013980882621576287632_);}
	
		.st18{clip-path:url(#SVGID_00000155124705388914290490000010170857555509348763_);fill:url(#SVGID_00000129892612703288402200000009367788247216987819_);}
	
		.st19{clip-path:url(#SVGID_00000120550251139321887130000005788822275764206999_);fill:url(#SVGID_00000166643478902981689460000005377237895494251951_);}
	
		.st20{clip-path:url(#SVGID_00000161622476137061773760000017815154701615552904_);fill:url(#SVGID_00000134965781869736101080000008705725572725208464_);}
	.st21{fill-rule:evenodd;clip-rule:evenodd;fill:#E5282D;}
	.st22{fill-rule:evenodd;clip-rule:evenodd;fill:#FFEC08;}
	.st23{fill:#6D6E70;}
	.st24{fill:#6E6F71;}
	.st25{fill:#6F7072;}
	.st26{fill:#707173;}
	.st27{fill:#717274;}
	.st28{fill:#727375;}
	.st29{fill:#737476;}
	.st30{fill:#747577;}
	.st31{fill:#757678;}
	.st32{fill:#767779;}
	.st33{fill:#77787A;}
	.st34{fill:#78797B;}
	.st35{fill:#797A7C;}
	.st36{fill:#7A7B7D;}
	.st37{fill:#7B7C7E;}
	.st38{fill:#7C7D7F;}
	.st39{fill:#7D7E80;}
	.st40{fill:#7E7F81;}
	.st41{fill:#7F8082;}
	.st42{fill:#808183;}
	.st43{fill:#818284;}
	.st44{fill:#828385;}
	.st45{fill:#838486;}
	.st46{fill:#848587;}
	.st47{fill:#858688;}
	.st48{fill:#868789;}
	.st49{fill:#87888A;}
	.st50{fill:#88898B;}
	.st51{fill:#898A8C;}
	.st52{fill:#8A8B8D;}
	.st53{fill:#8B8C8E;}
	.st54{fill:#8C8D8F;}
	.st55{fill:#8D8E90;}
	.st56{fill:#8E8F91;}
	.st57{fill:#8F9092;}
	.st58{fill:#909193;}
	.st59{fill:#919294;}
	.st60{fill:#929395;}
	.st61{fill:#939496;}
	.st62{fill:#949597;}
	.st63{fill:#959698;}
	.st64{fill:#969799;}
	.st65{fill:#97989A;}
	.st66{fill:#98999B;}
	.st67{fill:#999A9C;}
	.st68{fill:#9A9B9D;}
	.st69{fill:#9B9C9E;}
	.st70{fill:#9C9D9F;}
	.st71{fill:#9D9EA0;}
	.st72{fill:#9E9FA1;}
	.st73{fill:#9FA0A2;}
	.st74{fill:#A0A1A3;}
	.st75{fill:#A1A2A4;}
	.st76{fill:#A2A3A5;}
	.st77{fill:#A3A4A6;}
	.st78{fill:#A4A5A7;}
	.st79{fill:#A5A6A8;}
	.st80{fill:#A6A7A9;}
	.st81{fill:#A7A8AA;}
	.st82{fill:#A8A9AB;}
	.st83{fill:#A9AAAC;}
	.st84{fill:#AAABAD;}
	.st85{fill:#ABACAE;}
	.st86{fill:#ACADAF;}
	.st87{fill:#ADAEB0;}
	.st88{fill:#AEAFB1;}
	.st89{fill:#AFB0B2;}
	.st90{fill:#B0B1B3;}
	.st91{fill:#B1B2B4;}
	.st92{fill:#B2B3B5;}
	.st93{fill:#B3B4B6;}
	.st94{fill:#B4B5B7;}
	.st95{fill:#B5B6B8;}
	.st96{fill:#B6B7B9;}
	.st97{fill:#B7B8BA;}
	.st98{fill:#B8B9BB;}
	.st99{fill:#B9BABC;}
	.st100{fill:#BABBBD;}
	.st101{fill:#BBBCBE;}
	.st102{fill:#BCBDBF;}
	.st103{fill:#BDBEC0;}
	.st104{fill:#BEBFC1;}
	.st105{fill:#BFC0C2;}
	.st106{fill:#C0C1C3;}
	.st107{fill:#C1C2C4;}
	.st108{fill:#C2C3C5;}
	.st109{fill:#C3C4C6;}
	.st110{fill:#C4C5C7;}
	.st111{fill:#C5C6C8;}
	.st112{fill:#C6C7C9;}
	.st113{fill:#C7C8CA;}
	.st114{fill:#C8C9CB;}
	.st115{fill:#9C212D;}
	.st116{fill:#939698;}
	.st117{fill:#1C3F84;}
	.st118{fill-rule:evenodd;clip-rule:evenodd;fill:#020202;}
	.st119{fill-rule:evenodd;clip-rule:evenodd;fill:#E1242C;}
	.st120{fill-rule:evenodd;clip-rule:evenodd;fill:#C5C6C8;}
	.st121{fill-rule:evenodd;clip-rule:evenodd;fill:#1B1918;}
	.st122{fill:#1280AC;}
	.st123{fill:none;stroke:#1280AC;stroke-width:1.0977;stroke-miterlimit:10;}
	.st124{fill:#F2E632;}
	.st125{fill:#8B8A8D;}
	.st126{fill:#1C171C;}
	.st127{fill:#159947;}
	.st128{fill:#003E92;}
	.st129{fill:#1C1C1C;}
	.st130{fill:#E9580C;}
</style>
<g>
	<g>
		<path class="st9" d="M105.62,103.94c0,0.53,0,0.98,0,1.52c0.18,0,0.36,0,0.53,0c2.45,0,4.91,0,7.36,0c0.58,0,0.62,0.04,0.63,0.63
			c0,0.61-0.01,1.23,0,1.84c0.01,0.4-0.12,0.58-0.55,0.58c-3.71-0.01-7.42-0.01-11.14,0c-0.38,0-0.52-0.15-0.52-0.52
			c0.01-3.71,0.01-7.42,0-11.14c0-0.4,0.16-0.53,0.55-0.53c3.7,0.01,7.39,0.01,11.09,0c0.41,0,0.59,0.14,0.57,0.56
			c-0.02,0.64-0.02,1.29,0,1.93c0.01,0.43-0.17,0.56-0.58,0.56c-2.47-0.01-4.94,0-7.41,0c-0.17,0-0.33,0-0.53,0c0,0.51,0,0.97,0,1.5
			c0.17,0,0.34,0,0.5,0c1.46,0,2.91,0.01,4.37-0.01c0.45-0.01,0.6,0.16,0.59,0.6c-0.02,0.64-0.02,1.29,0,1.93
			c0.01,0.39-0.14,0.55-0.54,0.54c-1.46-0.01-2.91-0.01-4.37-0.01C106,103.94,105.84,103.94,105.62,103.94z"/>
		<path class="st9" d="M139.13,96.36c4.03,0,8.04,0,12.12,0c0,0.92,0.02,1.83-0.02,2.74c0,0.1-0.35,0.26-0.54,0.27
			c-1.9,0.02-3.8,0.01-5.71,0.01c-0.73,0-1.46,0-2.22,0c0,0.52,0,0.98,0,1.5c0.7,0,1.37,0,2.04,0c0.97,0,1.93,0.01,2.9,0
			c0.37,0,0.53,0.15,0.52,0.52c-0.02,0.67-0.02,1.35,0,2.02c0.01,0.38-0.14,0.52-0.51,0.52c-1.5-0.01-3.01,0.01-4.51-0.01
			c-0.36,0-0.5,0.1-0.47,0.46c0.03,0.33,0.01,0.67,0.01,1.06c0.21,0,0.37,0,0.53,0c2.45,0,4.91,0,7.36,0c0.6,0,0.63,0.03,0.63,0.62
			c0,0.64-0.01,1.29,0,1.93c0.01,0.35-0.13,0.5-0.49,0.5c-3.74-0.01-7.49,0-11.23,0c-0.3,0-0.46-0.09-0.46-0.42
			c0.01-3.88,0.01-7.76,0.02-11.64C139.1,96.44,139.1,96.43,139.13,96.36z"/>
		<path class="st9" d="M91.61,100.86c1.64,0,3.22,0,4.86,0c0-0.17,0-0.33,0-0.49c0-1.18,0.01-2.36-0.01-3.54
			c0-0.36,0.12-0.5,0.48-0.49c0.9,0.01,1.81,0.01,2.71,0c0.36,0,0.49,0.16,0.49,0.5c0,3.71,0,7.42,0,11.13
			c0,0.39-0.16,0.55-0.55,0.54c-0.87-0.02-1.75-0.02-2.62,0c-0.38,0.01-0.51-0.15-0.51-0.52c0.01-1.17,0.01-2.33,0.01-3.5
			c0-0.17,0-0.33,0-0.53c-1.63,0-3.21,0-4.87,0c0,0.45,0,0.89,0,1.33c0,0.89-0.01,1.78,0.01,2.67c0.01,0.39-0.12,0.56-0.53,0.55
			c-0.87-0.02-1.75-0.02-2.62,0c-0.38,0.01-0.52-0.15-0.52-0.52c0-3.73,0.01-7.45,0-11.18c0-0.36,0.15-0.48,0.5-0.48
			c0.89,0.02,1.78,0.02,2.67,0c0.39-0.01,0.51,0.15,0.5,0.52C91.6,98.18,91.61,99.49,91.61,100.86z"/>
		<path class="st9" d="M178.73,108.51c-1.09,0-2.18,0-3.27,0c-1.69,0-2.93-1.24-2.93-2.93c-0.01-2.12-0.01-4.23,0-6.35
			c0.01-1.65,1.23-2.87,2.88-2.88c2.15-0.01,4.29-0.01,6.44,0c1.59,0.01,2.8,1.11,2.86,2.7c0.07,1.71,0.14,1.37-1.26,1.4
			c-0.64,0.01-1.29,0-1.93,0c-0.3,0-0.44-0.11-0.45-0.43c-0.01-0.52-0.15-0.63-0.68-0.63c-1.17,0-2.33,0-3.5,0
			c-0.55,0-0.69,0.13-0.69,0.67c0,1.58,0,3.16,0,4.74c0,0.53,0.14,0.67,0.69,0.67c1.17,0,2.33,0,3.5,0c0.53,0,0.66-0.11,0.68-0.63
			c0.01-0.3,0.14-0.41,0.42-0.41c0.94,0,1.87,0,2.81,0c0.28,0,0.44,0.11,0.43,0.41c0,0.55,0.02,1.11-0.02,1.66
			c-0.06,0.92-0.59,1.58-1.49,1.83c-0.42,0.12-0.87,0.19-1.31,0.2C180.85,108.53,179.79,108.51,178.73,108.51z"/>
		<path class="st9" d="M187.3,108.51c-0.49,0-0.98,0-1.47,0c-0.5-0.01-0.61-0.18-0.4-0.63c0.9-1.94,1.81-3.88,2.71-5.83
			c0.81-1.73,1.62-3.46,2.42-5.2c0.17-0.37,0.36-0.54,0.79-0.52c0.9,0.04,1.81,0.02,2.71,0.01c0.3,0,0.46,0.1,0.59,0.39
			c1.71,3.69,3.43,7.38,5.15,11.07c0.28,0.59,0.19,0.72-0.48,0.72c-0.94,0-1.87-0.01-2.81,0.01c-0.31,0.01-0.48-0.1-0.6-0.38
			c-0.16-0.4-0.37-0.77-0.53-1.17c-0.1-0.23-0.23-0.31-0.48-0.31c-1.52,0.01-3.04,0-4.55,0.03c-0.15,0-0.36,0.14-0.43,0.28
			c-0.22,0.38-0.39,0.8-0.57,1.2c-0.11,0.25-0.28,0.37-0.57,0.35C188.29,108.5,187.79,108.51,187.3,108.51z M192.64,101.08
			c-0.51,1.09-0.96,2.07-1.43,3.1c0.98,0,1.9,0,2.89,0C193.61,103.14,193.14,102.15,192.64,101.08z"/>
		<path class="st9" d="M130.45,103.74c0.53-1.13,1.02-2.18,1.51-3.23c0.6-1.28,1.18-2.56,1.8-3.82c0.08-0.16,0.33-0.33,0.51-0.33
			c1.01-0.03,2.02-0.02,3.04-0.01c0.48,0,0.56,0.16,0.36,0.6c-1.73,3.7-3.46,7.41-5.18,11.12c-0.16,0.35-0.36,0.47-0.74,0.46
			c-0.89-0.03-1.78-0.02-2.67,0c-0.34,0.01-0.53-0.11-0.67-0.42c-1.28-2.78-2.58-5.55-3.87-8.33c-0.43-0.93-0.87-1.86-1.3-2.79
			c-0.23-0.5-0.14-0.64,0.4-0.64c0.94,0,1.87,0.02,2.81-0.01c0.4-0.01,0.6,0.13,0.77,0.49c0.98,2.14,1.98,4.28,2.98,6.42
			C130.25,103.37,130.33,103.51,130.45,103.74z"/>
		<path class="st9" d="M161,99.38c0,0.53,0,0.99,0,1.44c0,2.35,0,4.69,0,7.04c0,0.59-0.06,0.64-0.62,0.65
			c-0.83,0-1.66-0.02-2.48,0.01c-0.45,0.01-0.58-0.16-0.58-0.6c0.01-2.65,0.01-5.31,0.01-7.96c0-0.17,0-0.34,0-0.58
			c-0.18,0-0.34,0-0.5,0c-1.07,0-2.15-0.01-3.22,0.01c-0.4,0.01-0.55-0.14-0.53-0.54c0.02-0.69,0.01-1.38,0-2.07
			c-0.01-0.32,0.12-0.44,0.44-0.44c3.76,0.01,7.52,0.01,11.27,0c0.37,0,0.48,0.16,0.47,0.51c-0.01,0.67-0.02,1.35,0,2.02
			c0.01,0.38-0.16,0.52-0.52,0.51c-1.06-0.01-2.12,0-3.17,0C161.39,99.38,161.23,99.38,161,99.38z"/>
		<path class="st9" d="M119.59,105.46c1.84,0,3.61,0,5.37,0c0.71,0,0.72,0,0.72,0.71c0,0.61-0.01,1.23,0,1.84
			c0.01,0.34-0.1,0.51-0.47,0.51c-2.93-0.01-5.86-0.01-8.79,0c-0.46,0-0.48-0.26-0.48-0.6c0-3.45,0-6.9,0-10.36
			c0-0.26,0.01-0.52,0-0.78c-0.01-0.3,0.12-0.45,0.44-0.44c0.91,0.01,1.81,0.02,2.72,0c0.43-0.01,0.51,0.19,0.51,0.56
			c-0.01,2.65-0.01,5.31-0.01,7.96C119.59,105.04,119.59,105.22,119.59,105.46z"/>
		<path class="st9" d="M170.72,102.48c0,1.81,0,3.62,0,5.42c0,0.57-0.03,0.6-0.6,0.6c-0.84,0-1.69-0.01-2.53,0.01
			c-0.36,0.01-0.53-0.11-0.53-0.5c0.01-3.74,0.01-7.48,0-11.22c0-0.33,0.12-0.47,0.46-0.47c0.89,0.01,1.78,0.02,2.67,0
			c0.4-0.01,0.54,0.15,0.53,0.54C170.72,98.74,170.72,100.61,170.72,102.48z"/>
		<path class="st9" d="M151.26,95.1c-4.07,0-8.08,0-12.17,0c0-0.32-0.04-0.65,0.02-0.95c0.03-0.13,0.26-0.28,0.42-0.31
			c1.31-0.22,2.63-0.41,3.95-0.61c2.36-0.35,4.72-0.7,7.08-1.06c0.62-0.09,0.71-0.04,0.71,0.58
			C151.26,93.52,151.26,94.28,151.26,95.1z"/>
	</g>
	<g>
		<path class="st10" d="M185.41,65.49c-1.17-0.32-6.64-0.51-8.32-0.16c-1.68,0.35-2.46,1.17-2.85,2.42
			c-0.29,0.94-1.27,5.59-1.05,8.28c1.3,0.41,6.67,0.41,8.24,0.2c2.38-0.33,2.68-1.25,2.94-2.4
			C184.6,72.88,185.33,68.99,185.41,65.49 M182.62,90.25c2.73,0,9.39-0.67,11.23-1.08c1.72-0.39,3.44-2.16,3.79-4.08
			c0.35-1.92,2.31-15.84,0-30.11c-0.16-0.97-1.01-1.92-2.07-2.26c-0.88-0.29-3.34-0.59-5.84-0.59
			C188.72,55.35,183.26,85.68,182.62,90.25 M168.95,89.6c-2.5,0-4.96-0.3-5.84-0.59c-1.07-0.35-1.92-1.3-2.07-2.27
			c-2.31-14.27-0.35-28.2,0-30.11c0.34-1.92,2.07-3.69,3.79-4.08c1.84-0.41,8.5-1.08,11.23-1.08
			C175.41,56.05,169.95,86.38,168.95,89.6"/>
		<path class="st7" d="M116.25,58h0.47c0.25,2.35-0.58,4.96-2.51,7.94C114.28,63.44,115.68,60.55,116.25,58 M128.53,64.14
			c-0.29,2.19-1.32,4.44-2.31,6.14c-0.92,1.59-2.11,3.92-4.35,4.09C121.04,69.31,123.26,61.45,128.53,64.14 M117.01,75.66
			c0.5,1.29,1.2,2.08,2.3,2.3c3.75,0.75,6.47-4.14,7.93-5.37c-1.03,6.34,5.35,4.39,7.93,2.56c0.11,0.62-0.47,0.56-0.25,1.28
			c1.93,0.14,3.45-0.13,4.6-0.77c1.08-2.26,1.79-4.94,2.82-7.17c1.06-2.29,2.31-4.21,4.86-5.38c1.19-0.62-2.13,10.09-0.77,11.77
			c1.46,1.59,8.43-1.79,11.44-7.05c0.11-0.19,0.1-0.42-0.07-0.55c-0.17-0.13-0.42-0.1-0.55,0.07c-0.11,0.14-0.21,0.28-0.29,0.42
			c0,0-4.62,5.83-6.18,4.3c-1.22-3.56,2.66-10.68,1.02-12.03c-4.62-3.37-8.02,3.63-9.98,5.38c0.29-1.49,1.41-4.05,0.26-5.38
			c-1.64-0.8-3.31,0.39-4.61,0.77c0.55,5.53,0.12,13.57-5.63,12.8c-1.51-0.43,1.64-9.44,2.3-12.8c-1.89-0.54-3.7-0.12-5.12,0.51
			c-7.7-1.39-11.51,5.32-12.28,12.54c-1.38,0.41-1.95,1.64-3.84,1.54c-1.35-2.77,1.51-8.45,1.51-8.45
			c2.56-4.29,3.72-9.37,2.79-10.08c-5.25-3.08-6.39,3.1-7.63,8.29c-1.09,4.57-1.81,8.35-1.28,12.54
			C111.06,80.16,114.72,76.83,117.01,75.66 M167.43,79.76c-3.1-1.88-7.15-1.54-11.01-1.54c-29.89,0-55.42,3.92-77.03,11.26
			l0.01,0.01c-1.99,0.58-3.98,1.17-5.96,1.77l-3.12,0.93c-0.2,0.06-0.32,0.27-0.26,0.48c0.05,0.17,0.21,0.28,0.37,0.28l0.11-0.02
			l3.12-0.93c2-0.6,4-1.19,6-1.77l-0.01,0.03c20.63-4.64,46.36-9.61,72.68-7.93c4.57,0.29,10.83,2.4,13.05-0.26
			C165.59,80.82,167.67,81.45,167.43,79.76 M103.45,60.31c-1.03-1.55-4.02-1.84-6.4-1.02c0.81,3.76-1.1,6.89-1.28,10.49
			C101.02,70.71,106.34,64.67,103.45,60.31 M95.26,72.34c-0.95,3.01-1.59,8.06-1.02,11c-1.68,0.4-4.19,1.71-5.89,0.51
			c-0.22-7.81,3.11-14.29,3.58-22.27c0.41-1.52-1.69-0.53-1.28-2.05c0.35-2.53,4.86-3.2,8.45-3.58c5.65-0.6,11.35,0.23,10.49,7.17
			C108.82,69.36,102.37,72.66,95.26,72.34"/>
	</g>
</g>
</svg>
