<?xml version="1.0" encoding="utf-8"?>
<!-- Generator: Adobe Illustrator 27.8.1, SVG Export Plug-In . SVG Version: 6.00 Build 0)  -->
<svg version="1.1" id="Capa_1" xmlns="http://www.w3.org/2000/svg" xmlns:xlink="http://www.w3.org/1999/xlink" x="0px" y="0px"
	 viewBox="0 0 270 160" style="enable-background:new 0 0 270 160;" xml:space="preserve">
<style type="text/css">
	.st0{fill:#D10A11;}
	.st1{fill-rule:evenodd;clip-rule:evenodd;}
	.st2{fill:#FFFFFF;}
	.st3{fill:#2A4270;}
	.st4{fill:#B6ABB1;}
	.st5{fill:#E41D29;}
	.st6{fill:#F4D624;}
	.st7{fill:#282626;}
	.st8{fill:#DC292C;}
	.st9{fill:#666666;}
	.st10{fill:#F1B426;}
	.st11{fill:#0890A0;}
	.st12{fill-rule:evenodd;clip-rule:evenodd;fill:#1D1D1B;}
	.st13{fill-rule:evenodd;clip-rule:evenodd;fill:#FFFFFF;}
	.st14{fill-rule:evenodd;clip-rule:evenodd;fill:#179AD7;}
	.st15{fill:none;}
	.st16{fill-rule:evenodd;clip-rule:evenodd;fill:#272526;}
	
		.st17{clip-path:url(#SVGID_00000062870585550091006460000012923241009946092214_);fill:url(#SVGID_00000076569086675636645290000001762375504369634445_);}
	
		.st18{clip-path:url(#SVGID_00000038372315460370655160000007475769130880615072_);fill:url(#SVGID_00000064326118443068673160000016989540982962534279_);}
	
		.st19{clip-path:url(#SVGID_00000046320258178833425650000001276907933965630630_);fill:url(#SVGID_00000088841512879227934100000009759235133376091785_);}
	
		.st20{clip-path:url(#SVGID_00000026869234386231417240000014719622970128291997_);fill:url(#SVGID_00000032619271032539616270000017533158223148593074_);}
	.st21{fill-rule:evenodd;clip-rule:evenodd;fill:#E5282D;}
	.st22{fill-rule:evenodd;clip-rule:evenodd;fill:#FFEC08;}
	.st23{fill:#6D6E70;}
	.st24{fill:#6E6F71;}
	.st25{fill:#6F7072;}
	.st26{fill:#707173;}
	.st27{fill:#717274;}
	.st28{fill:#727375;}
	.st29{fill:#737476;}
	.st30{fill:#747577;}
	.st31{fill:#757678;}
	.st32{fill:#767779;}
	.st33{fill:#77787A;}
	.st34{fill:#78797B;}
	.st35{fill:#797A7C;}
	.st36{fill:#7A7B7D;}
	.st37{fill:#7B7C7E;}
	.st38{fill:#7C7D7F;}
	.st39{fill:#7D7E80;}
	.st40{fill:#7E7F81;}
	.st41{fill:#7F8082;}
	.st42{fill:#808183;}
	.st43{fill:#818284;}
	.st44{fill:#828385;}
	.st45{fill:#838486;}
	.st46{fill:#848587;}
	.st47{fill:#858688;}
	.st48{fill:#868789;}
	.st49{fill:#87888A;}
	.st50{fill:#88898B;}
	.st51{fill:#898A8C;}
	.st52{fill:#8A8B8D;}
	.st53{fill:#8B8C8E;}
	.st54{fill:#8C8D8F;}
	.st55{fill:#8D8E90;}
	.st56{fill:#8E8F91;}
	.st57{fill:#8F9092;}
	.st58{fill:#909193;}
	.st59{fill:#919294;}
	.st60{fill:#929395;}
	.st61{fill:#939496;}
	.st62{fill:#949597;}
	.st63{fill:#959698;}
	.st64{fill:#969799;}
	.st65{fill:#97989A;}
	.st66{fill:#98999B;}
	.st67{fill:#999A9C;}
	.st68{fill:#9A9B9D;}
	.st69{fill:#9B9C9E;}
	.st70{fill:#9C9D9F;}
	.st71{fill:#9D9EA0;}
	.st72{fill:#9E9FA1;}
	.st73{fill:#9FA0A2;}
	.st74{fill:#A0A1A3;}
	.st75{fill:#A1A2A4;}
	.st76{fill:#A2A3A5;}
	.st77{fill:#A3A4A6;}
	.st78{fill:#A4A5A7;}
	.st79{fill:#A5A6A8;}
	.st80{fill:#A6A7A9;}
	.st81{fill:#A7A8AA;}
	.st82{fill:#A8A9AB;}
	.st83{fill:#A9AAAC;}
	.st84{fill:#AAABAD;}
	.st85{fill:#ABACAE;}
	.st86{fill:#ACADAF;}
	.st87{fill:#ADAEB0;}
	.st88{fill:#AEAFB1;}
	.st89{fill:#AFB0B2;}
	.st90{fill:#B0B1B3;}
	.st91{fill:#B1B2B4;}
	.st92{fill:#B2B3B5;}
	.st93{fill:#B3B4B6;}
	.st94{fill:#B4B5B7;}
	.st95{fill:#B5B6B8;}
	.st96{fill:#B6B7B9;}
	.st97{fill:#B7B8BA;}
	.st98{fill:#B8B9BB;}
	.st99{fill:#B9BABC;}
	.st100{fill:#BABBBD;}
	.st101{fill:#BBBCBE;}
	.st102{fill:#BCBDBF;}
	.st103{fill:#BDBEC0;}
	.st104{fill:#BEBFC1;}
	.st105{fill:#BFC0C2;}
	.st106{fill:#C0C1C3;}
	.st107{fill:#C1C2C4;}
	.st108{fill:#C2C3C5;}
	.st109{fill:#C3C4C6;}
	.st110{fill:#C4C5C7;}
	.st111{fill:#C5C6C8;}
	.st112{fill:#C6C7C9;}
	.st113{fill:#C7C8CA;}
	.st114{fill:#C8C9CB;}
	.st115{fill:#9C212D;}
	.st116{fill:#939698;}
	.st117{fill:#1C3F84;}
	.st118{fill-rule:evenodd;clip-rule:evenodd;fill:#020202;}
	.st119{fill-rule:evenodd;clip-rule:evenodd;fill:#E1242C;}
	.st120{fill-rule:evenodd;clip-rule:evenodd;fill:#C5C6C8;}
	.st121{fill-rule:evenodd;clip-rule:evenodd;fill:#1B1918;}
	.st122{fill:#1280AC;}
	.st123{fill:none;stroke:#1280AC;stroke-width:1.0977;stroke-miterlimit:10;}
	.st124{fill:#F2E632;}
	.st125{fill:#8B8A8D;}
	.st126{fill:#1C171C;}
	.st127{fill:#159947;}
	.st128{fill:#003E92;}
	.st129{fill:#1C1C1C;}
	.st130{fill:#E9580C;}
</style>
<g>
	<rect x="44.23" y="58.41" class="st6" width="181.54" height="43.18"/>
	<polygon class="st7" points="225.77,58.41 225.77,57.96 43.78,57.96 43.78,102.04 226.22,102.04 226.22,57.96 225.77,57.96 
		225.77,58.41 225.32,58.41 225.32,101.14 44.68,101.14 44.68,58.86 225.77,58.86 225.77,58.41 225.32,58.41 	"/>
	<path class="st8" d="M144.53,72.13h4.08l4.66,7.94l-0.15-2.46v-5.48h4.37v15.25h-4.22l-4.66-8.13l0.15,2.48v5.65h-4.23V72.13z
		 M129.02,72.13h4.08l4.66,7.94l-0.15-2.46v-5.48h4.37v15.25h-4.22l-4.66-8.13l0.15,2.48v5.65h-4.23V72.13z M118.88,82.27h2.59
		l-1.29-4.98L118.88,82.27z M117.86,72.13h4.66l4.8,15.25h-4.51l-0.43-1.99h-4.37l-0.48,1.99h-4.47L117.86,72.13z M102.08,72.13
		l2.32,9.26l2.34-9.26h5.38v15.25h-4.08V81.4l0.29-3.28l-2.32,9.27h-3.21l-2.32-9.43l0.29,3.45v5.98H96.7V72.13H102.08z
		 M86.45,75.91v2.69h2.59c0.4,0.02,0.7-0.11,0.92-0.39c0.21-0.28,0.32-0.58,0.32-0.91v-0.06v-0.06c-0.03-0.31-0.16-0.6-0.39-0.86
		c-0.22-0.26-0.56-0.39-1-0.39L86.45,75.91z M82.08,72.13h6.96c2.01,0.02,3.43,0.45,4.23,1.3c0.81,0.85,1.23,1.79,1.27,2.81v0.09
		v0.1c0,0.93-0.22,1.78-0.66,2.56c-0.44,0.78-0.93,1.21-1.47,1.26c0.94,0.49,1.51,1.06,1.71,1.73c0.2,0.66,0.3,1.48,0.3,2.46v0.8
		c0,0.5,0.02,0.88,0.07,1.14c0.05,0.26,0.22,0.43,0.51,0.51v0.48h-4.66c-0.08-0.49-0.13-0.95-0.15-1.39
		c-0.02-0.44-0.03-0.84-0.03-1.18c-0.02-0.63-0.06-1.14-0.13-1.53c-0.08-0.38-0.31-0.66-0.7-0.82c-0.15-0.08-0.33-0.13-0.54-0.16
		c-0.21-0.03-0.42-0.05-0.65-0.05c-0.12,0-0.25,0-0.37,0.01c-0.12,0.01-0.26,0.01-0.39,0.01h-0.04h-0.04c-0.12,0-0.24,0-0.36,0.01
		c-0.12,0.01-0.23,0.02-0.34,0.02v5.08h-4.51V72.13z M69.05,72.3h10.92v3.62h-6.4v2.03h5.38v3.62h-5.38v2.2h6.69v3.62h-11.2V72.3z
		 M53.44,67.43h4.51v9.86h3.93v-9.86h4.52v19.95h-4.52v-5.82h-3.93v8.46h-4.51V67.43z"/>
	<rect x="68.44" y="67.13" class="st8" width="147.64" height="2.94"/>
	<polygon class="st8" points="53.42,89.92 216.6,89.92 216.6,92.87 53.42,92.87 53.4,92.85 53.4,89.94 	"/>
	<path class="st7" d="M202.77,72.09h4.26L211.9,80l-0.15-2.45v-5.46h4.56v15.18h-4.41l-4.87-8.1l0.15,2.47v5.63h-4.42V72.09z
		 M192.17,82.18h2.71l-1.35-4.96L192.17,82.18z M191.12,72.09h4.86L201,87.27h-4.71l-0.46-1.98h-4.56l-0.5,1.98h-4.67L191.12,72.09z
		 M174.31,72.09h4.56v11.58h6.38v3.6h-10.95V72.09z M164.55,75.69v3.15h2.27c0.43,0.02,0.76-0.12,0.99-0.41
		c0.22-0.29,0.35-0.61,0.38-0.96v-0.06v-0.06v-0.11l-0.02-0.13c-0.04-0.35-0.19-0.67-0.43-0.97c-0.25-0.3-0.6-0.45-1.06-0.45
		L164.55,75.69z M159.84,72.09h7.14c1.89,0.01,3.32,0.57,4.31,1.67c0.99,1.1,1.49,2.31,1.52,3.63v0.08v0.06
		c0,1.29-0.47,2.47-1.42,3.56c-0.94,1.08-2.37,1.62-4.27,1.62h-2.57v4.57h-4.71V72.09z"/>
</g>
</svg>
