<?xml version="1.0" encoding="utf-8"?>
<!-- Generator: Adobe Illustrator 27.8.1, SVG Export Plug-In . SVG Version: 6.00 Build 0)  -->
<svg version="1.1" id="Capa_1" xmlns="http://www.w3.org/2000/svg" xmlns:xlink="http://www.w3.org/1999/xlink" x="0px" y="0px"
	 viewBox="0 0 270 160" style="enable-background:new 0 0 270 160;" xml:space="preserve">
<style type="text/css">
	.st0{fill:#D10A11;}
	.st1{fill-rule:evenodd;clip-rule:evenodd;}
	.st2{fill:#FFFFFF;}
	.st3{fill:#2A4270;}
	.st4{fill:#B6ABB1;}
	.st5{fill:#E41D29;}
	.st6{fill:#F4D624;}
	.st7{fill:#282626;}
	.st8{fill:#DC292C;}
	.st9{fill:#666666;}
	.st10{fill:#F1B426;}
	.st11{fill:#0890A0;}
	.st12{fill-rule:evenodd;clip-rule:evenodd;fill:#1D1D1B;}
	.st13{fill-rule:evenodd;clip-rule:evenodd;fill:#FFFFFF;}
	.st14{fill-rule:evenodd;clip-rule:evenodd;fill:#179AD7;}
	.st15{fill:none;}
	.st16{fill-rule:evenodd;clip-rule:evenodd;fill:#272526;}
	
		.st17{clip-path:url(#SVGID_00000178890308327453665310000008899284720952675000_);fill:url(#SVGID_00000030476070819730609280000016651373563554413192_);}
	
		.st18{clip-path:url(#SVGID_00000070110766564111496140000007771793577267473047_);fill:url(#SVGID_00000129899128327997278240000008683979640673734295_);}
	
		.st19{clip-path:url(#SVGID_00000033357998011265186830000008402062213365011875_);fill:url(#SVGID_00000118371041050544075300000014159241844926717090_);}
	
		.st20{clip-path:url(#SVGID_00000014620204335630321060000013941087000553670038_);fill:url(#SVGID_00000181069981090851917550000007494025906509173690_);}
	.st21{fill-rule:evenodd;clip-rule:evenodd;fill:#E5282D;}
	.st22{fill-rule:evenodd;clip-rule:evenodd;fill:#FFEC08;}
	.st23{fill:#6D6E70;}
	.st24{fill:#6E6F71;}
	.st25{fill:#6F7072;}
	.st26{fill:#707173;}
	.st27{fill:#717274;}
	.st28{fill:#727375;}
	.st29{fill:#737476;}
	.st30{fill:#747577;}
	.st31{fill:#757678;}
	.st32{fill:#767779;}
	.st33{fill:#77787A;}
	.st34{fill:#78797B;}
	.st35{fill:#797A7C;}
	.st36{fill:#7A7B7D;}
	.st37{fill:#7B7C7E;}
	.st38{fill:#7C7D7F;}
	.st39{fill:#7D7E80;}
	.st40{fill:#7E7F81;}
	.st41{fill:#7F8082;}
	.st42{fill:#808183;}
	.st43{fill:#818284;}
	.st44{fill:#828385;}
	.st45{fill:#838486;}
	.st46{fill:#848587;}
	.st47{fill:#858688;}
	.st48{fill:#868789;}
	.st49{fill:#87888A;}
	.st50{fill:#88898B;}
	.st51{fill:#898A8C;}
	.st52{fill:#8A8B8D;}
	.st53{fill:#8B8C8E;}
	.st54{fill:#8C8D8F;}
	.st55{fill:#8D8E90;}
	.st56{fill:#8E8F91;}
	.st57{fill:#8F9092;}
	.st58{fill:#909193;}
	.st59{fill:#919294;}
	.st60{fill:#929395;}
	.st61{fill:#939496;}
	.st62{fill:#949597;}
	.st63{fill:#959698;}
	.st64{fill:#969799;}
	.st65{fill:#97989A;}
	.st66{fill:#98999B;}
	.st67{fill:#999A9C;}
	.st68{fill:#9A9B9D;}
	.st69{fill:#9B9C9E;}
	.st70{fill:#9C9D9F;}
	.st71{fill:#9D9EA0;}
	.st72{fill:#9E9FA1;}
	.st73{fill:#9FA0A2;}
	.st74{fill:#A0A1A3;}
	.st75{fill:#A1A2A4;}
	.st76{fill:#A2A3A5;}
	.st77{fill:#A3A4A6;}
	.st78{fill:#A4A5A7;}
	.st79{fill:#A5A6A8;}
	.st80{fill:#A6A7A9;}
	.st81{fill:#A7A8AA;}
	.st82{fill:#A8A9AB;}
	.st83{fill:#A9AAAC;}
	.st84{fill:#AAABAD;}
	.st85{fill:#ABACAE;}
	.st86{fill:#ACADAF;}
	.st87{fill:#ADAEB0;}
	.st88{fill:#AEAFB1;}
	.st89{fill:#AFB0B2;}
	.st90{fill:#B0B1B3;}
	.st91{fill:#B1B2B4;}
	.st92{fill:#B2B3B5;}
	.st93{fill:#B3B4B6;}
	.st94{fill:#B4B5B7;}
	.st95{fill:#B5B6B8;}
	.st96{fill:#B6B7B9;}
	.st97{fill:#B7B8BA;}
	.st98{fill:#B8B9BB;}
	.st99{fill:#B9BABC;}
	.st100{fill:#BABBBD;}
	.st101{fill:#BBBCBE;}
	.st102{fill:#BCBDBF;}
	.st103{fill:#BDBEC0;}
	.st104{fill:#BEBFC1;}
	.st105{fill:#BFC0C2;}
	.st106{fill:#C0C1C3;}
	.st107{fill:#C1C2C4;}
	.st108{fill:#C2C3C5;}
	.st109{fill:#C3C4C6;}
	.st110{fill:#C4C5C7;}
	.st111{fill:#C5C6C8;}
	.st112{fill:#C6C7C9;}
	.st113{fill:#C7C8CA;}
	.st114{fill:#C8C9CB;}
	.st115{fill:#9C212D;}
	.st116{fill:#939698;}
	.st117{fill:#1C3F84;}
	.st118{fill-rule:evenodd;clip-rule:evenodd;fill:#020202;}
	.st119{fill-rule:evenodd;clip-rule:evenodd;fill:#E1242C;}
	.st120{fill-rule:evenodd;clip-rule:evenodd;fill:#C5C6C8;}
	.st121{fill-rule:evenodd;clip-rule:evenodd;fill:#1B1918;}
	.st122{fill:#1280AC;}
	.st123{fill:none;stroke:#1280AC;stroke-width:1.0977;stroke-miterlimit:10;}
	.st124{fill:#F2E632;}
	.st125{fill:#8B8A8D;}
	.st126{fill:#1C171C;}
	.st127{fill:#159947;}
	.st128{fill:#003E92;}
	.st129{fill:#1C1C1C;}
	.st130{fill:#E9580C;}
</style>
<g>
	<rect x="41.23" y="61.63" class="st12" width="187.54" height="36.74"/>
	<rect x="43.51" y="64.28" class="st13" width="182.98" height="31.43"/>
	<rect x="45.49" y="66.29" class="st12" width="109.73" height="27.41"/>
	<rect x="157.5" y="66.21" class="st14" width="66" height="27.5"/>
	<path class="st13" d="M76.41,73.59h-2.03v4.07l1.83,5.22h-1.83v2.8h2.85l0.73,2.23h4.25L76.41,73.59z M74.39,73.59h-2.07
		l-5.72,14.32h4.15l0.8-2.23h2.85v-2.8h-1.83l0,0l1.79-5.34l0.05,0.12V73.59z"/>
	<polygon class="st13" points="84.53,87.91 84.53,73.59 89.89,73.59 95.25,82.79 95.25,73.59 98.88,73.59 98.88,87.91 93.33,87.91 
		88.29,78.64 88.29,87.91 	"/>
	<polygon class="st13" points="136.53,87.91 136.53,73.65 141.87,73.65 147.18,82.81 147.18,73.65 150.88,73.65 150.88,87.91 
		145.37,87.91 140.23,78.69 140.23,87.91 	"/>
	<path class="st13" d="M116.36,79.95l-0.05-0.56l-0.09-0.56l-0.08-0.38l-0.11-0.39l-0.12-0.38l-0.18-0.38l-0.17-0.33l-0.21-0.33
		l-0.23-0.32l-0.26-0.32l-0.26-0.29l-0.3-0.26l-0.3-0.26l-0.33-0.24l-0.35-0.18l-0.33-0.2l-0.36-0.15l-0.38-0.11l-0.62-0.17
		l-0.65-0.17l-0.62-0.11l-0.64-0.11l-0.35-0.03v2.86l0.09,0.03l0.33,0.06l0.32,0.11l0.33,0.15l0.27,0.12l0.26,0.15l0.24,0.18
		l0.23,0.2l0.2,0.23l0.18,0.24l0.15,0.27l0.12,0.26l0.15,0.38l0.11,0.41l0.08,0.39l0.06,0.41l0.05,0.41v0.39l0,0l-0.05,0.39
		l-0.06,0.42l-0.08,0.39l-0.11,0.39l-0.15,0.36L112,83.22l-0.14,0.26l-0.18,0.21l-0.18,0.23l-0.2,0.2l-0.21,0.17l-0.24,0.17
		l-0.24,0.14l-0.15,0.06l-0.08,0.05h-0.03l-0.23,0.09l-0.32,0.09l-0.33,0.09l-0.09,0.02v2.86l0.35-0.03l0.64-0.09l0.62-0.11
		l0.65-0.17l0.62-0.17l0.38-0.14L113,87l0.33-0.2l0.35-0.18l0.33-0.24l0.3-0.24l0.3-0.26l0.26-0.29l0.26-0.32l0.23-0.32l0.21-0.35
		l0.17-0.35l0.18-0.36l0.12-0.38l0.11-0.38l0.08-0.38l0.09-0.56l0.05-0.58l0.03-0.58v-0.53L116.36,79.95z M109.38,73.74l-0.3-0.02
		l-0.65-0.06l-0.64-0.02h-5.27v14.26h5.27h0.64l0.65-0.05l0.3-0.03v-2.86l-0.27,0.05l-0.35,0.03h-0.35h-2.2v-8.54h2.2l0.35,0.03
		h0.35l0.27,0.06V73.74z"/>
	<path class="st13" d="M133.47,80.11l-0.05-0.65l-0.05-0.41l-0.08-0.44l-0.11-0.39l-0.12-0.42l-0.15-0.39l-0.17-0.39l-0.2-0.38
		l-0.24-0.35l-0.24-0.36l-0.26-0.32l-0.3-0.32l-0.3-0.29l-0.32-0.26l-0.35-0.26l-0.36-0.23l-0.35-0.21l-0.41-0.17l-0.39-0.15
		l-0.39-0.12l-0.39-0.09l-0.41-0.08l-0.55-0.06l-0.55-0.05h-0.53h-0.02v2.83h0.17l0.32,0.02l0.32,0.06l0.24,0.08l0.24,0.11l0.2,0.14
		l0.2,0.14l0.18,0.17l0.23,0.23l0.15,0.24l0.17,0.27l0.14,0.27l0.11,0.27l0.11,0.3l0.08,0.5l0.11,0.51l0.06,0.53l0.02,0.51v0.5l0,0
		l-0.02,0.53l-0.06,0.51l-0.11,0.51l-0.08,0.5l-0.11,0.29l-0.11,0.29l-0.14,0.27l-0.17,0.27l-0.15,0.23l-0.23,0.23l-0.18,0.18
		l-0.2,0.15l-0.2,0.12l-0.24,0.12L127,85.26l-0.32,0.08l-0.32,0.03h-0.17v2.83h0.02l0.53-0.03l0.55-0.02l0.55-0.08l0.41-0.06
		l0.39-0.11l0.39-0.12l0.39-0.14l0.41-0.18l0.35-0.21l0.36-0.21l0.35-0.24l0.32-0.29l0.3-0.29l0.3-0.32l0.26-0.32l0.24-0.35
		l0.24-0.36l0.2-0.38l0.17-0.38l0.15-0.39l0.12-0.42l0.11-0.41l0.08-0.41l0.05-0.44l0.05-0.64v-0.65V80.11z M126.2,73.33h-0.53
		l-0.53,0.05l-0.55,0.06l-0.41,0.08l-0.41,0.09l-0.41,0.12l-0.38,0.15l-0.39,0.17l-0.35,0.21l-0.36,0.23l-0.35,0.26l-0.33,0.26
		l-0.29,0.29l-0.32,0.32l-0.26,0.32l-0.23,0.36l-0.23,0.35l-0.21,0.38l-0.18,0.39l-0.15,0.39l-0.12,0.42l-0.09,0.39l-0.08,0.44
		l-0.05,0.41l-0.05,0.65v0.65v0.65l0.05,0.64l0.05,0.44l0.08,0.41l0.09,0.41l0.12,0.42l0.15,0.39l0.18,0.38l0.21,0.38l0.23,0.36
		l0.23,0.35l0.26,0.32l0.32,0.32l0.29,0.29l0.33,0.29l0.35,0.24l0.36,0.21l0.35,0.21l0.39,0.18l0.38,0.14l0.41,0.12l0.41,0.11
		l0.41,0.06l0.55,0.08l0.53,0.02l0.53,0.03v-2.83h-0.14l-0.32-0.03l-0.32-0.08l-0.24-0.05l-0.23-0.12l-0.23-0.12l-0.18-0.15
		l-0.18-0.18l-0.21-0.23l-0.18-0.23l-0.17-0.27l-0.12-0.27l-0.12-0.29l-0.08-0.29l-0.12-0.5l-0.09-0.51l-0.05-0.51l-0.03-0.53v-0.5
		l0.03-0.51l0.05-0.53l0.09-0.51l0.12-0.5l0.08-0.3l0.12-0.27l0.12-0.27l0.17-0.27l0.18-0.24l0.21-0.23l0.18-0.17l0.18-0.14
		l0.23-0.14l0.23-0.11l0.24-0.08l0.32-0.06l0.32-0.02h0.14V73.33z"/>
	<path class="st13" d="M60.36,82.7l0.33-0.15l0.35-0.15l0.33-0.2l0.3-0.2l0.3-0.24l0.27-0.26l0.26-0.29l0.24-0.29l0.2-0.3l0.18-0.35
		l0.17-0.33l0.12-0.36l0.11-0.38l0.06-0.33l0.05-0.39V78.1l-0.03-0.38l-0.05-0.38l-0.09-0.35l-0.09-0.38l-0.14-0.36l-0.18-0.33
		l-0.2-0.32l-0.2-0.32l-0.24-0.3l-0.27-0.26l-0.29-0.24l-0.27-0.2l-0.27-0.2l-0.3-0.17l-0.33-0.11l-0.3-0.11l-0.35-0.08l-0.32-0.05
		h-0.36h-2.17v3.06h1.23l0.2,0.02l0.2,0.05l0.2,0.06l0.2,0.08l0.15,0.11l0.18,0.15l0.15,0.15l0.15,0.2l0.11,0.18l0.09,0.2l0.08,0.21
		l0.05,0.23l0.02,0.23l-0.02,0.23l0,0l-0.05,0.23l-0.08,0.2l-0.09,0.21l-0.11,0.2l-0.15,0.18l-0.15,0.17l-0.18,0.14l-0.15,0.11
		L59,80.23l-0.2,0.05l-0.2,0.03l-0.2,0.02h-1.23v4.39l2.66,3.19h4.59L60.36,82.7z M57.18,73.59h-6.65v14.32h3.68v-6.78l2.97,3.59
		v-4.39h-2.97v-3.68h2.97V73.59z"/>
	<g>
		<path class="st2" d="M163.01,87.77V73.52h6.87c4.1,0,6.08,1.88,6.08,4.81c0,3.07-1.82,5.01-5.92,5.01h-2.36v4.43H163.01z
			 M169.62,80.01c1.09,0,1.88-0.44,1.88-1.66c0-1.33-1.5-1.5-2.49-1.5h-1.33v3.17H169.62z"/>
		<path class="st2" d="M177.68,87.77V73.52h4.67v10.93h6.41v3.33H177.68z"/>
		<path class="st2" d="M189.59,87.77l5.11-14.25h4.75l5.11,14.25h-4.65l-0.55-1.88h-4.65l-0.53,1.88H189.59z M197.03,77.81
			l-1.45,5.11h2.95L197.03,77.81z"/>
		<path class="st2" d="M215.59,81.29l-0.18-3.25v-4.53h4.47v14.25h-4.37l-5.09-7.76l0.18,3.25v4.51h-4.47V73.52h4.37L215.59,81.29z"
			/>
	</g>
</g>
</svg>
