<?xml version="1.0" encoding="UTF-8"?>
<svg id="Capa_1" data-name="Capa 1" xmlns="http://www.w3.org/2000/svg" viewBox="0 0 690.2 280.11">
  <defs>
    <style>
      .cls-1 {
        fill-rule: evenodd;
      }

      .cls-1, .cls-2, .cls-3 {
        stroke-width: 0px;
      }

      .cls-2 {
        fill: #fff;
      }

      .cls-3 {
        fill: #d10a11;
      }
    </style>
  </defs>
  <circle class="cls-3" cx="189.36" cy="140.05" r="99.34"/>
  <path class="cls-1" d="m570.62,206.03v-49.54c0-7.23-1.29-12.64-4.13-16-2.84-3.35-7.23-5.16-13.68-5.16-2.84,0-6.19.77-9.55,2.58-3.1,1.55-5.93,3.61-7.74,6.19v61.93h-19.87v-85.93h14.19l3.87,8.26c5.42-6.45,13.42-9.81,24-9.81s18.32,3.1,24.26,9.29c5.93,6.19,8.77,14.71,8.77,25.55v52.64h-20.13Zm-72.51-25.03v-18.32c0-16.51-3.1-27.87-9.03-33.8-5.68-5.68-14.71-8.52-26.58-9.03h-2.32c-9.55,0-17.55,1.81-24.51,5.16l4.39,15.48c4.9-2.58,11.35-3.87,18.84-3.87,1.29,0,2.58,0,3.61.26,10.32.77,15.48,5.93,15.48,14.97-3.1-.77-5.93-1.29-8.26-1.29-2.58,0-4.9.26-7.23.26-10.32,1.03-18.32,3.61-24.51,8.26-7.48,5.68-11.1,13.42-11.1,23.22,0,8.52,2.58,15.22,7.74,19.61,5.42,4.64,12.64,6.97,21.93,6.97,2.06,0,3.87,0,5.93-.52,2.84-.26,5.42-1.03,8.26-2.32,4.39-1.81,7.48-4.39,9.29-7.23,1.03,2.58,2.58,4.9,4.64,6.97,2.32,2.06,4.9,3.1,8,3.1,2.58,0,4.9-.26,6.97-1.03,1.81-.52,3.87-2.32,5.42-5.16-4.64-3.1-6.97-10.06-6.97-21.68Zm-19.87-5.93c0,11.1-5.16,17.03-15.74,17.8-.77,0-1.55.26-2.32.26-8.77,0-13.42-3.87-13.42-11.61,0-8.52,5.42-13.42,15.74-14.97,2.32-.52,5.16-.52,8-.52,1.81,0,4.39.26,7.74,1.03v8Zm-84.38-83.09l20.13-4.64v96.51c0,10.58,3.1,16.77,9.55,18.84-3.1,5.93-8.52,8.77-16,8.77-9.03,0-13.68-6.19-13.68-18.84v-100.64Zm-21.68,4.39c-6.19-4.13-14.97-6.71-26.32-7.74-4.39-.52-9.29-.77-14.45-.77-2.32,0-10.32.26-24.26.77v117.41h20.9v-43.09c3.87.26,6.97.52,9.29.52,3.1,0,5.68-.26,8.52-.26,26.06-2.32,38.96-15.74,38.96-40.25,0-11.87-4.13-20.9-12.64-26.58Zm-14.97,43.87c-2.84,1.81-6.71,3.35-11.35,4.13-2.84.26-5.93.52-9.55.52-2.06,0-4.9-.26-8.26-.52v-37.67c1.81-.26,4.13-.26,6.19-.26,4.39,0,8.26.26,11.61.77,11.87,2.06,17.8,8,17.8,17.55,0,6.97-2.06,12.13-6.45,15.48Z"/>
  <g>
    <path class="cls-2" d="m137.43,119.36c-.14,3.81-.28,7.96-.38,12.48-.1,4.52-.13,9.19-.07,14.03.06,4.84.23,9.75.51,14.74.28,4.99.65,9.85,1.07,14.57.43,4.72.93,9.18,1.48,13.37.55,4.19,1.12,7.9,1.68,11.12.3,1.67.5,2.93.59,3.78.09.86-.13,1.39-.69,1.6-.99.37-2.21.29-3.7-.23-1.49-.52-2.99-1.3-4.52-2.33-1.53-1.03-2.94-2.18-4.22-3.45-1.28-1.27-2.19-2.49-2.68-3.65-2-4.65-3.81-9.63-5.35-14.95-1.54-5.31-2.87-10.79-3.93-16.4-1.06-5.62-1.91-11.34-2.48-17.16-.58-5.82-.98-11.6-1.21-17.34-.23-5.74-.35-11.38-.4-16.93-.05-5.55-.13-10.9-.3-16.09-.04-1.38-.08-2.62-.1-3.72-.03-1.1.09-2.03.35-2.78.26-.76.77-1.36,1.53-1.81.75-.45,1.88-.76,3.38-.92,2.44,1.21,5.39,3.1,8.78,5.69,3.39,2.59,6.88,5.48,10.45,8.68,3.56,3.19,7.03,6.48,10.39,9.85,3.36,3.37,6.35,6.43,9.02,9.18,2.67,2.75,4.92,5.01,6.82,6.78,1.89,1.77,3.2,2.66,3.98,2.68.5-.29,1.42-1.07,2.79-2.31,1.38-1.24,3.08-2.77,5.18-4.54,2.09-1.77,4.52-3.7,7.33-5.72,2.81-2.02,5.86-4.01,9.16-5.92,3.3-1.91,6.79-3.68,10.47-5.27,3.68-1.59,7.36-2.9,11.01-3.95,3.65-1.05,7.18-1.77,10.52-2.2,3.34-.43,6.33-.49,8.89-.23,1.27,1.19,2.59,2.46,3.94,3.8,1.35,1.34,2.6,2.72,3.73,4.13,1.13,1.41,2.04,2.85,2.73,4.3.69,1.45,1.06,2.88,1.11,4.28-2.48,1.97-5.26,4.42-8.27,7.39-3.01,2.98-6.07,6.34-9.13,10.12-3.06,3.78-6.08,7.87-9.02,12.29-2.94,4.42-5.65,8.97-8.14,13.63-2.49,4.67-4.72,9.32-6.73,13.93-2.01,4.61-3.69,8.97-5.12,13.03-1.43,4.06-2.58,7.69-3.51,10.84-.94,3.15-1.6,5.58-2.08,7.25-1,.15-2.06.13-3.22-.08-1.16-.21-2.26-.62-3.3-1.24-1.05-.62-1.95-1.49-2.71-2.62-.76-1.13-1.21-2.55-1.32-4.27-.12-1.77-.04-4.2.27-7.27.32-3.07.79-6.51,1.49-10.29s1.57-7.75,2.69-11.88c1.12-4.13,2.36-8.16,3.73-12.1,3.31-9.73,7.89-19.66,13.2-28.45-11.43,5.47-22.08,12.55-31.42,21.12-.88,0-2.07-.51-3.61-1.57s-3.29-2.43-5.28-4.11c-1.99-1.68-4.14-3.59-6.46-5.71s-4.65-4.25-6.98-6.38c-2.33-2.13-4.56-4.15-6.67-6.03-2.11-1.89-3.89-3.46-5.29-4.73Z"/>
    <path class="cls-2" d="m260.05,169.41c.13.87.31,1.67.54,2.41.23.74.46,1.37.67,1.89.22.52.39.95.51,1.28.13.33.16.52.12.59-1.37.87-3.27,1.93-5.65,3.25-2.38,1.32-4.96,2.75-7.71,4.36-2.75,1.6-5.51,3.27-8.28,5.04-2.77,1.76-5.29,3.44-7.61,5-2.32,1.56-4.33,2.87-6.08,3.89-1.75,1.02-3.03,1.54-3.92,1.49-.56-.03-1.22-.23-1.98-.61-.76-.38-1.56-.86-2.42-1.45-.86-.59-1.73-1.24-2.61-1.96-.88-.72-1.71-1.44-2.48-2.16-.77-.72-1.43-1.41-1.97-2.07-.54-.66-.9-1.19-1.06-1.58-.37-1.14-.57-2.45-.57-3.95,0-1.49.14-3.11.44-4.86.4-2.27,1.13-4.9,2.25-7.87,1.12-2.97,2.49-5.96,4.17-8.96,1.67-2.99,3.56-5.87,5.7-8.61,2.13-2.74,4.33-5.09,6.56-7.05,2.23-1.96,4.42-3.42,6.51-4.39,2.09-.97,3.87-1.23,5.27-.84.77.22,1.5.69,2.19,1.41,1,1.16,1.77,2.31,2.34,3.45.56,1.14.96,2.28,1.2,3.43.24,1.15.35,2.32.33,3.51-.02,1.19-.09,2.43-.22,3.71-1.06.5-2.27,1.24-3.61,2.22-1.34.98-2.73,2.12-4.16,3.43-1.43,1.31-2.83,2.74-4.21,4.29-1.38,1.55-2.64,3.14-3.8,4.76-1.17,1.62-2.18,3.25-3.05,4.85-.88,1.61-1.52,3.08-1.97,4.4-.36,1.08-.57,2.02-.62,2.8,2.05-.79,4.45-1.94,7.31-3.37,2.85-1.43,5.87-2.89,9.07-4.36,3.2-1.47,6.46-2.87,9.78-4.19,3.31-1.32,6.34-2.35,9.03-3.17Zm-7.35-45.99c1.11.34,2.24.65,3.34.98.93.27,1.97.62,3.08.98,1.1.36,2.12.72,3.05,1.07,1.2.45,2.31,1.24,3.3,2.35s1.75,2.41,2.26,3.87c.51,1.47.71,3.03.62,4.69-.1,1.66-.61,3.27-1.51,4.87-.66,1.17-1.66,1.98-2.98,2.46-1.32.47-3.06.32-5.25-.46-2.09-.74-3.95-1.64-5.61-2.74-1.65-1.09-3.02-2.29-4.09-3.62-1.07-1.33-1.81-2.73-2.2-4.21-.39-1.48-.34-2.94.17-4.36.44-1.22,1.15-2.32,2.13-3.28.98-.96,2.2-1.83,3.68-2.6Z"/>
  </g>
</svg>