<?xml version="1.0" encoding="UTF-8"?>
<svg id="Capa_1" data-name="Capa 1" xmlns="http://www.w3.org/2000/svg" viewBox="0 0 690.2 280.11">
  <defs>
    <style>
      .cls-1 {
        fill: #2a4270;
      }

      .cls-1, .cls-2 {
        stroke-width: 0px;
      }

      .cls-2 {
        fill: #b6abb1;
      }
    </style>
  </defs>
  <path class="cls-1" d="m587.41,107.12l-42.48,42.82c-6.19,6.24-15.44,7.21-20.55,2.14-5.1-5.07-4.21-14.32,1.99-20.56l28.57-28.8c-35.86.64-64.61,18.28-64.61,39.97,0,15.16,14.04,28.35,34.74,35.13l43.3-43.65c6.2-6.24,15.44-7.21,20.54-2.14,5.11,5.07,4.21,14.32-1.98,20.56l-29.86,30.09c36.72-.04,66.47-17.93,66.47-40,0-15.5-14.68-28.93-36.14-35.57Z"/>
  <g>
    <path class="cls-1" d="m57.1,122.08h12.81l10.58,31.83,10.58-31.83h12.75v41.48h-8.55l.7-32.31-10.64,32.31h-9.26l-10.98-32.65.87,32.65h-8.89v-41.48Z"/>
    <path class="cls-1" d="m124.65,156.84h6.46v-23.73h8.04v29.63c0,4.03-.94,7.01-2.82,8.94-1.88,1.94-4.76,2.91-8.63,2.91h-15.77v-6.18h14.39c1.54,0,2.73-.37,3.56-1.11.83-.74,1.24-1.82,1.24-3.23v-.51h-7.11c-4.55,0-7.8-.9-9.73-2.69-1.94-1.8-2.91-4.79-2.91-8.99v-18.76h7.96v18.14c0,2.3.34,3.8,1.03,4.51.69.72,2.12,1.07,4.3,1.07Z"/>
    <path class="cls-1" d="m182.27,129.47h-21.56c-2.31,0-4.01.43-5.09,1.3-1.08.87-1.62,2.24-1.62,4.12,0,1.51.46,2.63,1.38,3.39.92.75,2.29,1.13,4.12,1.13h11.54c4.78,0,8.18.9,10.2,2.71,2.02,1.81,3.03,4.82,3.03,9.03s-1.17,7.41-3.5,9.41c-2.33,2-6,3-11,3h-23.22v-7.39h21.84c2.48,0,4.23-.36,5.25-1.09,1.02-.72,1.52-1.92,1.52-3.6s-.46-2.96-1.4-3.7-2.53-1.1-4.78-1.1h-10.3c-4.78,0-8.27-.95-10.48-2.86-2.21-1.91-3.32-4.92-3.32-9.04,0-4.4,1.16-7.62,3.48-9.65,2.32-2.03,6.02-3.05,11.08-3.05h22.83v7.39Z"/>
    <path class="cls-1" d="m225.07,122.08h9.26l17.69,41.48h-9.71l-3.81-9.88h-18.03l-3.69,9.88h-9.26l17.55-41.48Zm4.29,8.24l-6.06,15.97h12.36l-6.29-15.97Z"/>
    <path class="cls-1" d="m263.64,122.08v16.82h16v-16.82h8.72v41.48h-8.72v-17.32h-16v17.32h-8.72v-41.48h8.72Z"/>
    <path class="cls-1" d="m294.26,142.39c0-7.13,1.71-12.43,5.12-15.91,3.41-3.48,8.6-5.22,15.58-5.22s12.23,1.76,15.6,5.28c3.38,3.52,5.06,8.94,5.06,16.28s-1.69,12.77-5.06,16.31c-3.37,3.54-8.57,5.3-15.6,5.3s-12.33-1.78-15.68-5.33c-3.34-3.56-5.02-9.12-5.02-16.7Zm20.7-14.02c-3.74,0-6.53,1.17-8.38,3.5-1.85,2.33-2.78,5.86-2.78,10.58,0,5.12.9,8.86,2.69,11.24,1.79,2.38,4.62,3.57,8.47,3.57s6.61-1.18,8.44-3.54c1.83-2.36,2.75-6,2.75-10.91s-.92-8.57-2.75-10.92c-1.83-2.35-4.65-3.53-8.44-3.53Z"/>
    <path class="cls-1" d="m341.6,122.08h21.47c5,0,8.67,1.01,11,3.02,2.33,2.01,3.5,5.16,3.5,9.45,0,3.18-.72,5.78-2.16,7.79-1.44,2.01-3.51,3.31-6.22,3.89l10.35,17.32h-9.82l-9.14-16.31h-10.27v16.31h-8.72v-41.48Zm19.41,7.39h-10.69v10.44h10.69c2.9,0,4.91-.39,6.04-1.19,1.13-.79,1.69-2.14,1.69-4.06s-.55-3.24-1.65-4.02c-1.1-.78-3.13-1.17-6.08-1.17Z"/>
    <path class="cls-1" d="m384.94,122.08h21.47c5,0,8.67,1.01,11,3.02,2.33,2.01,3.5,5.16,3.5,9.45,0,3.18-.72,5.78-2.16,7.79-1.44,2.01-3.51,3.31-6.22,3.89l10.35,17.32h-9.82l-9.14-16.31h-10.27v16.31h-8.72v-41.48Zm19.41,7.39h-10.69v10.44h10.69c2.9,0,4.91-.39,6.04-1.19,1.13-.79,1.69-2.14,1.69-4.06s-.55-3.24-1.65-4.02c-1.1-.78-3.13-1.17-6.08-1.17Z"/>
    <path class="cls-1" d="m425.6,142.39c0-7.13,1.71-12.43,5.12-15.91,3.41-3.48,8.6-5.22,15.58-5.22s12.23,1.76,15.6,5.28c3.38,3.52,5.06,8.94,5.06,16.28s-1.69,12.77-5.06,16.31c-3.37,3.54-8.57,5.3-15.6,5.3s-12.33-1.78-15.68-5.33c-3.34-3.56-5.02-9.12-5.02-16.7Zm20.7-14.02c-3.74,0-6.53,1.17-8.38,3.5-1.85,2.33-2.78,5.86-2.78,10.58,0,5.12.9,8.86,2.69,11.24,1.79,2.38,4.62,3.57,8.47,3.57s6.61-1.18,8.44-3.54c1.83-2.36,2.75-6,2.75-10.91s-.92-8.57-2.75-10.92c-1.83-2.35-4.65-3.53-8.44-3.53Z"/>
  </g>
  <path class="cls-2" d="m576.99,117.62l-32.06,32.31c-6.19,6.24-15.44,7.21-20.55,2.14-5.1-5.07-4.21-14.32,1.99-20.56l14.57-14.69c-22.43,3.85-37.82,15.36-37.82,25.86,0,9.61,12.89,20.06,32.27,24.72l32.98-33.24c6.2-6.24,15.44-7.21,20.54-2.14,5.11,5.07,4.21,14.32-1.98,20.56l-16.18,16.31c23.62-3.46,40-15.38,40-26.21,0-9.85-13.56-20.59-33.77-25.06Z"/>
</svg>