<?xml version="1.0" encoding="UTF-8"?>
<svg id="Capa_1" data-name="Capa 1" xmlns="http://www.w3.org/2000/svg" xmlns:xlink="http://www.w3.org/1999/xlink" viewBox="0 0 690.2 280.11">
  <defs>
    <style>
      .cls-1 {
        fill: #1d1e1c;
      }

      .cls-1, .cls-2, .cls-3, .cls-4 {
        fill-rule: evenodd;
        stroke-width: 0px;
      }

      .cls-2 {
        fill: #696666;
      }

      .cls-3 {
        fill: url(#linear-gradient);
      }

      .cls-4 {
        fill: #fcb93f;
      }
    </style>
    <linearGradient id="linear-gradient" x1="575.89" y1="155.86" x2="575.89" y2="187.34" gradientUnits="userSpaceOnUse">
      <stop offset="0" stop-color="#fff"/>
      <stop offset=".09" stop-color="#a6a8ab"/>
      <stop offset=".29" stop-color="#58595b"/>
      <stop offset=".71" stop-color="#e6e7e7"/>
      <stop offset=".76" stop-color="#fff"/>
      <stop offset=".92" stop-color="#bbbdbf"/>
      <stop offset="1" stop-color="#686d70"/>
      <stop offset="1" stop-color="#337992"/>
    </linearGradient>
  </defs>
  <path class="cls-2" d="m439.55,196.89l47.91-90.33H75.08l-47.91,90.33h412.38Zm2.23,3.7H21.01l51.84-97.73h420.76l-51.84,97.73Z"/>
  <path class="cls-4" d="m263.14,169.05v-31.77h21.77c4.31,0,7.09.09,8.32.25,3.15.42,5.28,1.43,6.4,3.03,1.1,1.61,1.66,4.47,1.66,8.6s-.46,6.67-1.37,8.26c-.62,1.06-1.49,1.88-2.61,2.44-1.12.56-2.65.95-4.58,1.17-1.38.15-3.96.23-7.73.23h-12.17v7.78h-9.68Zm9.68-15.71h12.1c2.21-.02,3.55-.05,4.04-.1.48-.05.92-.17,1.31-.37.49-.26.83-.66,1.03-1.19.18-.54.28-1.37.28-2.5s-.12-1.96-.35-2.49c-.23-.52-.64-.91-1.23-1.14-.44-.17-2.13-.28-5.08-.33h-12.1v8.12h0Zm31.65-16.05h10.17v23.66h22.6v8.1h-32.77v-31.77h0Zm71.37,31.77l-2.72-5.38h-21.01l-2.72,5.38h-11.06l16.85-31.77h15.04l16.62,31.77h-10.99Zm-6.12-12.34l-6.13-12.03h-1.93l-6.12,12.03h14.18Zm18.54-19.43h16.97l16.64,23.69h1l-.23-23.69h9.84v31.77h-16.83l-16.71-23.69h-1.05l.21,23.69h-9.84v-31.77Z"/>
  <path class="cls-1" d="m100.63,169.05l-2.72-5.38h-21.01l-2.72,5.38h-11.06l16.85-31.77h15.04l16.62,31.77h-10.99Zm-6.12-12.34l-6.13-12.03h-1.93l-6.12,12.03h14.18Zm37.34-5.68h22.13c.03.51.05.8.05.86,0,4.49-.12,7.86-.35,10.13-.37,3.66-2.45,5.89-6.24,6.66-1.63.33-3.5.55-5.6.67-2.1.12-5.31.17-9.62.17-5.47,0-9.33-.15-11.59-.45-2.26-.29-4.06-.88-5.38-1.76-.9-.61-1.59-1.38-2.07-2.33-.48-.95-.81-2.2-1-3.75-.18-1.45-.28-4.3-.28-8.57,0-2.9.08-5.08.23-6.56.16-1.47.46-2.79.91-3.96.91-2.45,2.86-3.94,5.84-4.47,3.26-.57,8.26-.86,15.01-.86,4,0,7.16.1,9.49.3,2.33.21,4.24.54,5.75,1,2.43.76,3.91,2.41,4.42,4.93.25,1.26.38,3,.4,5.2h-9.68c0-.9-.06-1.51-.16-1.83-.1-.32-.29-.59-.58-.8-.55-.39-1.68-.64-3.4-.72-1.63-.1-3.99-.14-7.08-.14-3.35,0-5.74.08-7.17.23-1.44.16-2.42.44-2.95.87-.52.43-.88,1.14-1.07,2.13-.18.99-.28,2.67-.28,5.06,0,2.68.1,4.56.28,5.62.19,1.06.54,1.81,1.07,2.25.52.42,1.22.67,2.06.76.85.09,3.52.16,8.02.22,4.41-.03,7.09-.07,8.03-.13.95-.06,1.71-.2,2.28-.43.46-.21.79-.53.99-.99.2-.46.29-1.14.29-2.07,0-.13,0-.43-.02-.88h-12.73v-6.36h0Zm56.2,5.75h9.68c.06,1.55.09,2.55.09,3,0,2.45-.37,4.37-1.1,5.75-.8,1.55-2.38,2.61-4.72,3.16-2.34.56-6.39.84-12.15.84-6.04,0-10.36-.12-12.92-.35-2.57-.23-4.5-.68-5.81-1.35-1.16-.6-2.03-1.42-2.61-2.45-.57-1.03-.95-2.42-1.12-4.21-.14-1.45-.21-4.05-.21-7.82s.07-6.33.21-7.96c.14-1.63.41-2.89.82-3.79.88-2.02,2.68-3.33,5.38-3.92,2.7-.6,8.14-.9,16.33-.9,4.1,0,7.08.1,8.94.28,1.87.19,3.34.54,4.45,1.05,1.45.68,2.45,1.7,3.05,3.04.59,1.34.88,3.31.88,5.93,0,.13,0,.67-.02,1.58h-9.68c-.05-1.06-.12-1.76-.2-2.12-.09-.36-.26-.65-.52-.89-.37-.33-1.31-.56-2.82-.71-1.5-.15-3.78-.22-6.84-.22s-5.12.06-6.28.2c-1.17.14-1.99.39-2.47.78-.57.47-.97,1.25-1.2,2.35-.22,1.1-.33,2.86-.33,5.27s.1,4.1.3,5.08c.2.99.59,1.69,1.17,2.13.54.42,1.41.7,2.59.84,1.19.14,3.29.21,6.3.21,3.7,0,6.18-.06,7.41-.18,1.23-.13,2.07-.4,2.5-.82.57-.54.87-1.81.9-3.8h0Zm34.4-19.97c6.86,0,11.57.17,14.15.51,3.71.5,5.98,2.26,6.82,5.29.57,2.07.86,5.59.86,10.54s-.29,8.49-.86,10.57c-.84,3.03-3.11,4.79-6.82,5.29-2.57.34-7.26.51-14.05.51s-11.67-.17-14.24-.51c-3.71-.5-5.98-2.26-6.82-5.29-.57-2.07-.86-5.66-.86-10.75s.29-8.3.86-10.36c.84-3.03,3.11-4.79,6.82-5.29,2.56-.34,7.28-.51,14.15-.51h0Zm.02,8.26c-5.13,0-8.22.13-9.26.4-1.19.31-1.98,1-2.35,2.08-.37,1.08-.56,3.23-.56,6.44,0,1.94.1,3.34.3,4.21.39,1.61,1.56,2.54,3.51,2.77,1.45.18,4.24.28,8.4.28,3.89,0,6.48-.07,7.77-.21,1.29-.14,2.24-.45,2.86-.94.56-.43.94-1.07,1.14-1.91.2-.85.3-2.23.3-4.16,0-2.28-.08-3.96-.23-5.03-.16-1.07-.44-1.87-.84-2.42-.51-.68-1.36-1.11-2.53-1.27-1.18-.17-4.02-.25-8.52-.25Z"/>
  <path class="cls-3" d="m646.28,187.34h-8.73c-.38,0-.73-.25-.83-.61l-1.6-5.41c-.06-.14-.24-.26-.44-.26h-8.34c-.23,0-.43.13-.5.33l-1.72,5.35c-.12.36-.44.6-.82.6h-8.31c-.48,0-.87-.39-.87-.86,0-.09.01-.18.04-.26l10.92-29.79c.12-.34.45-.56.81-.56h10c.36,0,.69.23.81.57l10.4,29.75c.03.09.05.18.05.3,0,.48-.39.86-.86.86h0Zm-18.31-13.15h0s.01.01.03.01h5.03s.03-.03.03-.06c-.49-1.8-1.81-6.74-2.44-9.4-.56,2.18-1.65,5.97-2.31,8.24l-.35,1.21h0Zm-14.75,13.15h-8.68c-.36,0-.69-.22-.82-.55l-4.82-11.16s-.02-.04-.04-.04h-1.56s-.06.01-.06.04v10.85c0,.48-.39.86-.86.86h-7.97c-.47,0-.86-.39-.86-.86v-29.71c.01-.52.39-.9.87-.9h13.57c7.04,0,10.61,3.06,10.61,9.1,0,4.16-1.63,7.04-4.85,8.58l-.02.05,6.27,12.5c.06.13.09.26.09.38,0,.48-.39.86-.86.86h0Zm-16.13-24.63h0s-.03.02-.03.04v5.82s.02.04.03.04h3c1.71,0,3.29-.37,3.29-3.08,0-1.87-1.09-2.82-3.25-2.82h-3.05Zm-21.99,24.63h-8.38c-.48,0-.86-.39-.86-.86v-22.91c0-.12-.07-.21-.12-.27-.1-.1-.23-.15-.37-.15h-6.14c-.47,0-.86-.39-.86-.86v-5.52c0-.52.38-.9.86-.9h23.37c.43,0,.8.33.85.76v.03s0,.03,0,.03v5.72c-.06.43-.42.75-.86.75h-6.15c-.27,0-.49.22-.49.49v22.83c0,.5-.39.88-.87.88h0Zm-14.38,0c.48,0,.86-.39.86-.86v-5.56c0-.47-.38-.86-.85-.86h-9.65c-.26,0-.47-.2-.49-.42v-22.91c0-.48-.39-.86-.87-.86h-8.38c-.45,0-.81.33-.86.81v29.8c0,.48.39.86.86.86h19.37Zm-23.92,0h-8.73c-.38,0-.73-.25-.84-.61l-1.6-5.41c-.06-.14-.24-.26-.43-.26h-8.34c-.24,0-.43.13-.5.33l-1.72,5.35c-.11.36-.44.6-.82.6h-8.32c-.48,0-.86-.39-.86-.86,0-.08.01-.17.04-.26l10.92-29.8c.13-.34.45-.56.81-.56h10c.36,0,.69.23.81.57l10.4,29.75c.04.12.05.21.05.3,0,.48-.39.86-.86.86h0Zm-18.31-13.15h0s.01.01.03.01h5.04s.02-.03.03-.06c-.61-2.24-1.84-6.87-2.44-9.4-.56,2.18-1.66,5.96-2.31,8.24l-.35,1.21Z"/>
  <g>
    <path class="cls-2" d="m480.88,190.33c-.37,0-.69-.23-.83-.55l-14.5-41.02c-.03-.11-.05-.2-.05-.3,0-.5.4-.9.9-.9h15.85c.35,0,.65.2.8.49l6.47,19.75,7.1-19.65c.13-.35.46-.59.85-.59h15.37c.5,0,.9.4.9.9,0,.11-.02.21-.05.31l-15.64,40.98c-.13.34-.46.58-.84.58h-16.33Z"/>
    <path class="cls-2" d="m632.91,184.37c-.06-.18-.23-.32-.43-.32h-3.96c-.23,0-.39.11-.45.27l-1.75,5.43c-.13.34-.46.58-.84.58h-22.87c-.36,0-.67-.22-.82-.53l-1.69-3.91c.1,1.43.14,2.72.15,3.54,0,.49-.41.9-.91.9h-13.87c-.5,0-.9-.41-.9-.9v-22.85c0-.25-.2-.45-.46-.45h-4.65c-.27,0-.47.2-.47.45v22.81c-.01.54-.41.94-.91.94h-52.23c-.38,0-.71-.24-.84-.57l-1.6-5.45c-.07-.16-.23-.26-.41-.26h-3.97c-.23,0-.39.11-.45.29l-1.71,5.32c-.14.41-.48.67-.88.67h-14.71c-.49,0-.9-.41-.9-.9,0-.11.02-.22.05-.32l13.08-35.7c.16-.34.47-.56.84-.56h14.17c.36,0,.67.21.82.51l8.16,23.35v-23.04c.04-.46.42-.82.9-.82h14.32c.5,0,.9.4.9.9v22.82c0,.27.21.47.45.47h8.33c.27,0,.47-.2.47-.45v-10.01c0-.23-.18-.43-.41-.45h-6.21c-.48-.02-.86-.42-.86-.9v-11.6c.04-.44.42-.79.88-.79h45.73c.68,0,1.77,0,3.01.17,1.29.16,2.88.5,4.44,1.26,3.42,1.65,6.16,5.01,6.16,10.69,0,3.68-1.1,7.21-4,9.66l2.08,4.15,9.27-25.31c.14-.37.47-.61.86-.61h14.17c.36,0,.7.2.83.57l12.49,35.71c.04.09.05.2.05.3,0,.49-.4.9-.9.9h-15.14c-.41,0-.76-.28-.86-.65l-1.57-5.31Z"/>
  </g>
  <path class="cls-1" d="m646.28,187.34h-8.73c-.38,0-.73-.25-.83-.61l-1.6-5.41c-.06-.14-.24-.26-.44-.26h-8.34c-.23,0-.43.13-.5.33l-1.72,5.35c-.12.36-.44.6-.82.6h-8.31c-.48,0-.87-.39-.87-.86,0-.09.01-.18.04-.26l10.92-29.79c.12-.34.45-.56.81-.56h10c.36,0,.69.23.81.57l10.4,29.75c.03.09.05.18.05.3,0,.48-.39.86-.86.86h0Zm-18.31-13.15h0s.01.01.03.01h5.03s.03-.03.03-.06c-.49-1.8-1.81-6.74-2.44-9.4-.56,2.18-1.65,5.97-2.31,8.24l-.35,1.21h0Zm-14.75,13.15h-8.68c-.36,0-.69-.22-.82-.55l-4.82-11.16s-.02-.04-.04-.04h-1.56s-.06.01-.06.04v10.85c0,.48-.39.86-.86.86h-7.97c-.47,0-.86-.39-.86-.86v-29.71c.01-.52.39-.9.87-.9h13.57c7.04,0,10.61,3.06,10.61,9.1,0,4.16-1.63,7.04-4.85,8.58l-.02.05,6.27,12.5c.06.13.09.26.09.38,0,.48-.39.86-.86.86h0Zm-16.13-24.63h0s-.03.02-.03.04v5.82s.02.04.03.04h3c1.71,0,3.29-.37,3.29-3.08,0-1.87-1.09-2.82-3.25-2.82h-3.05Zm-21.99,24.63h-8.38c-.48,0-.86-.39-.86-.86v-22.91c0-.12-.07-.21-.12-.27-.1-.1-.23-.15-.37-.15h-6.14c-.47,0-.86-.39-.86-.86v-5.52c0-.52.38-.9.86-.9h23.37c.43,0,.8.33.85.76v.03s0,.03,0,.03v5.72c-.06.43-.42.75-.86.75h-6.15c-.27,0-.49.22-.49.49v22.83c0,.5-.39.88-.87.88h0Zm-14.38,0c.48,0,.86-.39.86-.86v-5.56c0-.47-.38-.86-.85-.86h-9.65c-.26,0-.47-.2-.49-.42v-22.91c0-.48-.39-.86-.87-.86h-8.38c-.45,0-.81.33-.86.81v29.8c0,.48.39.86.86.86h19.37Zm-23.92,0h-8.73c-.38,0-.73-.25-.84-.61l-1.6-5.41c-.06-.14-.24-.26-.43-.26h-8.34c-.24,0-.43.13-.5.33l-1.72,5.35c-.11.36-.44.6-.82.6h-8.32c-.48,0-.86-.39-.86-.86,0-.08.01-.17.04-.26l10.92-29.8c.13-.34.45-.56.81-.56h10c.36,0,.69.23.81.57l10.4,29.75c.04.12.05.21.05.3,0,.48-.39.86-.86.86h0Zm-18.31-13.15h0s.01.01.03.01h5.04s.02-.03.03-.06c-.61-2.24-1.84-6.87-2.44-9.4-.56,2.18-1.66,5.96-2.31,8.24l-.35,1.21Z"/>
  <path class="cls-1" d="m495.12,187.35h-12.14c-.37,0-.7-.23-.83-.57l-12.38-35.02v-.03s-.01-.03-.01-.03c-.02-.08-.03-.16-.03-.26,0-.47.39-.86.86-.86h9.5c.36,0,.67.21.8.54l6.59,20.12c.32,1.16.75,2.39,1.13,3.47.3.87.58,1.66.77,2.32.23-.74.58-1.66.97-2.66.45-1.18.92-2.4,1.27-3.53l7.11-19.68c.13-.34.43-.57.72-.57h9.02c.55,0,.94.39.94.86,0,.12-.02.23-.07.33l-13.37,35.02c-.12.33-.46.55-.83.55Z"/>
  <path class="cls-1" d="m498.04,116.18c-3.37.37-22.12,2.75-25.57,1.55-2.61-.91-1.73-3.49,3.19-7.25,1.59-1.22,4.01-3.09,6.47-4.53,2.29-1.34,8.9-5.95,15.78-10.14,5.97-3.63,11.84-6.55,14.45-5.65,2.62.9-6.6,9.15-6.6,9.15,0,0-3.23,2.35.3,3.07,1.08.22,2.55.94,5.26-2.22,2.71-3.16,7.94-7.68,5.16-12.33-3.86-6.46-32.18,11.77-40.05,17.13-4.25,2.9-19.07,11.43-12.23,16,6.28,4.19,32.05-.24,32.05-.24,0,0,1.52-.12,2.48-1.27,1.15-1.39,2.67-3.64-.7-3.27h0Zm133.5,2.74c.21-.02,23.89,1.6,33.44,1.39.61-.01.45.97-.18,1.1-.53.1-35.08,1.58-39.34,1.58-4.65,0,3.81-7.94,3.81-7.94,0,0-1.02-.45-1.81-.14-.79.31-6.6,8.58-13.78,8.08-5.28-.36-4.23-2.55-4.23-2.55-3.88,4.55-7.71,1.72-6.5.37l-15.22,15.2-1.66,1.44c-1.17.27-2.98-.87-2.2-2.37,0,0,13.8-12.67,17.1-16.55,0,0,.55-1.04-.79-.13-1.34.91-8.64,6.77-11.47,2.55,0,0-1.79,1.23-3.55,1.81-1.92.63-4.45.57-3.35-2.87,0,0,1.69-4.14,2.17-5.07.47-.93-1.25-.41-1.51-.2-.26.21-5.21,6.63-6.18,6.57-.98-.06-5.13.24-3.05-1.71,1.68-1.59,3.36-4.85,2.61-5.2-.74-.36-6.77,9.18-13.79,8.73-2.66-.17-3.08-2.66-3.08-2.66-1.53.81-9.38,6.41-10.51-1.23l-.53-.29c.16-.14-9.96,10.26-7.64-1.05-2.28,2.25-9,9.45-9.67,1.93-2.65,2.14-7.23,6.27-7.67.27-1.63.93-9.57,6.17-9.22.3,0,0,1.25-3.69,4.66-8.17,0,0,.15-.21.17-.43.02-.34-.26-.72-.97-.38-.66.32-6.25,4.38-7.87,6.54-.88,1.18-3.04,3.38-4.5,4.57-1.78,1.44-4.6.24-3.53-1.23.67-.92,6.08-7.65,11.83-15.36,5.99-8.04,12.07-16.56,14.33-15.24,4.42,2.58-14.48,20.65-13.98,21.08.51.43,7.8-7.78,9.43-6.11,1.63,1.67.48,5.42-3.38,10.57-1.33,1.77,1.34,2.41,2.69,1.28,1.35-1.13,6.91-6.99,10.95-9.68,1-.66,5.8-3.4,7.13-1.7.44.57,1.14,1.9-.09,3.43,0,0-5.23,6.72-4.23,7.29.99.57,7.66-6.61,7.66-6.61,0,0,9.08-11.79,13.1-15.41,2.98-2.67,6.36-5.13,8.52-3.79,3.24,2.02-19.21,22.32-19.21,22.32,0,0-3.06,4.07-.25,3.51,0,0,1.75-.41,5.22-3.49,0,0,8.91-11.19,13.01-15.16,3.52-3.4,10.4-8.65,11.16-5.73,1.21,4.7-20.97,22.41-20.97,22.41,0,0-4.87,4.06.99,3.67,0,0,3.19-.54,3.84-1.9.29-.6,1.49-3.96,3.92-6.36,1.77-1.75,4.77-3.56,6.57-2.61,1.8.96,2.73,3.13-.19,5.79-1.22,1.1-3.04,2.78-5.78,3.91,0,0,.6,1.15,3,.71,0,0,1.73-1.27,6.77-5.73,0,0,1.94-2.23,4.14-2.08,1.39.09.96,2.59,1.01,2.53,1.09-1.41,12.86-4.86,12.35-2.23-.45,2.3-5.78,6.31-4.01,8.19,0,0,.77.8,1.61-.54.84-1.34,8.08-9.19,15.2-6.95,0,0,1.1.46.89.95-.03.28-.48.52-1.53.53-2.57.04-11.37,3.58-9.16,5.46,0,0,7.49-.86,11.07-5.27,0,0,1.26-1.04,2.1-.4.38.29,1.08,1.1.73,2.12,0,0-3.01,3.88-1.57,4.23,1.44.34,2.13-.05,2.58-.72.27-.39,2.8-4.24,6-6.82,2.27-1.83,4.69-3.36,7.04-2.21,2.48,1.21,1.75,3.44-.06,5.16-2.33,2.22-6.15,4.19-6.15,4.19,0,0,.95,1.67,3.18.31.93-.56,8.25-7.74,10.66-8.73,2.29-.94,6.85.1,7.15.58,1.06,1.7-9.59,8.85-5.36,8.35h0Zm-65.94-7.33c-1.27,1.26-3.33,3.57-3.07,4.05.31.56,2.98-1.71,4.56-3.34,1.28-1.31,2.26-2.57,1.82-2.86-.7-.47-1.9.74-3.32,2.15h0Zm1.2-13.38c-1.84,1.63-7.77,8.19-7.42,8.84.4.75,7.05-5.71,9.59-8.05,1.72-1.58,3.71-3.89,3.34-4.14-.95-.65-3.45,1.54-5.5,3.36h0Zm-9.67-.93c-1.78,1.69-8.17,8.67-7.8,9.32.77,1.36,14.18-12.34,13.16-12.84-1.02-.5-3.37,1.64-5.36,3.52h0Zm-28.54,19.94c.43.77,3.42-1.55,5.65-3.9,2.03-2.13,3.42-4.12,2.73-4.62-.56-.41-3.48,2.13-5.63,4.16-1.93,1.82-3.14,3.67-2.75,4.37h0Zm86.12-1.64c.28.57,1.97-.48,3.69-1.98,1.38-1.21,2.47-2.38,2.05-2.69-.68-.5-1.99.61-3.52,1.9-1.37,1.16-2.45,2.28-2.21,2.77Z"/>
</svg>