<?xml version="1.0" encoding="UTF-8"?>
<svg id="Capa_1" data-name="Capa 1" xmlns="http://www.w3.org/2000/svg" xmlns:xlink="http://www.w3.org/1999/xlink" viewBox="0 0 690.2 280.11">
  <defs>
    <style>
      .cls-1, .cls-2 {
        fill: #696666;
      }

      .cls-3 {
        fill: #c51621;
      }

      .cls-3, .cls-4, .cls-5, .cls-6, .cls-2 {
        stroke-width: 0px;
      }

      .cls-4 {
        fill: #1d1e1c;
      }

      .cls-5 {
        fill: #c21630;
      }

      .cls-6 {
        fill: none;
      }

      .cls-7 {
        clip-path: url(#clippath-1);
      }

      .cls-8 {
        clip-path: url(#clippath);
      }
    </style>
    <clipPath id="clippath">
      <path class="cls-2" d="m102.87,93.34h410.43l-47.69,89.89H55.19l47.68-89.89Zm-2.21-3.69l-51.59,97.27h418.78l51.59-97.27H100.66Z"/>
    </clipPath>
    <clipPath id="clippath-1">
      <rect class="cls-6" x="510.02" y="163.7" width="126.09" height="6.19"/>
    </clipPath>
  </defs>
  <g>
    <path class="cls-1" d="m102.87,93.34h410.43l-47.69,89.89H55.19l47.68-89.89Zm-2.21-3.69l-51.59,97.27h418.78l51.59-97.27H100.66Z"/>
    <g class="cls-8">
      <rect class="cls-2" x="49.06" y="89.65" width="470.37" height="97.27"/>
    </g>
  </g>
  <g>
    <path class="cls-5" d="m290.04,155.53v-31.62h21.67c4.28,0,7.05.08,8.29.26,3.13.42,5.26,1.43,6.36,3.02,1.1,1.6,1.66,4.45,1.66,8.56s-.46,6.65-1.37,8.22c-.62,1.06-1.48,1.87-2.59,2.42-1.12.56-2.63.94-4.56,1.16-1.38.15-3.93.22-7.7.22h-12.11v7.75h-9.65Zm9.64-15.65h12.04c2.2,0,3.53-.04,4.02-.09.48-.05.92-.16,1.31-.37.48-.26.83-.66,1.02-1.19.19-.53.28-1.37.28-2.49s-.12-1.95-.35-2.48c-.23-.52-.64-.9-1.22-1.13-.43-.16-2.12-.28-5.05-.33h-12.04v8.08Zm31.5-15.97h10.12v23.55h22.49v8.07h-32.61v-31.61Zm71.04,31.62l-2.71-5.35h-20.91l-2.71,5.35h-11.01l16.77-31.62h14.97l16.54,31.62h-10.93Zm-6.09-12.29l-6.1-11.97h-1.92l-6.09,11.97h14.12Zm18.45-19.34h16.89l16.57,23.58h1l-.23-23.58h9.8v31.62h-16.75l-16.63-23.58h-1.04l.21,23.58h-9.8v-31.62h-.02Z"/>
    <path class="cls-4" d="m128.31,155.53l-2.71-5.35h-20.91l-2.71,5.35h-11.01l16.77-31.61h14.97l16.54,31.61h-10.93Zm-6.08-12.29l-6.09-11.97h-1.93l-6.09,11.97h14.11Zm37.16-5.65h22.03c.03.5.05.8.05.85,0,4.47-.12,7.83-.35,10.08-.37,3.65-2.45,5.86-6.21,6.63-1.62.34-3.48.55-5.57.67-2.09.11-5.28.17-9.58.17-5.43,0-9.29-.15-11.54-.44-2.25-.3-4.04-.88-5.35-1.76-.89-.6-1.58-1.38-2.07-2.31-.48-.94-.81-2.19-1-3.73-.18-1.44-.28-4.27-.28-8.53,0-2.89.08-5.07.22-6.53.16-1.46.46-2.77.9-3.93.91-2.45,2.85-3.93,5.82-4.45,3.25-.57,8.22-.85,14.94-.85,3.98,0,7.13.1,9.45.3,2.32.21,4.22.53,5.72,1,2.41.76,3.89,2.39,4.4,4.91.26,1.25.38,2.98.39,5.17h-9.64c0-.89-.06-1.5-.15-1.82-.09-.32-.29-.59-.57-.8-.55-.39-1.67-.64-3.39-.72-1.62-.09-3.97-.14-7.05-.14-3.34,0-5.71.08-7.14.23-1.43.17-2.41.44-2.93.86-.52.42-.89,1.14-1.07,2.12-.18.99-.28,2.66-.28,5.03,0,2.67.09,4.54.28,5.6.19,1.06.53,1.8,1.07,2.24.51.41,1.21.66,2.04.75.84.08,3.5.15,7.97.23,4.39-.03,7.06-.07,7.99-.12.95-.05,1.71-.2,2.27-.43.46-.21.79-.52.99-.99.2-.46.29-1.14.29-2.05,0-.13-.01-.43-.02-.88h-12.68v-6.33h.02Zm55.94,5.73h9.64c.06,1.54.09,2.53.09,2.99,0,2.44-.37,4.35-1.09,5.72-.8,1.54-2.36,2.59-4.7,3.14-2.33.57-6.37.84-12.1.84-6.02,0-10.31-.12-12.86-.35-2.56-.23-4.48-.69-5.78-1.35-1.15-.6-2.03-1.42-2.6-2.44-.56-1.02-.94-2.41-1.11-4.19-.13-1.44-.21-4.04-.21-7.79s.07-6.3.21-7.92c.14-1.62.41-2.87.81-3.77.87-2.01,2.66-3.31,5.35-3.9,2.69-.6,8.11-.89,16.25-.89,4.08,0,7.05.09,8.9.28,1.86.2,3.33.53,4.43,1.05,1.44.68,2.44,1.7,3.04,3.03.58,1.34.87,3.3.87,5.9,0,.13-.01.67-.02,1.57h-9.63c-.05-1.05-.12-1.76-.19-2.12-.08-.36-.26-.65-.52-.88-.37-.33-1.3-.57-2.81-.7-1.49-.15-3.76-.23-6.8-.23s-5.1.06-6.26.2c-1.16.13-1.97.39-2.46.78-.56.47-.97,1.24-1.19,2.34-.22,1.1-.33,2.84-.33,5.24s.1,4.08.3,5.06c.2.99.59,1.68,1.16,2.12.53.42,1.4.7,2.58.84,1.18.13,3.27.21,6.27.21,3.68,0,6.15-.06,7.38-.18,1.22-.12,2.06-.39,2.49-.81.56-.54.86-1.81.89-3.78m34.23-19.89c6.82,0,11.52.17,14.08.51,3.69.5,5.95,2.25,6.79,5.27.56,2.07.85,5.57.85,10.49s-.29,8.45-.85,10.52c-.84,3.01-3.1,4.77-6.79,5.26-2.56.34-7.22.5-13.98.5s-11.61-.17-14.18-.5c-3.69-.51-5.96-2.25-6.79-5.26-.57-2.06-.85-5.64-.85-10.7s.29-8.26.85-10.31c.83-3.01,3.1-4.77,6.79-5.27,2.55-.33,7.25-.51,14.09-.51m.02,8.23c-5.11,0-8.18.13-9.22.39-1.19.31-1.97,1-2.34,2.08-.37,1.08-.55,3.21-.55,6.41,0,1.93.1,3.33.3,4.19.39,1.6,1.55,2.53,3.49,2.77,1.44.18,4.22.28,8.36.28,3.87,0,6.45-.07,7.73-.21,1.28-.14,2.23-.45,2.85-.94.57-.43.94-1.07,1.14-1.9.2-.84.3-2.22.3-4.14,0-2.27-.08-3.94-.23-5-.16-1.06-.43-1.87-.84-2.4-.51-.68-1.35-1.11-2.53-1.26-1.15-.17-3.99-.26-8.47-.26"/>
  </g>
  <g>
    <g class="cls-7">
      <path class="cls-2" d="m510.02,169.8h1.8l-.04-4.5h.32l2.27,4.5h1.52l2.27-4.5h.3l-.04,4.5h1.81v-6.01h-3.3l-1.79,3.9-1.79-3.9h-3.32v6.01Zm20.12,0l-3.14-6.01h-2.84l-3.19,6.01h2.09l.52-1.02h3.97l.51,1.02h2.08Zm-5.92-2.33l1.16-2.28h.37l1.16,2.28h-2.68Zm6.43.63c0,.43.04.75.13.96.09.21.24.38.47.51.22.12.54.2.97.25.43.05,1.1.07,2,.07,1.08,0,1.82-.02,2.21-.05.37-.04.66-.1.86-.2.2-.1.36-.25.48-.45.15-.28.23-.7.23-1.26,0-.43-.05-.76-.14-.99-.09-.23-.25-.41-.47-.54-.19-.11-.45-.19-.78-.23-.33-.04-.98-.07-1.95-.1-1.15-.04-1.8-.07-1.94-.11-.17-.05-.26-.18-.26-.39s.09-.35.26-.4c.17-.05.65-.07,1.42-.07.64,0,1.07,0,1.27.02.2.01.34.04.42.09.06.04.11.09.13.15.02.06.04.18.04.34h1.77c0-.14,0-.23,0-.28,0-.55-.1-.93-.31-1.16-.2-.23-.58-.38-1.13-.46-.36-.05-.98-.08-1.86-.08-1.25,0-2.08.03-2.49.09-.41.06-.71.2-.91.42-.26.28-.39.76-.39,1.43,0,.61.11,1.04.34,1.29.13.16.32.27.55.34.24.07.57.11,1.01.13.23,0,.71.03,1.46.06.73.04,1.21.05,1.43.05.29,0,.49.04.58.1.1.06.14.18.14.36,0,.25-.07.4-.2.45-.09.04-.21.06-.37.07s-.62.01-1.4.02c-.74,0-1.18-.01-1.32-.02-.14,0-.25-.04-.34-.1-.12-.08-.18-.27-.18-.57h-1.77v.28Zm8.63,0c0,.43.04.75.13.96.09.21.24.38.47.51.22.12.54.2.97.25.43.05,1.1.07,2,.07,1.08,0,1.82-.02,2.21-.05.37-.04.66-.1.86-.2.2-.1.36-.25.48-.45.15-.28.23-.7.23-1.26,0-.43-.05-.76-.14-.99-.09-.23-.25-.41-.47-.54-.19-.11-.45-.19-.78-.23-.33-.04-.98-.07-1.95-.1-1.15-.04-1.8-.07-1.94-.11-.17-.05-.25-.18-.25-.39s.09-.35.25-.4c.17-.05.65-.07,1.42-.07.64,0,1.07,0,1.27.02.2.01.34.04.42.09.06.04.11.09.13.15.02.06.04.18.04.34h1.77c0-.14,0-.23,0-.28,0-.55-.1-.93-.31-1.16-.2-.23-.58-.38-1.14-.46-.36-.05-.98-.08-1.86-.08-1.25,0-2.08.03-2.49.09-.41.06-.71.2-.91.42-.26.28-.39.76-.39,1.43,0,.61.11,1.04.34,1.29.13.16.32.27.55.34.24.07.57.11,1.01.13.23,0,.71.03,1.46.06.73.04,1.21.05,1.43.05.29,0,.49.04.58.1.09.06.14.18.14.36,0,.25-.07.4-.2.45-.09.04-.21.06-.37.07s-.62.01-1.4.02c-.74,0-1.18-.01-1.32-.02-.14,0-.25-.04-.34-.1-.12-.08-.18-.27-.18-.57h-1.77v.28Zm8.71,1.71h6.69v-1.44h-4.89v-.96h4.6v-1.32h-4.6v-.87h4.85v-1.41h-6.66v6.01Zm10.64-2.13v2.13h1.89v-2.13l3.29-3.88h-2.39l-1.88,2.41-1.96-2.41h-2.41l3.45,3.88Zm8.8,2.13h1.83v-2.08h4.3v-1.38h-4.3v-1.14h4.52v-1.41h-6.35v6.01Zm7.63,0h6.69v-1.44h-4.89v-.96h4.6v-1.32h-4.6v-.87h4.85v-1.41h-6.66v6.01Zm9.93,0v-1.53h2.58c.38,0,.63,0,.75.03.12.02.21.06.28.13.07.08.11.19.14.33.02.14.04.38.04.71v.32h1.81v-.56c0-.52-.01-.86-.04-1.02-.03-.16-.09-.3-.18-.42-.17-.19-.44-.3-.83-.33.33-.05.57-.14.73-.27.15-.12.25-.29.31-.49.05-.2.08-.53.08-.96,0-.52-.04-.9-.13-1.14-.08-.24-.24-.43-.47-.57-.19-.12-.39-.19-.59-.2-.21-.02-.83-.03-1.87-.03h-4.42v6.01h1.83Zm0-4.51h2.57c.42,0,.68,0,.77.01.09,0,.17.02.23.05.09.04.16.11.19.21.04.1.06.24.06.44s-.02.35-.05.45c-.03.1-.09.17-.17.22-.06.04-.14.06-.22.07-.09,0-.36.01-.8.02h-2.58v-1.48Zm10.56,2.3h2.41c0,.09,0,.14,0,.17,0,.17-.02.3-.06.39-.04.09-.1.15-.19.19-.11.04-.25.07-.43.08-.18,0-.68.02-1.52.02-.85-.01-1.36-.03-1.52-.04-.16-.02-.29-.06-.39-.14-.1-.08-.17-.22-.2-.43-.03-.2-.05-.56-.05-1.06,0-.45.02-.77.05-.96.03-.19.1-.32.2-.4.1-.08.29-.13.56-.16.27-.03.72-.04,1.36-.04.58,0,1.03,0,1.34.03.33.02.54.06.64.14.06.04.09.09.11.15.02.06.03.18.03.35h1.83c0-.42-.03-.74-.07-.98-.1-.48-.38-.79-.84-.93-.28-.09-.65-.15-1.09-.19-.44-.04-1.04-.06-1.8-.06-1.28,0-2.22.05-2.84.16-.56.1-.93.38-1.11.84-.09.22-.14.47-.17.75-.03.28-.04.69-.04,1.24,0,.81.02,1.35.05,1.62.04.29.1.53.19.71.09.18.22.32.39.44.25.17.59.28,1.02.33.43.05,1.16.08,2.19.08.82,0,1.42-.01,1.82-.03.4-.02.75-.06,1.06-.12.72-.15,1.11-.57,1.18-1.26.04-.43.06-1.07.06-1.91,0-.01,0-.07,0-.16h-4.19v1.2Zm5.46-1.04c0,.7.01,1.15.02,1.35.01.19.04.41.08.65.11.62.48,1.01,1.13,1.16.29.07.63.11,1.02.14.39.03.95.04,1.68.04.97,0,1.66-.02,2.08-.07s.75-.14.98-.27c.41-.23.65-.6.72-1.11.04-.3.07-.92.09-1.88v-2.76h-1.83v2.76c0,.17,0,.39-.02.66-.01.26-.04.45-.06.56-.03.11-.08.2-.14.28-.1.11-.28.18-.52.22-.25.04-.68.06-1.32.06-.78,0-1.3-.04-1.56-.11-.26-.07-.41-.23-.46-.46-.04-.17-.06-.57-.07-1.2v-2.76h-1.83v2.76Zm8.89,1.54c0,.43.04.75.13.96.09.21.24.38.47.51.22.12.54.2.97.25s1.1.07,2,.07c1.08,0,1.82-.02,2.21-.05.37-.04.66-.1.86-.2.2-.1.36-.25.48-.45.15-.28.23-.7.23-1.26,0-.43-.05-.76-.14-.99-.09-.23-.25-.41-.47-.54-.19-.11-.45-.19-.78-.23-.33-.04-.98-.07-1.95-.1-1.15-.04-1.8-.07-1.94-.11-.17-.05-.25-.18-.25-.39s.08-.35.25-.4c.17-.05.64-.07,1.42-.07.65,0,1.07,0,1.27.02.2.01.34.04.42.09.06.04.11.09.13.15.02.06.04.18.04.34h1.77c0-.14,0-.23,0-.28,0-.55-.1-.93-.31-1.16-.21-.23-.58-.38-1.14-.46-.36-.05-.98-.08-1.86-.08-1.25,0-2.08.03-2.49.09-.41.06-.71.2-.91.42-.26.28-.39.76-.39,1.43,0,.61.11,1.04.34,1.29.13.16.32.27.55.34.24.07.58.11,1.01.13.23,0,.71.03,1.46.06.73.04,1.21.05,1.44.05.29,0,.49.04.58.1.09.06.14.18.14.36,0,.25-.07.4-.2.45-.09.04-.21.06-.37.07s-.62.01-1.4.02c-.74,0-1.18-.01-1.32-.02-.14,0-.25-.04-.34-.1-.12-.08-.18-.27-.18-.57h-1.77v.28Zm9.85-4.29c-.7.09-1.13.43-1.29,1-.11.39-.16,1.04-.16,1.96,0,.96.05,1.64.16,2.03.16.57.59.9,1.29,1,.49.06,1.39.1,2.69.1s2.17-.03,2.66-.1c.7-.09,1.13-.43,1.29-1,.11-.39.16-1.06.16-2s-.05-1.6-.16-1.99c-.16-.57-.59-.91-1.29-1-.49-.06-1.38-.1-2.68-.1s-2.19.03-2.68.1m4.29,1.51c.22.03.38.11.48.24.08.1.13.26.16.46.03.2.04.52.04.95,0,.36-.02.63-.06.79-.04.16-.11.28-.22.36-.12.09-.3.15-.54.17-.24.03-.73.04-1.47.04-.79,0-1.32-.02-1.59-.05-.37-.04-.59-.22-.66-.52-.04-.17-.06-.43-.06-.8,0-.61.04-1.01.11-1.22.07-.2.22-.34.44-.39.2-.05.78-.08,1.75-.08.85,0,1.39.01,1.61.05m3.72,4.49h1.86l-.04-4.48h.2l3.16,4.48h3.18v-6.01h-1.86l.04,4.48h-.19l-3.15-4.48h-3.21v6.01Z"/>
    </g>
    <path class="cls-3" d="m565.69,126.89l7.37,9.97,18.39-24.88h-36.79l8.89,12.02h16.81l-1.31,1.77c-.52.7-1.35,1.12-2.21,1.12h-11.15Zm-22.01,0l18.39,24.88,9.19-12.43-9.2-12.44h-18.39Zm40.37,28.75c-.46,0-.89-.22-1.16-.59l-9.83-13.29-9.83,13.29c-.54.73-1.78.73-2.32,0l-21.26-28.75c-.33-.44-.37-1.02-.13-1.51.25-.49.74-.79,1.29-.79h19.15l-9.32-12.6c-.33-.44-.38-1.02-.13-1.51.25-.49.74-.79,1.29-.79h42.52c.55,0,1.04.3,1.29.79.25.49.2,1.07-.13,1.51l-20.62,27.94,9.19,12.43,18.39-24.88h-16.25l1.31-1.77c.46-.63.82-1.12,1.77-1.12h16.04c.55,0,1.04.3,1.29.79.25.49.2,1.07-.13,1.51l-21.26,28.75c-.27.37-.71.59-1.16.59"/>
  </g>
</svg>