<?xml version="1.0" encoding="UTF-8"?>
<svg id="Capa_1" data-name="Capa 1" xmlns="http://www.w3.org/2000/svg" viewBox="0 0 690.2 280.11">
  <defs>
    <style>
      .cls-1 {
        fill: #e00;
        stroke-width: 0px;
      }
    </style>
  </defs>
  <g>
    <path class="cls-1" d="m105.12,239.56v-46.75h13.03c4.24,0,10.35.37,13.4,3.86,2.56,2.87,3.05,6.36,3.05,10.16,0,5.05-1.18,10.72-6.17,13.03-3.8,1.87-8.23,1.31-12.34,1.5v18.2h-10.97Zm10.97-26.61c2.06-.06,4.43.19,6.17-1.18,1.12-1.25,1.37-3.12,1.37-4.74,0-1.81-.19-4.55-2.06-5.42-1.06-.37-2.56-.37-4.3-.37h-1.18v11.72Z"/>
    <path class="cls-1" d="m138.77,239.56v-46.75h10.97v37.4h13.4v9.35h-24.37Z"/>
    <path class="cls-1" d="m164.7,239.56l10.22-46.75h13.21l10.16,46.75h-11.1l-1.56-9.1h-8.6l-1.31,9.1h-11.03Zm16.83-38.27h-.13l-3.18,20.94h6.36l-3.05-20.94Z"/>
    <path class="cls-1" d="m211.01,213.38l-.13.12,1,26.05h-10.41v-46.75h11.28l8.48,26.12h.19l-1.06-26.12h10.41v46.75h-11.22l-8.54-26.18Z"/>
    <path class="cls-1" d="m262.61,239.56h-10.97v-46.75h16.02c8.98,0,13.46,3.62,13.46,12.9,0,4.99-1.18,8.54-5.8,10.66v.12c3.05.69,5.24,2.8,5.42,6.05.31,3.74.37,11.78,1,14.77.25.62.56,1.18,1.06,1.62v.62h-11.97c-.31-.87-.56-1.75-.62-2.68-.19-4.11.06-7.98-.25-10.85-.31-2.87-1.18-4.74-3.74-4.92h-3.62v18.45Zm0-26.86h3.74c3.18,0,3.93-2.93,3.93-5.8,0-5.55-2.31-5.8-7.67-5.67v11.47Z"/>
    <path class="cls-1" d="m286.54,239.56v-46.75h25.12v9.35h-14.15v8.6h13.71v9.35h-13.71v10.1h14.9v9.35h-25.87Z"/>
    <path class="cls-1" d="m317.89,239.56v-46.75h15.46l5.67,27.61h.12l5.86-27.61h15.33v46.75h-10.47l1.12-36.65h-.13l-7.73,36.65h-8.17l-7.54-36.65h-.13l1,36.65h-10.41Z"/>
    <path class="cls-1" d="m395.55,224.66c0,10.53-3.68,16.02-14.77,16.02s-14.96-5.48-14.96-16.02v-19.01c0-8.98,5.36-13.96,14.96-13.96s14.77,4.99,14.77,13.96v19.01Zm-10.97-18.26c0-2.87-.25-6.3-3.86-6.3s-3.93,3.43-3.93,6.3v19.2c0,2.68.44,6.67,3.99,6.67s3.8-3.99,3.8-6.67v-19.2Z"/>
    <path class="cls-1" d="m400.28,239.56v-46.75h10.97v37.4h13.4v9.35h-24.37Z"/>
    <path class="cls-1" d="m457.87,224.66c0,4.99-.81,8.85-3.05,11.59l5.11,5.48-6.42,5.48-6.17-6.92c-.62.12-1.31.19-1.99.25-.69.06-1.43.12-2.24.12-11.1,0-14.96-5.48-14.96-16.02v-19.01c0-8.98,5.36-13.96,14.96-13.96s14.77,4.99,14.77,13.96v19.01Zm-18.76.94c0,2.68.44,6.67,3.99,6.67s3.8-3.99,3.8-6.67v-19.2c0-2.87-.25-6.3-3.86-6.3s-3.93,3.43-3.93,6.3v19.2Z"/>
    <path class="cls-1" d="m462.91,192.81h10.97v35.28c0,2.24.69,4.18,3.8,4.18,2.87,0,3.74-2.49,3.74-4.49v-34.97h10.97v33.84c0,7.92-3.55,14.02-14.77,14.02-9.29,0-14.71-4.43-14.71-14.02v-33.84Z"/>
    <path class="cls-1" d="m497.81,239.56v-46.75h25.12v9.35h-14.15v8.6h13.71v9.35h-13.71v10.1h14.9v9.35h-25.87Z"/>
    <path class="cls-1" d="m537.26,223.91v3.3c0,2.68.87,5.05,4.36,5.05,2.56,0,3.68-2.31,3.68-4.67,0-3.93-3.24-5.42-6.11-7.17-3.37-1.93-6.23-3.74-8.29-6.11-1.99-2.37-3.18-5.24-3.18-9.35,0-8.79,5.3-13.28,13.77-13.28,9.54,0,14.4,6.36,13.9,15.15h-10.1c-.13-2.74,0-6.48-3.62-6.73-2.24-.19-3.55,1.06-3.8,3.12-.31,2.8,1.12,4.24,3.3,5.73,4.11,2.62,7.67,4.24,10.22,6.61,2.56,2.37,4.05,5.48,4.05,11.16,0,8.98-4.99,13.96-14.09,13.96-10.03,0-14.27-5.61-14.27-11.78v-4.99h10.16Z"/>
  </g>
  <g>
    <path class="cls-1" d="m239.6,161.9c0-3.9,0-7.58,0-11.27,0-1.04.08-2.08-.03-3.11-.07-.66-.42-1.29-.65-1.94-.25.61-.71,1.22-.73,1.84-.09,2.33-.04,4.67-.04,7,0,2.32,0,4.64,0,7.09h-9.48v-7.3c-.85,1.03-1.42,1.73-2.2,2.68-.21-1.88-.28-3.41-.55-4.9-1.69-9.36-9.8-15.43-19.46-14.61-8.92.76-16.03,8.63-16.07,17.75,0,.73.59,1.9-.99,1.89-.03,0-.11.84-.09,1.29.11,2.14.25,4.27.37,6.41.12,2.17-.19,2.58-2.41,2.26-4.23-.61-8.42-1.45-12.65-2.06-2.49-.36-5.04-.32-7.53-.7-1.12-.17-2.4-.66-3.16-1.44-1.61-1.66-2.49-3.75-2.31-6.17.29-3.94.59-7.89.75-11.83.03-.73-.63-1.48-.98-2.22-.26-.53-.76-1.06-.76-1.59-.05-9.53-.3-19.07.09-28.59.17-4.2,1.69-8.35,2.59-12.52,1.3-6,2.53-12.03,3.92-18.01,1.42-6.1,5.24-10.27,11.1-12.24,3.08-1.04,6.42-1.64,9.67-1.79,11.71-.54,23.44-.7,35.16-1.21,4.84-.21,9.66-.91,14.65-1.41v73.25h129.08c-2.31,2.2-4.66,4.49-7.1,6.7-.4.36-1.21.49-1.77.41-1.86-.28-2.94.54-3.57,2.19-.44,1.15-.83,2.31-1.35,3.42-.21.45-.69.77-1.05,1.15-.08-.56-.37-1.18-.22-1.66.54-1.64,1.24-3.23,1.93-4.97h-53.65v16.2h-60.52Zm-63.87-51.76c10.48-.79,20.72-1.57,30.95-2.34v-24.41c-10.38.78-20.62,1.55-30.95,2.33v24.42Zm-13.67.13h10.75v-26.87c-1.53.1-2.94.13-4.33.32-.36.05-.86.58-.95.97-1.84,8.45-3.63,16.91-5.48,25.58Z"/>
    <path class="cls-1" d="m430.8,138.58c9.29.05,16.68,7.61,16.59,16.96-.1,9.17-7.65,16.56-16.87,16.51-9.26-.05-16.63-7.59-16.61-16.97.02-9.01,7.74-16.54,16.9-16.5Zm8.36,16.81c-.03-4.74-3.82-8.6-8.47-8.61-4.68-.02-8.62,3.91-8.55,8.51.08,4.95,3.8,8.64,8.65,8.57,4.63-.06,8.4-3.87,8.37-8.47Z"/>
    <path class="cls-1" d="m208.57,138.49c9.38.06,16.66,7.48,16.61,16.93-.05,9.11-7.71,16.65-16.85,16.58-9.3-.07-16.71-7.74-16.63-17.22.08-8.99,7.7-16.35,16.86-16.29Zm8.41,16.76c.01-4.84-3.82-8.78-8.52-8.75-4.67.02-8.57,3.93-8.53,8.55.04,4.96,3.71,8.71,8.52,8.71,4.7,0,8.52-3.8,8.53-8.51Z"/>
    <path class="cls-1" d="m374.64,138.48c9.32-.02,16.69,7.36,16.78,16.81.08,9-7.65,16.7-16.77,16.71-9.3.01-16.74-7.59-16.74-17.1,0-9,7.54-16.4,16.73-16.42Zm8.53,16.68c-.03-4.83-3.89-8.73-8.59-8.67-4.62.06-8.67,4.07-8.6,8.52.08,4.96,3.92,8.8,8.75,8.74,4.69-.06,8.46-3.89,8.44-8.59Z"/>
    <path class="cls-1" d="m450.1,145.49c.75,1.92,1.42,3.45,1.91,5.04.14.46-.22,1.07-.34,1.61-.33-.42-.77-.79-.98-1.26-.58-1.29-.91-2.73-1.65-3.91-.42-.67-1.42-1-2.2-1.41-.42-.23-1.05-.18-1.36-.49-1.14-1.14-2.09-2.48-3.29-3.54-1.19-1.05-2.59-1.85-4.15-2.93h60.88v6.89h-48.82Z"/>
    <path class="cls-1" d="m408.81,152.14c-1.26.09-1.38-.51-.97-1.55.64-1.6,1.24-3.23,1.91-4.96h-15.58c.51,1.27.98,2.42,1.44,3.57.19.48.51.96.53,1.45.02.52-.25,1.05-.39,1.57-.33-.37-.77-.69-.96-1.12-.52-1.18-.9-2.42-1.41-3.6-.53-1.24-1.21-2.28-2.87-2-.34.06-.84-.26-1.13-.54-2.27-2.15-4.5-4.33-6.58-6.35h39.73c-2.08,2.02-4.33,4.27-6.68,6.41-.44.4-1.31.57-1.92.47-1.91-.31-2.91.63-3.52,2.24-.55,1.44-1.05,2.9-1.59,4.4Z"/>
    <path class="cls-1" d="m498.89,134.75h-2.51V47.85h2.51v86.9Z"/>
    <path class="cls-1" d="m246.15,47.78h251.63v86.89h-251.63V47.78Z"/>
  </g>
</svg>